<?xml version="1.0" standalone="no"?>
<!DOCTYPE svg PUBLIC "-//W3C//DTD SVG 20010904//EN"
 "http://www.w3.org/TR/2001/REC-SVG-20010904/DTD/svg10.dtd">
<svg version="1.0" xmlns="http://www.w3.org/2000/svg"
 width="1304.000000pt" height="1304.000000pt" viewBox="0 0 1304.000000 1304.000000"
 preserveAspectRatio="xMidYMid meet">
<metadata>
Created by potrace 1.16, written by Peter Selinger 2001-2019
</metadata>
<g transform="translate(0.000000,1304.000000) scale(0.100000,-0.100000)"
fill="#000000" stroke="none">
<path d="M6180 12299 c-85 -4 -175 -10 -200 -14 -25 -3 -101 -12 -170 -20 -69
-8 -134 -16 -145 -19 -11 -2 -54 -9 -95 -16 -613 -97 -1297 -333 -1835 -632
-162 -90 -176 -98 -274 -159 -51 -33 -95 -59 -96 -59 -4 0 -228 -154 -265
-182 -14 -11 -63 -48 -110 -82 -675 -502 -1296 -1249 -1684 -2026 -349 -699
-545 -1408 -606 -2195 -12 -151 -12 -714 0 -860 53 -663 196 -1250 450 -1853
95 -226 319 -657 411 -792 9 -14 39 -59 65 -100 117 -180 290 -416 388 -531
17 -19 49 -57 71 -84 84 -103 306 -334 440 -459 457 -426 908 -737 1462 -1007
101 -49 185 -89 189 -89 3 0 30 -11 60 -25 316 -145 821 -296 1229 -370 257
-46 314 -53 659 -85 145 -13 690 -13 835 1 535 49 863 110 1290 239 126 38
392 131 481 169 217 93 281 122 425 194 435 216 816 470 1210 806 136 116 469
447 585 583 52 61 100 116 105 122 31 33 194 247 268 351 236 332 478 772 633
1152 153 375 279 816 348 1223 58 339 77 569 80 960 2 273 0 333 -24 590 -103
1138 -563 2250 -1299 3145 -896 1088 -2168 1825 -3546 2054 -423 70 -868 94
-1335 70z m4913 -3480 c45 -12 105 -64 129 -111 9 -18 48 -154 85 -303 60
-236 68 -277 62 -327 -11 -96 -82 -169 -190 -194 -34 -8 -67 -18 -74 -22 -9
-5 22 -49 104 -147 64 -77 178 -214 254 -304 75 -91 134 -168 130 -172 -5 -3
-98 -30 -208 -58 -110 -28 -209 -54 -220 -57 -17 -4 -44 22 -147 148 -69 84
-185 224 -257 312 -72 87 -131 160 -131 162 0 1 -16 64 -35 140 -20 75 -34
138 -33 139 2 1 71 19 153 39 83 21 153 41 157 44 5 5 -57 280 -65 289 -3 3
-379 -95 -384 -101 -5 -5 102 -413 312 -1184 15 -58 19 -85 11 -88 -47 -18
-432 -111 -437 -106 -4 4 -72 266 -153 582 -80 316 -173 678 -205 805 -33 126
-58 231 -56 233 2 2 88 26 192 53 103 27 229 60 278 73 128 35 595 153 625
159 44 8 64 7 103 -4z m-1287 -346 c-3 -27 -11 -97 -16 -158 -6 -60 -13 -126
-16 -147 -6 -42 34 -28 -433 -147 -150 -39 -276 -72 -279 -75 -5 -6 57 -259
68 -276 5 -9 69 6 533 126 98 26 179 45 182 43 6 -7 89 -339 84 -342 -5 -4
-620 -163 -666 -172 -18 -4 -35 -10 -37 -14 -5 -7 18 -107 50 -219 18 -62 -7
-62 229 -1 486 126 618 159 623 154 6 -5 -26 -376 -32 -383 -4 -4 -104 -30
-758 -196 -207 -53 -383 -99 -391 -102 -11 -4 -27 46 -72 223 -63 252 -214
839 -301 1176 -31 119 -54 220 -51 223 5 5 69 22 727 191 162 42 351 90 420
108 69 18 129 34 133 34 5 1 6 -20 3 -46z m-1425 -376 c79 -42 94 -76 170
-374 77 -301 83 -354 46 -424 -43 -81 -77 -96 -437 -188 -179 -46 -328 -85
-331 -87 -4 -2 11 -70 33 -151 99 -376 139 -535 136 -544 -5 -14 -429 -122
-438 -112 -4 4 -51 181 -105 393 -53 212 -108 423 -120 470 -13 47 -42 159
-65 250 -23 91 -62 239 -85 330 -24 91 -40 168 -37 172 4 4 68 22 142 41 528
136 889 230 910 237 51 17 135 11 181 -13z m-1395 -346 c44 -20 87 -60 109
-102 8 -14 55 -187 104 -385 50 -197 122 -480 161 -627 38 -148 70 -289 70
-315 0 -61 -38 -124 -93 -156 -43 -26 -129 -50 -682 -191 -328 -84 -370 -88
-440 -45 -54 33 -75 72 -107 198 -50 201 -218 863 -239 942 -11 41 -30 108
-41 149 -37 134 -11 231 75 285 34 21 126 49 354 107 169 43 376 96 458 118
170 45 213 48 271 22z m-1352 -374 c65 -50 81 -87 146 -347 34 -135 86 -342
117 -460 31 -118 77 -299 104 -402 47 -180 48 -188 35 -238 -15 -58 -52 -102
-110 -132 -35 -18 -1124 -303 -1131 -296 -2 2 -29 102 -60 223 -31 121 -99
384 -151 585 -160 623 -207 810 -202 815 2 2 206 57 454 121 247 64 487 127
534 140 119 33 212 30 264 -9z m-1831 -530 c43 -67 131 -202 195 -299 380
-577 691 -1054 692 -1062 0 -5 -120 -40 -267 -78 -147 -37 -350 -89 -451 -115
-111 -28 -186 -43 -192 -37 -9 9 -94 334 -88 339 2 2 80 22 173 46 94 23 171
43 173 44 2 2 -72 121 -164 266 -91 145 -183 290 -203 322 -20 31 -38 57 -41
57 -3 0 -23 -188 -44 -417 -21 -230 -46 -490 -55 -578 l-16 -160 -220 -56
c-121 -31 -222 -55 -224 -53 -2 2 2 54 8 116 6 62 29 298 51 523 82 836 112
1140 115 1143 4 5 448 120 465 121 9 0 48 -52 93 -122z m-1880 -137 c150 -16
337 -37 417 -45 180 -20 185 -21 205 -51 15 -23 15 -39 -1 -192 -19 -187 -23
-204 -57 -226 -22 -15 -54 -13 -393 24 -203 22 -403 43 -444 47 -122 10 -134
36 -110 229 5 43 12 105 15 138 7 64 37 106 75 106 11 0 143 -13 293 -30z
m-39 -624 c176 -19 374 -40 439 -47 167 -17 163 -13 147 -173 -9 -91 -18 -133
-30 -149 l-17 -21 -164 17 c-90 10 -247 26 -349 38 -102 11 -238 26 -303 33
-159 17 -154 11 -138 173 13 137 24 163 69 163 13 0 169 -15 346 -34z m-124
-466 c539 -57 665 -72 673 -79 13 -13 -5 -132 -21 -138 -8 -3 -78 1 -156 10
-77 9 -271 30 -431 47 -159 17 -312 34 -340 38 l-50 8 1 56 c1 65 8 88 26 88
7 0 141 -14 298 -30z"/>
<path d="M7860 7643 c-96 -25 -177 -47 -179 -49 -2 -2 13 -69 33 -148 l38
-143 184 47 c102 26 187 49 189 52 3 3 -10 66 -30 140 -19 74 -35 138 -35 142
0 10 -16 7 -200 -41z"/>
<path d="M6580 7316 c-47 -13 -124 -34 -171 -46 l-87 -22 48 -187 c26 -102 78
-305 115 -451 37 -146 69 -267 71 -269 6 -7 354 84 354 93 0 9 -57 232 -171
671 -63 243 -60 235 -68 234 -3 0 -44 -11 -91 -23z"/>
<path d="M5135 6944 c-71 -19 -152 -39 -178 -45 -37 -8 -47 -14 -43 -27 9 -32
226 -890 226 -895 0 -6 369 89 377 97 3 3 -29 142 -72 308 -42 167 -94 368
-114 448 -25 97 -42 146 -52 147 -8 1 -72 -14 -144 -33z"/>
</g>
</svg>
