<svg width="1280" height="900" viewBox="0 0 1280 900" fill="none" xmlns="http://www.w3.org/2000/svg">
<rect width="1280" height="900" fill="#F9FAFB"/>
<path d="M470.992 101.36H518.992V53.36H470.992V101.36ZM530.954 98L536.749 63.0909H559.863L558.84 69.1761H543.107L541.744 77.4943H555.942L554.92 83.5795H540.721L538.335 98H530.954ZM568.837 98.5114C566.167 98.5114 563.957 97.9432 562.207 96.8068C560.457 95.6591 559.224 94.0682 558.508 92.0341C557.803 89.9886 557.673 87.608 558.116 84.892C558.548 82.2102 559.445 79.8636 560.809 77.8523C562.173 75.8409 563.906 74.2784 566.008 73.1648C568.11 72.0398 570.479 71.4773 573.116 71.4773C575.775 71.4773 577.979 72.0511 579.729 73.1989C581.479 74.3352 582.712 75.9261 583.428 77.9716C584.144 80.017 584.281 82.3977 583.837 85.1136C583.394 87.7841 582.485 90.125 581.11 92.1364C579.735 94.1477 578.002 95.7159 575.911 96.8409C573.82 97.9545 571.462 98.5114 568.837 98.5114ZM569.553 92.8864C570.781 92.8864 571.866 92.5398 572.809 91.8466C573.763 91.142 574.553 90.1875 575.178 88.983C575.815 87.767 576.258 86.392 576.508 84.858C576.758 83.3466 576.775 82.0057 576.559 80.8352C576.343 79.6534 575.888 78.7216 575.195 78.0398C574.513 77.358 573.576 77.017 572.383 77.017C571.156 77.017 570.065 77.3693 569.11 78.0739C568.156 78.767 567.366 79.7216 566.741 80.9375C566.116 82.1534 565.678 83.5341 565.428 85.0795C565.19 86.5795 565.173 87.9205 565.377 89.1023C565.582 90.2727 566.031 91.1989 566.724 91.8807C567.417 92.5511 568.36 92.8864 569.553 92.8864ZM586.411 98L590.775 71.8182H597.815L597.048 76.3864H597.32C598.07 74.7614 599.076 73.5341 600.337 72.7045C601.61 71.8636 602.979 71.4432 604.445 71.4432C604.809 71.4432 605.19 71.4659 605.587 71.5114C605.996 71.5455 606.36 71.6023 606.678 71.6818L605.587 78.142C605.269 78.0284 604.815 77.9375 604.224 77.8693C603.644 77.7898 603.093 77.75 602.57 77.75C601.513 77.75 600.531 77.983 599.621 78.4489C598.712 78.9034 597.945 79.5398 597.32 80.358C596.707 81.1761 596.303 82.1193 596.11 83.1875L593.673 98H586.411ZM606.103 98L610.467 71.8182H617.37L616.62 76.4375H616.91C617.705 74.9034 618.813 73.6932 620.234 72.8068C621.665 71.9205 623.273 71.4773 625.058 71.4773C626.83 71.4773 628.273 71.9261 629.387 72.8239C630.512 73.7102 631.16 74.9148 631.33 76.4375H631.603C632.376 74.9375 633.54 73.7386 635.097 72.8409C636.654 71.9318 638.393 71.4773 640.313 71.4773C642.734 71.4773 644.586 72.2557 645.87 73.8125C647.154 75.3693 647.558 77.5625 647.08 80.392L644.148 98H636.887L639.614 81.8239C639.83 80.358 639.614 79.267 638.967 78.5511C638.319 77.8239 637.415 77.4602 636.256 77.4602C634.938 77.4602 633.842 77.8807 632.967 78.7216C632.092 79.5511 631.552 80.6477 631.347 82.0114L628.637 98H621.597L624.359 81.6705C624.552 80.375 624.342 79.3523 623.728 78.6023C623.126 77.8409 622.222 77.4602 621.018 77.4602C620.222 77.4602 619.467 77.6648 618.751 78.0739C618.046 78.4716 617.45 79.0341 616.961 79.7614C616.472 80.4773 616.154 81.3182 616.006 82.2841L613.347 98H606.103ZM668.481 86.8523L670.987 71.8182H678.248L673.884 98H666.913L667.697 93.2443H667.424C666.617 94.7784 665.441 96.0114 663.896 96.9432C662.35 97.875 660.594 98.3409 658.629 98.3409C656.879 98.3409 655.401 97.9432 654.197 97.1477C653.004 96.3523 652.157 95.2216 651.657 93.7557C651.157 92.2898 651.072 90.5341 651.401 88.4886L654.197 71.8182H661.458L658.901 87.1932C658.663 88.7386 658.879 89.9602 659.549 90.858C660.219 91.7557 661.242 92.2045 662.617 92.2045C663.492 92.2045 664.339 92.0057 665.157 91.608C665.987 91.1989 666.702 90.5966 667.305 89.8011C667.907 89.0057 668.299 88.0227 668.481 86.8523ZM692.749 63.0909L686.954 98H679.692L685.488 63.0909H692.749ZM700.168 98.4943C698.509 98.4943 697.072 98.2045 695.856 97.625C694.651 97.0341 693.765 96.1591 693.197 95C692.629 93.8409 692.487 92.4034 692.771 90.6875C693.021 89.233 693.492 88.017 694.185 87.0398C694.89 86.0511 695.748 85.2557 696.759 84.6534C697.771 84.0511 698.89 83.5909 700.117 83.2727C701.356 82.9545 702.634 82.7386 703.952 82.625C705.475 82.4659 706.714 82.3125 707.668 82.1648C708.634 82.017 709.356 81.8068 709.833 81.5341C710.31 81.25 710.6 80.8295 710.702 80.2727V80.1705C710.873 79.1023 710.674 78.2727 710.106 77.6818C709.549 77.0795 708.657 76.7784 707.43 76.7784C706.134 76.7784 705.032 77.0625 704.123 77.6307C703.225 78.1989 702.583 78.9205 702.197 79.7955L695.583 79.25C696.174 77.6591 697.066 76.2841 698.259 75.125C699.464 73.9545 700.913 73.0568 702.606 72.4318C704.299 71.7955 706.197 71.4773 708.299 71.4773C709.754 71.4773 711.112 71.6477 712.373 71.9886C713.646 72.3295 714.742 72.858 715.663 73.5739C716.594 74.2898 717.265 75.2102 717.674 76.3352C718.094 77.4489 718.18 78.7841 717.93 80.3409L714.981 98H708.094L708.708 94.3693H708.504C707.947 95.1875 707.265 95.9091 706.458 96.5341C705.651 97.1477 704.725 97.6307 703.68 97.983C702.634 98.3239 701.464 98.4943 700.168 98.4943ZM703.083 93.483C704.14 93.483 705.112 93.2727 705.998 92.8523C706.896 92.4205 707.634 91.8409 708.214 91.1136C708.805 90.3864 709.18 89.5625 709.339 88.642L709.782 85.8636C709.555 86.0114 709.225 86.142 708.793 86.2557C708.373 86.3693 707.913 86.4773 707.413 86.5795C706.924 86.6705 706.43 86.7557 705.93 86.8352C705.43 86.9034 704.981 86.9716 704.583 87.0398C703.708 87.1648 702.924 87.3636 702.231 87.6364C701.538 87.9091 700.975 88.2784 700.543 88.7443C700.112 89.1989 699.844 89.767 699.742 90.4489C699.583 91.4375 699.816 92.1932 700.441 92.7159C701.077 93.2273 701.958 93.483 703.083 93.483ZM720.614 98L724.978 71.8182H732.018L731.251 76.3864H731.523C732.273 74.7614 733.279 73.5341 734.54 72.7045C735.813 71.8636 737.183 71.4432 738.648 71.4432C739.012 71.4432 739.393 71.4659 739.79 71.5114C740.2 71.5455 740.563 71.6023 740.881 71.6818L739.79 78.142C739.472 78.0284 739.018 77.9375 738.427 77.8693C737.847 77.7898 737.296 77.75 736.773 77.75C735.717 77.75 734.734 77.983 733.825 78.4489C732.915 78.9034 732.148 79.5398 731.523 80.358C730.91 81.1761 730.506 82.1193 730.313 83.1875L727.876 98H720.614ZM740.255 98L744.619 71.8182H751.88L747.516 98H740.255ZM748.999 68.4091C747.92 68.4091 747.028 68.0511 746.323 67.3352C745.63 66.608 745.346 65.7443 745.471 64.7443C745.596 63.7216 746.085 62.858 746.937 62.1534C747.789 61.4375 748.755 61.0795 749.835 61.0795C750.914 61.0795 751.795 61.4375 752.477 62.1534C753.158 62.858 753.442 63.7216 753.329 64.7443C753.215 65.7443 752.732 66.608 751.88 67.3352C751.039 68.0511 750.079 68.4091 748.999 68.4091ZM765.197 98.5114C762.526 98.5114 760.316 97.9432 758.566 96.8068C756.816 95.6591 755.583 94.0682 754.867 92.0341C754.163 89.9886 754.032 87.608 754.475 84.892C754.907 82.2102 755.805 79.8636 757.168 77.8523C758.532 75.8409 760.265 74.2784 762.367 73.1648C764.469 72.0398 766.839 71.4773 769.475 71.4773C772.134 71.4773 774.339 72.0511 776.089 73.1989C777.839 74.3352 779.072 75.9261 779.788 77.9716C780.504 80.017 780.64 82.3977 780.197 85.1136C779.754 87.7841 778.844 90.125 777.469 92.1364C776.094 94.1477 774.362 95.7159 772.271 96.8409C770.18 97.9545 767.822 98.5114 765.197 98.5114ZM765.913 92.8864C767.14 92.8864 768.225 92.5398 769.168 91.8466C770.123 91.142 770.913 90.1875 771.538 88.983C772.174 87.767 772.617 86.392 772.867 84.858C773.117 83.3466 773.134 82.0057 772.918 80.8352C772.702 79.6534 772.248 78.7216 771.555 78.0398C770.873 77.358 769.935 77.017 768.742 77.017C767.515 77.017 766.424 77.3693 765.469 78.0739C764.515 78.767 763.725 79.7216 763.1 80.9375C762.475 82.1534 762.038 83.5341 761.788 85.0795C761.549 86.5795 761.532 87.9205 761.737 89.1023C761.941 90.2727 762.39 91.1989 763.083 91.8807C763.776 92.5511 764.719 92.8864 765.913 92.8864ZM807.64 79.2841L801.043 79.6932C801.009 79.1136 800.85 78.5966 800.566 78.142C800.293 77.6761 799.89 77.3068 799.356 77.0341C798.833 76.7614 798.174 76.625 797.379 76.625C796.185 76.625 795.123 76.8977 794.191 77.4432C793.259 77.9886 792.731 78.6875 792.606 79.5398C792.504 80.0852 792.646 80.5455 793.032 80.9205C793.418 81.2955 794.197 81.6136 795.367 81.875L799.969 82.8295C802.424 83.3523 804.197 84.2216 805.288 85.4375C806.39 86.6534 806.782 88.2443 806.464 90.2102C806.18 91.8807 805.447 93.3409 804.265 94.5909C803.083 95.8295 801.583 96.7955 799.765 97.4886C797.947 98.1705 795.93 98.5114 793.714 98.5114C790.157 98.5114 787.452 97.7841 785.6 96.3295C783.748 94.875 782.856 92.9034 782.924 90.4148L790.015 90.0398C790.072 91.108 790.447 91.9148 791.14 92.4602C791.833 92.9943 792.782 93.267 793.987 93.2784C795.339 93.3011 796.487 93.0227 797.43 92.4432C798.384 91.8523 798.924 91.1364 799.049 90.2955C799.14 89.7045 798.969 89.2273 798.538 88.8636C798.117 88.5 797.344 88.1989 796.219 87.9602L791.856 87.0568C789.379 86.5455 787.6 85.6307 786.521 84.3125C785.441 82.9943 785.072 81.3182 785.413 79.2841C785.685 77.6591 786.362 76.267 787.441 75.108C788.532 73.9375 789.935 73.0398 791.651 72.4148C793.379 71.7898 795.327 71.4773 797.498 71.4773C800.896 71.4773 803.452 72.1761 805.168 73.5739C806.896 74.9716 807.719 76.875 807.64 79.2841Z" fill="#1F2937"/>
<path d="M1220 160H60C48.9543 160 40 168.954 40 180V820C40 831.046 48.9543 840 60 840H1220C1231.05 840 1240 831.046 1240 820V180C1240 168.954 1231.05 160 1220 160Z" fill="white" stroke="#D1D5DB"/>
<path d="M62.1136 219V201.545H72.5795V203.42H64.2273V209.318H71.7955V211.193H64.2273V219H62.1136ZM80.2841 219.273C79.1023 219.273 78.0653 218.991 77.1733 218.429C76.2869 217.866 75.5938 217.08 75.0938 216.068C74.5994 215.057 74.3523 213.875 74.3523 212.523C74.3523 211.159 74.5994 209.969 75.0938 208.952C75.5938 207.935 76.2869 207.145 77.1733 206.582C78.0653 206.02 79.1023 205.739 80.2841 205.739C81.4659 205.739 82.5 206.02 83.3864 206.582C84.2784 207.145 84.9716 207.935 85.4659 208.952C85.9659 209.969 86.2159 211.159 86.2159 212.523C86.2159 213.875 85.9659 215.057 85.4659 216.068C84.9716 217.08 84.2784 217.866 83.3864 218.429C82.5 218.991 81.4659 219.273 80.2841 219.273ZM80.2841 217.466C81.1818 217.466 81.9205 217.236 82.5 216.776C83.0795 216.315 83.5085 215.71 83.7869 214.96C84.0653 214.21 84.2045 213.398 84.2045 212.523C84.2045 211.648 84.0653 210.832 83.7869 210.077C83.5085 209.321 83.0795 208.71 82.5 208.244C81.9205 207.778 81.1818 207.545 80.2841 207.545C79.3864 207.545 78.6477 207.778 78.0682 208.244C77.4886 208.71 77.0597 209.321 76.7812 210.077C76.5028 210.832 76.3636 211.648 76.3636 212.523C76.3636 213.398 76.5028 214.21 76.7812 214.96C77.0597 215.71 77.4886 216.315 78.0682 216.776C78.6477 217.236 79.3864 217.466 80.2841 217.466ZM89.2862 219V205.909H91.2294V207.886H91.3658C91.6044 207.239 92.0362 206.713 92.6612 206.31C93.2862 205.906 93.9908 205.705 94.7749 205.705C94.9226 205.705 95.1072 205.707 95.3288 205.713C95.5504 205.719 95.718 205.727 95.8317 205.739V207.784C95.7635 207.767 95.6072 207.741 95.3629 207.707C95.1243 207.668 94.8714 207.648 94.6044 207.648C93.968 207.648 93.3999 207.781 92.8999 208.048C92.4055 208.31 92.0135 208.673 91.7237 209.139C91.4396 209.599 91.2976 210.125 91.2976 210.716V219H89.2862ZM98.2159 219V205.909H100.159V207.955H100.33C100.602 207.256 101.043 206.713 101.651 206.327C102.259 205.935 102.989 205.739 103.841 205.739C104.705 205.739 105.423 205.935 105.997 206.327C106.577 206.713 107.028 207.256 107.352 207.955H107.489C107.824 207.278 108.327 206.741 108.997 206.344C109.668 205.94 110.472 205.739 111.409 205.739C112.58 205.739 113.537 206.105 114.281 206.838C115.026 207.565 115.398 208.699 115.398 210.239V219H113.386V210.239C113.386 209.273 113.122 208.582 112.594 208.168C112.065 207.753 111.443 207.545 110.727 207.545C109.807 207.545 109.094 207.824 108.588 208.381C108.082 208.932 107.83 209.631 107.83 210.477V219H105.784V210.034C105.784 209.29 105.543 208.69 105.06 208.236C104.577 207.776 103.955 207.545 103.193 207.545C102.67 207.545 102.182 207.685 101.727 207.963C101.278 208.241 100.915 208.628 100.636 209.122C100.364 209.611 100.227 210.176 100.227 210.818V219H98.2159ZM127.325 213.648V205.909H129.337V219H127.325V216.784H127.189C126.882 217.449 126.405 218.014 125.757 218.48C125.109 218.94 124.291 219.17 123.303 219.17C122.484 219.17 121.757 218.991 121.121 218.634C120.484 218.27 119.984 217.724 119.621 216.997C119.257 216.264 119.075 215.341 119.075 214.227V205.909H121.087V214.091C121.087 215.045 121.354 215.807 121.888 216.375C122.428 216.943 123.115 217.227 123.95 217.227C124.45 217.227 124.959 217.099 125.476 216.844C125.999 216.588 126.436 216.196 126.788 215.668C127.146 215.139 127.325 214.466 127.325 213.648ZM135.032 201.545V219H133.021V201.545H135.032ZM142.568 219.307C141.739 219.307 140.986 219.151 140.31 218.838C139.634 218.52 139.097 218.062 138.699 217.466C138.301 216.864 138.102 216.136 138.102 215.284C138.102 214.534 138.25 213.926 138.545 213.46C138.841 212.989 139.236 212.619 139.73 212.352C140.224 212.085 140.77 211.886 141.366 211.756C141.969 211.619 142.574 211.511 143.182 211.432C143.977 211.33 144.622 211.253 145.116 211.202C145.616 211.145 145.98 211.051 146.207 210.92C146.44 210.79 146.557 210.562 146.557 210.239V210.17C146.557 209.33 146.327 208.676 145.866 208.21C145.412 207.744 144.722 207.511 143.795 207.511C142.835 207.511 142.082 207.722 141.537 208.142C140.991 208.562 140.608 209.011 140.386 209.489L138.477 208.807C138.818 208.011 139.273 207.392 139.841 206.949C140.415 206.5 141.04 206.187 141.716 206.011C142.398 205.83 143.068 205.739 143.727 205.739C144.148 205.739 144.631 205.79 145.176 205.892C145.727 205.989 146.259 206.19 146.77 206.497C147.287 206.804 147.716 207.267 148.057 207.886C148.398 208.506 148.568 209.335 148.568 210.375V219H146.557V217.227H146.455C146.318 217.511 146.091 217.815 145.773 218.139C145.455 218.463 145.031 218.739 144.503 218.966C143.974 219.193 143.33 219.307 142.568 219.307ZM142.875 217.5C143.67 217.5 144.341 217.344 144.886 217.031C145.438 216.719 145.852 216.315 146.131 215.821C146.415 215.327 146.557 214.807 146.557 214.261V212.42C146.472 212.523 146.284 212.616 145.994 212.702C145.71 212.781 145.381 212.852 145.006 212.915C144.636 212.972 144.276 213.023 143.923 213.068C143.577 213.108 143.295 213.142 143.08 213.17C142.557 213.239 142.068 213.349 141.614 213.503C141.165 213.651 140.801 213.875 140.523 214.176C140.25 214.472 140.114 214.875 140.114 215.386C140.114 216.085 140.372 216.614 140.889 216.972C141.412 217.324 142.074 217.5 142.875 217.5ZM152.239 219V205.909H154.183V207.886H154.319C154.558 207.239 154.989 206.713 155.614 206.31C156.239 205.906 156.944 205.705 157.728 205.705C157.876 205.705 158.06 205.707 158.282 205.713C158.504 205.719 158.671 205.727 158.785 205.739V207.784C158.717 207.767 158.56 207.741 158.316 207.707C158.077 207.668 157.825 207.648 157.558 207.648C156.921 207.648 156.353 207.781 155.853 208.048C155.359 208.31 154.967 208.673 154.677 209.139C154.393 209.599 154.251 210.125 154.251 210.716V219H152.239ZM161.169 219V205.909H163.18V219H161.169ZM162.192 203.727C161.8 203.727 161.462 203.594 161.178 203.327C160.899 203.06 160.76 202.739 160.76 202.364C160.76 201.989 160.899 201.668 161.178 201.401C161.462 201.134 161.8 201 162.192 201C162.584 201 162.919 201.134 163.197 201.401C163.482 201.668 163.624 201.989 163.624 202.364C163.624 202.739 163.482 203.06 163.197 203.327C162.919 203.594 162.584 203.727 162.192 203.727ZM172.183 219.273C171.001 219.273 169.964 218.991 169.072 218.429C168.185 217.866 167.492 217.08 166.992 216.068C166.498 215.057 166.251 213.875 166.251 212.523C166.251 211.159 166.498 209.969 166.992 208.952C167.492 207.935 168.185 207.145 169.072 206.582C169.964 206.02 171.001 205.739 172.183 205.739C173.364 205.739 174.398 206.02 175.285 206.582C176.177 207.145 176.87 207.935 177.364 208.952C177.864 209.969 178.114 211.159 178.114 212.523C178.114 213.875 177.864 215.057 177.364 216.068C176.87 217.08 176.177 217.866 175.285 218.429C174.398 218.991 173.364 219.273 172.183 219.273ZM172.183 217.466C173.08 217.466 173.819 217.236 174.398 216.776C174.978 216.315 175.407 215.71 175.685 214.96C175.964 214.21 176.103 213.398 176.103 212.523C176.103 211.648 175.964 210.832 175.685 210.077C175.407 209.321 174.978 208.71 174.398 208.244C173.819 207.778 173.08 207.545 172.183 207.545C171.285 207.545 170.546 207.778 169.967 208.244C169.387 208.71 168.958 209.321 168.68 210.077C168.401 210.832 168.262 211.648 168.262 212.523C168.262 213.398 168.401 214.21 168.68 214.96C168.958 215.71 169.387 216.315 169.967 216.776C170.546 217.236 171.285 217.466 172.183 217.466ZM192.878 219.273C191.787 219.273 190.824 218.997 189.989 218.446C189.153 217.889 188.5 217.105 188.028 216.094C187.557 215.077 187.321 213.875 187.321 212.489C187.321 211.114 187.557 209.92 188.028 208.909C188.5 207.898 189.156 207.116 189.997 206.565C190.838 206.014 191.81 205.739 192.912 205.739C193.764 205.739 194.438 205.881 194.932 206.165C195.432 206.443 195.813 206.761 196.074 207.119C196.341 207.472 196.548 207.761 196.696 207.989H196.866V201.545H198.878V219H196.935V216.989H196.696C196.548 217.227 196.338 217.528 196.065 217.892C195.793 218.25 195.403 218.571 194.898 218.855C194.392 219.134 193.719 219.273 192.878 219.273ZM193.151 217.466C193.957 217.466 194.639 217.256 195.196 216.835C195.753 216.409 196.176 215.821 196.466 215.071C196.756 214.315 196.901 213.443 196.901 212.455C196.901 211.477 196.759 210.622 196.474 209.889C196.19 209.151 195.77 208.577 195.213 208.168C194.656 207.753 193.969 207.545 193.151 207.545C192.298 207.545 191.588 207.764 191.02 208.202C190.457 208.634 190.034 209.222 189.75 209.966C189.472 210.705 189.332 211.534 189.332 212.455C189.332 213.386 189.474 214.233 189.759 214.994C190.048 215.75 190.474 216.352 191.037 216.801C191.605 217.244 192.31 217.466 193.151 217.466ZM208.33 219.273C207.068 219.273 205.98 218.994 205.065 218.438C204.156 217.875 203.455 217.091 202.96 216.085C202.472 215.074 202.227 213.898 202.227 212.557C202.227 211.216 202.472 210.034 202.96 209.011C203.455 207.983 204.142 207.182 205.023 206.608C205.909 206.028 206.943 205.739 208.125 205.739C208.807 205.739 209.48 205.852 210.145 206.08C210.81 206.307 211.415 206.676 211.96 207.188C212.506 207.693 212.94 208.364 213.264 209.199C213.588 210.034 213.75 211.062 213.75 212.284V213.136H203.659V211.398H211.705C211.705 210.659 211.557 210 211.261 209.42C210.972 208.841 210.557 208.384 210.017 208.048C209.483 207.713 208.852 207.545 208.125 207.545C207.324 207.545 206.631 207.744 206.045 208.142C205.466 208.534 205.02 209.045 204.707 209.676C204.395 210.307 204.239 210.983 204.239 211.705V212.864C204.239 213.852 204.409 214.69 204.75 215.378C205.097 216.06 205.577 216.58 206.19 216.938C206.804 217.29 207.517 217.466 208.33 217.466C208.858 217.466 209.335 217.392 209.761 217.244C210.193 217.091 210.565 216.864 210.878 216.562C211.19 216.256 211.432 215.875 211.602 215.42L213.545 215.966C213.341 216.625 212.997 217.205 212.514 217.705C212.031 218.199 211.435 218.585 210.724 218.864C210.014 219.136 209.216 219.273 208.33 219.273ZM228.878 219.273C227.651 219.273 226.594 218.983 225.707 218.403C224.821 217.824 224.139 217.026 223.662 216.009C223.185 214.991 222.946 213.83 222.946 212.523C222.946 211.193 223.19 210.02 223.679 209.003C224.173 207.98 224.861 207.182 225.741 206.608C226.628 206.028 227.662 205.739 228.844 205.739C229.764 205.739 230.594 205.909 231.332 206.25C232.071 206.591 232.676 207.068 233.148 207.682C233.619 208.295 233.912 209.011 234.026 209.83H232.014C231.861 209.233 231.52 208.705 230.991 208.244C230.469 207.778 229.764 207.545 228.878 207.545C228.094 207.545 227.406 207.75 226.815 208.159C226.23 208.562 225.773 209.134 225.443 209.872C225.119 210.605 224.957 211.466 224.957 212.455C224.957 213.466 225.116 214.347 225.435 215.097C225.759 215.847 226.213 216.429 226.798 216.844C227.389 217.259 228.082 217.466 228.878 217.466C229.401 217.466 229.875 217.375 230.301 217.193C230.727 217.011 231.088 216.75 231.384 216.409C231.679 216.068 231.889 215.659 232.014 215.182H234.026C233.912 215.955 233.631 216.651 233.182 217.27C232.739 217.884 232.151 218.372 231.418 218.736C230.69 219.094 229.844 219.273 228.878 219.273ZM242.284 219.273C241.102 219.273 240.065 218.991 239.173 218.429C238.287 217.866 237.594 217.08 237.094 216.068C236.599 215.057 236.352 213.875 236.352 212.523C236.352 211.159 236.599 209.969 237.094 208.952C237.594 207.935 238.287 207.145 239.173 206.582C240.065 206.02 241.102 205.739 242.284 205.739C243.466 205.739 244.5 206.02 245.386 206.582C246.278 207.145 246.972 207.935 247.466 208.952C247.966 209.969 248.216 211.159 248.216 212.523C248.216 213.875 247.966 215.057 247.466 216.068C246.972 217.08 246.278 217.866 245.386 218.429C244.5 218.991 243.466 219.273 242.284 219.273ZM242.284 217.466C243.182 217.466 243.92 217.236 244.5 216.776C245.08 216.315 245.509 215.71 245.787 214.96C246.065 214.21 246.205 213.398 246.205 212.523C246.205 211.648 246.065 210.832 245.787 210.077C245.509 209.321 245.08 208.71 244.5 208.244C243.92 207.778 243.182 207.545 242.284 207.545C241.386 207.545 240.648 207.778 240.068 208.244C239.489 208.71 239.06 209.321 238.781 210.077C238.503 210.832 238.364 211.648 238.364 212.523C238.364 213.398 238.503 214.21 238.781 214.96C239.06 215.71 239.489 216.315 240.068 216.776C240.648 217.236 241.386 217.466 242.284 217.466ZM253.298 211.125V219H251.286V205.909H253.229V207.955H253.4C253.707 207.29 254.173 206.756 254.798 206.352C255.423 205.943 256.229 205.739 257.218 205.739C258.104 205.739 258.88 205.92 259.545 206.284C260.21 206.642 260.727 207.188 261.096 207.92C261.465 208.648 261.65 209.568 261.65 210.682V219H259.638V210.818C259.638 209.79 259.371 208.989 258.837 208.415C258.303 207.835 257.57 207.545 256.638 207.545C255.996 207.545 255.423 207.685 254.917 207.963C254.417 208.241 254.022 208.648 253.732 209.182C253.442 209.716 253.298 210.364 253.298 211.125ZM271.018 205.909V207.614H264.234V205.909H271.018ZM266.212 202.773H268.223V215.25C268.223 215.818 268.305 216.244 268.47 216.528C268.641 216.807 268.857 216.994 269.118 217.091C269.385 217.182 269.666 217.227 269.962 217.227C270.183 217.227 270.365 217.216 270.507 217.193C270.649 217.165 270.763 217.142 270.848 217.125L271.257 218.932C271.121 218.983 270.93 219.034 270.686 219.085C270.442 219.142 270.132 219.17 269.757 219.17C269.189 219.17 268.632 219.048 268.087 218.804C267.547 218.56 267.098 218.188 266.74 217.688C266.388 217.188 266.212 216.557 266.212 215.795V202.773ZM277.896 219.307C277.067 219.307 276.314 219.151 275.638 218.838C274.962 218.52 274.425 218.062 274.027 217.466C273.629 216.864 273.43 216.136 273.43 215.284C273.43 214.534 273.578 213.926 273.874 213.46C274.169 212.989 274.564 212.619 275.058 212.352C275.553 212.085 276.098 211.886 276.695 211.756C277.297 211.619 277.902 211.511 278.51 211.432C279.305 211.33 279.95 211.253 280.445 211.202C280.945 211.145 281.308 211.051 281.536 210.92C281.768 210.79 281.885 210.562 281.885 210.239V210.17C281.885 209.33 281.655 208.676 281.195 208.21C280.74 207.744 280.05 207.511 279.124 207.511C278.163 207.511 277.411 207.722 276.865 208.142C276.32 208.562 275.936 209.011 275.714 209.489L273.805 208.807C274.146 208.011 274.601 207.392 275.169 206.949C275.743 206.5 276.368 206.187 277.044 206.011C277.726 205.83 278.396 205.739 279.055 205.739C279.476 205.739 279.959 205.79 280.504 205.892C281.055 205.989 281.587 206.19 282.098 206.497C282.615 206.804 283.044 207.267 283.385 207.886C283.726 208.506 283.896 209.335 283.896 210.375V219H281.885V217.227H281.783C281.646 217.511 281.419 217.815 281.101 218.139C280.783 218.463 280.359 218.739 279.831 218.966C279.303 219.193 278.658 219.307 277.896 219.307ZM278.203 217.5C278.999 217.5 279.669 217.344 280.214 217.031C280.766 216.719 281.18 216.315 281.459 215.821C281.743 215.327 281.885 214.807 281.885 214.261V212.42C281.8 212.523 281.612 212.616 281.322 212.702C281.038 212.781 280.709 212.852 280.334 212.915C279.964 212.972 279.604 213.023 279.251 213.068C278.905 213.108 278.624 213.142 278.408 213.17C277.885 213.239 277.396 213.349 276.942 213.503C276.493 213.651 276.129 213.875 275.851 214.176C275.578 214.472 275.442 214.875 275.442 215.386C275.442 216.085 275.7 216.614 276.217 216.972C276.74 217.324 277.402 217.5 278.203 217.5ZM292.886 219.273C291.658 219.273 290.602 218.983 289.715 218.403C288.829 217.824 288.147 217.026 287.67 216.009C287.192 214.991 286.954 213.83 286.954 212.523C286.954 211.193 287.198 210.02 287.687 209.003C288.181 207.98 288.869 207.182 289.749 206.608C290.636 206.028 291.67 205.739 292.852 205.739C293.772 205.739 294.602 205.909 295.34 206.25C296.079 206.591 296.684 207.068 297.156 207.682C297.627 208.295 297.92 209.011 298.033 209.83H296.022C295.869 209.233 295.528 208.705 294.999 208.244C294.477 207.778 293.772 207.545 292.886 207.545C292.102 207.545 291.414 207.75 290.823 208.159C290.238 208.562 289.781 209.134 289.451 209.872C289.127 210.605 288.965 211.466 288.965 212.455C288.965 213.466 289.124 214.347 289.442 215.097C289.766 215.847 290.221 216.429 290.806 216.844C291.397 217.259 292.09 217.466 292.886 217.466C293.408 217.466 293.883 217.375 294.309 217.193C294.735 217.011 295.096 216.75 295.391 216.409C295.687 216.068 295.897 215.659 296.022 215.182H298.033C297.92 215.955 297.638 216.651 297.19 217.27C296.746 217.884 296.158 218.372 295.425 218.736C294.698 219.094 293.852 219.273 292.886 219.273ZM306.667 205.909V207.614H299.883V205.909H306.667ZM301.86 202.773H303.871V215.25C303.871 215.818 303.954 216.244 304.119 216.528C304.289 216.807 304.505 216.994 304.766 217.091C305.033 217.182 305.315 217.227 305.61 217.227C305.832 217.227 306.013 217.216 306.156 217.193C306.298 217.165 306.411 217.142 306.496 217.125L306.906 218.932C306.769 218.983 306.579 219.034 306.335 219.085C306.09 219.142 305.781 219.17 305.406 219.17C304.837 219.17 304.281 219.048 303.735 218.804C303.195 218.56 302.746 218.188 302.388 217.688C302.036 217.188 301.86 216.557 301.86 215.795V202.773ZM314.87 219.273C313.688 219.273 312.651 218.991 311.759 218.429C310.873 217.866 310.18 217.08 309.68 216.068C309.185 215.057 308.938 213.875 308.938 212.523C308.938 211.159 309.185 209.969 309.68 208.952C310.18 207.935 310.873 207.145 311.759 206.582C312.651 206.02 313.688 205.739 314.87 205.739C316.052 205.739 317.086 206.02 317.972 206.582C318.864 207.145 319.558 207.935 320.052 208.952C320.552 209.969 320.802 211.159 320.802 212.523C320.802 213.875 320.552 215.057 320.052 216.068C319.558 217.08 318.864 217.866 317.972 218.429C317.086 218.991 316.052 219.273 314.87 219.273ZM314.87 217.466C315.768 217.466 316.506 217.236 317.086 216.776C317.665 216.315 318.094 215.71 318.373 214.96C318.651 214.21 318.79 213.398 318.79 212.523C318.79 211.648 318.651 210.832 318.373 210.077C318.094 209.321 317.665 208.71 317.086 208.244C316.506 207.778 315.768 207.545 314.87 207.545C313.972 207.545 313.234 207.778 312.654 208.244C312.075 208.71 311.646 209.321 311.367 210.077C311.089 210.832 310.95 211.648 310.95 212.523C310.95 213.398 311.089 214.21 311.367 214.96C311.646 215.71 312.075 216.315 312.654 216.776C313.234 217.236 313.972 217.466 314.87 217.466ZM336.111 219.273C334.849 219.273 333.761 218.994 332.847 218.438C331.938 217.875 331.236 217.091 330.741 216.085C330.253 215.074 330.009 213.898 330.009 212.557C330.009 211.216 330.253 210.034 330.741 209.011C331.236 207.983 331.923 207.182 332.804 206.608C333.69 206.028 334.724 205.739 335.906 205.739C336.588 205.739 337.261 205.852 337.926 206.08C338.591 206.307 339.196 206.676 339.741 207.188C340.287 207.693 340.722 208.364 341.045 209.199C341.369 210.034 341.531 211.062 341.531 212.284V213.136H331.44V211.398H339.486C339.486 210.659 339.338 210 339.043 209.42C338.753 208.841 338.338 208.384 337.798 208.048C337.264 207.713 336.634 207.545 335.906 207.545C335.105 207.545 334.412 207.744 333.827 208.142C333.247 208.534 332.801 209.045 332.489 209.676C332.176 210.307 332.02 210.983 332.02 211.705V212.864C332.02 213.852 332.19 214.69 332.531 215.378C332.878 216.06 333.358 216.58 333.972 216.938C334.585 217.29 335.298 217.466 336.111 217.466C336.639 217.466 337.116 217.392 337.543 217.244C337.974 217.091 338.347 216.864 338.659 216.562C338.972 216.256 339.213 215.875 339.384 215.42L341.327 215.966C341.122 216.625 340.778 217.205 340.295 217.705C339.813 218.199 339.216 218.585 338.506 218.864C337.795 219.136 336.997 219.273 336.111 219.273ZM351.341 219V205.909H353.352V219H351.341ZM352.364 203.727C351.972 203.727 351.634 203.594 351.349 203.327C351.071 203.06 350.932 202.739 350.932 202.364C350.932 201.989 351.071 201.668 351.349 201.401C351.634 201.134 351.972 201 352.364 201C352.756 201 353.091 201.134 353.369 201.401C353.653 201.668 353.795 201.989 353.795 202.364C353.795 202.739 353.653 203.06 353.369 203.327C353.091 203.594 352.756 203.727 352.364 203.727ZM359.048 211.125V219H357.036V205.909H358.979V207.955H359.15C359.457 207.29 359.923 206.756 360.548 206.352C361.173 205.943 361.979 205.739 362.968 205.739C363.854 205.739 364.63 205.92 365.295 206.284C365.96 206.642 366.477 207.188 366.846 207.92C367.215 208.648 367.4 209.568 367.4 210.682V219H365.388V210.818C365.388 209.79 365.121 208.989 364.587 208.415C364.053 207.835 363.32 207.545 362.388 207.545C361.746 207.545 361.173 207.685 360.667 207.963C360.167 208.241 359.772 208.648 359.482 209.182C359.192 209.716 359.048 210.364 359.048 211.125ZM380.348 208.841L378.541 209.352C378.428 209.051 378.26 208.759 378.038 208.474C377.822 208.185 377.527 207.946 377.152 207.759C376.777 207.571 376.297 207.477 375.712 207.477C374.911 207.477 374.243 207.662 373.709 208.031C373.18 208.395 372.916 208.858 372.916 209.42C372.916 209.92 373.098 210.315 373.462 210.605C373.825 210.895 374.393 211.136 375.166 211.33L377.109 211.807C378.28 212.091 379.152 212.526 379.726 213.111C380.3 213.69 380.587 214.437 380.587 215.352C380.587 216.102 380.371 216.773 379.939 217.364C379.513 217.955 378.916 218.42 378.149 218.761C377.382 219.102 376.49 219.273 375.473 219.273C374.138 219.273 373.033 218.983 372.158 218.403C371.283 217.824 370.729 216.977 370.496 215.864L372.405 215.386C372.587 216.091 372.93 216.619 373.436 216.972C373.947 217.324 374.615 217.5 375.439 217.5C376.376 217.5 377.121 217.301 377.672 216.903C378.229 216.5 378.507 216.017 378.507 215.455C378.507 215 378.348 214.619 378.03 214.312C377.712 214 377.223 213.767 376.564 213.614L374.382 213.102C373.183 212.818 372.303 212.378 371.74 211.781C371.183 211.179 370.905 210.426 370.905 209.523C370.905 208.784 371.112 208.131 371.527 207.562C371.947 206.994 372.518 206.548 373.24 206.224C373.967 205.901 374.791 205.739 375.712 205.739C377.007 205.739 378.024 206.023 378.763 206.591C379.507 207.159 380.036 207.909 380.348 208.841ZM388.933 219.273C387.705 219.273 386.648 218.983 385.762 218.403C384.876 217.824 384.194 217.026 383.717 216.009C383.239 214.991 383.001 213.83 383.001 212.523C383.001 211.193 383.245 210.02 383.734 209.003C384.228 207.98 384.915 207.182 385.796 206.608C386.683 206.028 387.717 205.739 388.898 205.739C389.819 205.739 390.648 205.909 391.387 206.25C392.126 206.591 392.731 207.068 393.202 207.682C393.674 208.295 393.967 209.011 394.08 209.83H392.069C391.915 209.233 391.575 208.705 391.046 208.244C390.523 207.778 389.819 207.545 388.933 207.545C388.148 207.545 387.461 207.75 386.87 208.159C386.285 208.562 385.827 209.134 385.498 209.872C385.174 210.605 385.012 211.466 385.012 212.455C385.012 213.466 385.171 214.347 385.489 215.097C385.813 215.847 386.268 216.429 386.853 216.844C387.444 217.259 388.137 217.466 388.933 217.466C389.455 217.466 389.93 217.375 390.356 217.193C390.782 217.011 391.143 216.75 391.438 216.409C391.734 216.068 391.944 215.659 392.069 215.182H394.08C393.967 215.955 393.685 216.651 393.237 217.27C392.793 217.884 392.205 218.372 391.472 218.736C390.745 219.094 389.898 219.273 388.933 219.273ZM397.021 219V205.909H398.964V207.886H399.1C399.339 207.239 399.771 206.713 400.396 206.31C401.021 205.906 401.725 205.705 402.509 205.705C402.657 205.705 402.842 205.707 403.063 205.713C403.285 205.719 403.452 205.727 403.566 205.739V207.784C403.498 207.767 403.342 207.741 403.097 207.707C402.859 207.668 402.606 207.648 402.339 207.648C401.702 207.648 401.134 207.781 400.634 208.048C400.14 208.31 399.748 208.673 399.458 209.139C399.174 209.599 399.032 210.125 399.032 210.716V219H397.021ZM405.95 219V205.909H407.962V219H405.95ZM406.973 203.727C406.581 203.727 406.243 203.594 405.959 203.327C405.68 203.06 405.541 202.739 405.541 202.364C405.541 201.989 405.68 201.668 405.959 201.401C406.243 201.134 406.581 201 406.973 201C407.365 201 407.7 201.134 407.979 201.401C408.263 201.668 408.405 201.989 408.405 202.364C408.405 202.739 408.263 203.06 407.979 203.327C407.7 203.594 407.365 203.727 406.973 203.727ZM411.646 223.909V205.909H413.589V207.989H413.827C413.975 207.761 414.18 207.472 414.441 207.119C414.708 206.761 415.089 206.443 415.583 206.165C416.083 205.881 416.759 205.739 417.612 205.739C418.714 205.739 419.685 206.014 420.526 206.565C421.367 207.116 422.023 207.898 422.495 208.909C422.967 209.92 423.202 211.114 423.202 212.489C423.202 213.875 422.967 215.077 422.495 216.094C422.023 217.105 421.37 217.889 420.535 218.446C419.7 218.997 418.737 219.273 417.646 219.273C416.805 219.273 416.131 219.134 415.626 218.855C415.12 218.571 414.731 218.25 414.458 217.892C414.185 217.528 413.975 217.227 413.827 216.989H413.657V223.909H411.646ZM413.623 212.455C413.623 213.443 413.768 214.315 414.058 215.071C414.347 215.821 414.771 216.409 415.327 216.835C415.884 217.256 416.566 217.466 417.373 217.466C418.214 217.466 418.915 217.244 419.478 216.801C420.046 216.352 420.472 215.75 420.756 214.994C421.046 214.233 421.191 213.386 421.191 212.455C421.191 211.534 421.049 210.705 420.765 209.966C420.487 209.222 420.063 208.634 419.495 208.202C418.933 207.764 418.225 207.545 417.373 207.545C416.555 207.545 415.867 207.753 415.31 208.168C414.754 208.577 414.333 209.151 414.049 209.889C413.765 210.622 413.623 211.477 413.623 212.455ZM431.589 219.273C430.362 219.273 429.305 218.983 428.418 218.403C427.532 217.824 426.85 217.026 426.373 216.009C425.896 214.991 425.657 213.83 425.657 212.523C425.657 211.193 425.901 210.02 426.39 209.003C426.884 207.98 427.572 207.182 428.452 206.608C429.339 206.028 430.373 205.739 431.555 205.739C432.475 205.739 433.305 205.909 434.043 206.25C434.782 206.591 435.387 207.068 435.859 207.682C436.33 208.295 436.623 209.011 436.737 209.83H434.725C434.572 209.233 434.231 208.705 433.702 208.244C433.18 207.778 432.475 207.545 431.589 207.545C430.805 207.545 430.117 207.75 429.526 208.159C428.941 208.562 428.484 209.134 428.154 209.872C427.83 210.605 427.668 211.466 427.668 212.455C427.668 213.466 427.827 214.347 428.146 215.097C428.469 215.847 428.924 216.429 429.509 216.844C430.1 217.259 430.793 217.466 431.589 217.466C432.112 217.466 432.586 217.375 433.012 217.193C433.438 217.011 433.799 216.75 434.094 216.409C434.39 216.068 434.6 215.659 434.725 215.182H436.737C436.623 215.955 436.342 216.651 435.893 217.27C435.45 217.884 434.862 218.372 434.129 218.736C433.401 219.094 432.555 219.273 431.589 219.273ZM439.677 219V205.909H441.688V219H439.677ZM440.7 203.727C440.308 203.727 439.969 203.594 439.685 203.327C439.407 203.06 439.268 202.739 439.268 202.364C439.268 201.989 439.407 201.668 439.685 201.401C439.969 201.134 440.308 201 440.7 201C441.092 201 441.427 201.134 441.705 201.401C441.989 201.668 442.131 201.989 442.131 202.364C442.131 202.739 441.989 203.06 441.705 203.327C441.427 203.594 441.092 203.727 440.7 203.727ZM450.69 219.273C449.509 219.273 448.472 218.991 447.58 218.429C446.693 217.866 446 217.08 445.5 216.068C445.006 215.057 444.759 213.875 444.759 212.523C444.759 211.159 445.006 209.969 445.5 208.952C446 207.935 446.693 207.145 447.58 206.582C448.472 206.02 449.509 205.739 450.69 205.739C451.872 205.739 452.906 206.02 453.793 206.582C454.685 207.145 455.378 207.935 455.872 208.952C456.372 209.969 456.622 211.159 456.622 212.523C456.622 213.875 456.372 215.057 455.872 216.068C455.378 217.08 454.685 217.866 453.793 218.429C452.906 218.991 451.872 219.273 450.69 219.273ZM450.69 217.466C451.588 217.466 452.327 217.236 452.906 216.776C453.486 216.315 453.915 215.71 454.193 214.96C454.472 214.21 454.611 213.398 454.611 212.523C454.611 211.648 454.472 210.832 454.193 210.077C453.915 209.321 453.486 208.71 452.906 208.244C452.327 207.778 451.588 207.545 450.69 207.545C449.793 207.545 449.054 207.778 448.474 208.244C447.895 208.71 447.466 209.321 447.188 210.077C446.909 210.832 446.77 211.648 446.77 212.523C446.77 213.398 446.909 214.21 447.188 214.96C447.466 215.71 447.895 216.315 448.474 216.776C449.054 217.236 449.793 217.466 450.69 217.466ZM449.77 204.136L451.849 200.182H454.202L451.543 204.136H449.77ZM461.704 211.125V219H459.692V205.909H461.636V207.955H461.806C462.113 207.29 462.579 206.756 463.204 206.352C463.829 205.943 464.636 205.739 465.624 205.739C466.511 205.739 467.286 205.92 467.951 206.284C468.616 206.642 469.133 207.188 469.502 207.92C469.871 208.648 470.056 209.568 470.056 210.682V219H468.045V210.818C468.045 209.79 467.778 208.989 467.244 208.415C466.71 207.835 465.977 207.545 465.045 207.545C464.403 207.545 463.829 207.685 463.323 207.963C462.823 208.241 462.428 208.648 462.138 209.182C461.849 209.716 461.704 210.364 461.704 211.125Z" fill="#4B5563"/>
<path d="M572 260H68C63.5817 260 60 263.582 60 268V312C60 316.418 63.5817 320 68 320H572C576.418 320 580 316.418 580 312V268C580 263.582 576.418 260 572 260Z" fill="#E5E7EB"/>
<path d="M81.9659 286.909V300H80.4318L73.2983 289.722H73.1705V300H71.5852V286.909H73.1193L80.2784 297.213H80.4062V286.909H81.9659ZM88.9221 300.205C88.0357 300.205 87.258 299.994 86.589 299.572C85.9242 299.15 85.4043 298.56 85.0293 297.801C84.6586 297.043 84.4732 296.156 84.4732 295.142C84.4732 294.119 84.6586 293.227 85.0293 292.464C85.4043 291.701 85.9242 291.109 86.589 290.687C87.258 290.265 88.0357 290.054 88.9221 290.054C89.8084 290.054 90.584 290.265 91.2488 290.687C91.9178 291.109 92.4377 291.701 92.8084 292.464C93.1834 293.227 93.3709 294.119 93.3709 295.142C93.3709 296.156 93.1834 297.043 92.8084 297.801C92.4377 298.56 91.9178 299.15 91.2488 299.572C90.584 299.994 89.8084 300.205 88.9221 300.205ZM88.9221 298.849C89.5953 298.849 90.1493 298.677 90.584 298.332C91.0186 297.987 91.3404 297.533 91.5492 296.97C91.758 296.408 91.8624 295.798 91.8624 295.142C91.8624 294.486 91.758 293.874 91.5492 293.308C91.3404 292.741 91.0186 292.283 90.584 291.933C90.1493 291.584 89.5953 291.409 88.9221 291.409C88.2488 291.409 87.6948 291.584 87.2601 291.933C86.8255 292.283 86.5037 292.741 86.2949 293.308C86.0861 293.874 85.9817 294.486 85.9817 295.142C85.9817 295.798 86.0861 296.408 86.2949 296.97C86.5037 297.533 86.8255 297.987 87.2601 298.332C87.6948 298.677 88.2488 298.849 88.9221 298.849ZM95.6737 300V290.182H97.131V291.716H97.2589C97.4634 291.192 97.7937 290.785 98.2496 290.495C98.7056 290.201 99.2532 290.054 99.8924 290.054C100.54 290.054 101.079 290.201 101.51 290.495C101.944 290.785 102.283 291.192 102.526 291.716H102.628C102.88 291.209 103.257 290.806 103.76 290.508C104.262 290.205 104.865 290.054 105.569 290.054C106.446 290.054 107.164 290.329 107.723 290.879C108.281 291.424 108.56 292.274 108.56 293.429V300H107.051V293.429C107.051 292.705 106.853 292.187 106.457 291.876C106.061 291.565 105.594 291.409 105.057 291.409C104.367 291.409 103.832 291.618 103.453 292.036C103.074 292.449 102.884 292.973 102.884 293.608V300H101.35V293.276C101.35 292.717 101.169 292.268 100.806 291.927C100.444 291.582 99.9776 291.409 99.4066 291.409C99.0146 291.409 98.6481 291.513 98.3072 291.722C97.9705 291.931 97.6978 292.221 97.489 292.592C97.2844 292.958 97.1822 293.382 97.1822 293.864V300H95.6737ZM111.523 300V286.909H113.031V291.741H113.159C113.27 291.571 113.423 291.354 113.619 291.089C113.82 290.821 114.105 290.582 114.476 290.374C114.851 290.161 115.358 290.054 115.997 290.054C116.824 290.054 117.553 290.261 118.183 290.674C118.814 291.087 119.306 291.673 119.66 292.432C120.013 293.19 120.19 294.085 120.19 295.116C120.19 296.156 120.013 297.058 119.66 297.82C119.306 298.579 118.816 299.167 118.19 299.585C117.563 299.998 116.841 300.205 116.023 300.205C115.392 300.205 114.887 300.1 114.508 299.891C114.129 299.678 113.837 299.437 113.632 299.169C113.428 298.896 113.27 298.67 113.159 298.491H112.98V300H111.523ZM113.006 295.091C113.006 295.832 113.114 296.487 113.332 297.053C113.549 297.616 113.866 298.057 114.284 298.376C114.702 298.692 115.213 298.849 115.818 298.849C116.449 298.849 116.975 298.683 117.397 298.351C117.823 298.014 118.143 297.562 118.356 296.996C118.573 296.425 118.682 295.79 118.682 295.091C118.682 294.401 118.575 293.778 118.362 293.224C118.153 292.666 117.836 292.225 117.41 291.901C116.988 291.573 116.457 291.409 115.818 291.409C115.205 291.409 114.689 291.565 114.271 291.876C113.854 292.183 113.538 292.613 113.325 293.167C113.112 293.717 113.006 294.358 113.006 295.091ZM122.498 300V290.182H123.955V291.665H124.058C124.237 291.179 124.56 290.785 125.029 290.482C125.498 290.18 126.026 290.028 126.614 290.028C126.725 290.028 126.864 290.031 127.03 290.035C127.196 290.039 127.322 290.045 127.407 290.054V291.588C127.356 291.575 127.239 291.556 127.055 291.531C126.876 291.501 126.687 291.486 126.487 291.486C126.009 291.486 125.583 291.586 125.208 291.786C124.837 291.982 124.543 292.255 124.326 292.604C124.113 292.95 124.006 293.344 124.006 293.787V300H122.498ZM133.013 300.205C132.067 300.205 131.251 299.996 130.565 299.578C129.883 299.156 129.357 298.568 128.986 297.814C128.619 297.055 128.436 296.173 128.436 295.168C128.436 294.162 128.619 293.276 128.986 292.509C129.357 291.737 129.872 291.136 130.533 290.706C131.197 290.271 131.973 290.054 132.859 290.054C133.371 290.054 133.876 290.139 134.374 290.31C134.873 290.48 135.327 290.757 135.736 291.141C136.145 291.52 136.471 292.023 136.714 292.649C136.957 293.276 137.078 294.047 137.078 294.963V295.602H129.51V294.298H135.544C135.544 293.744 135.433 293.25 135.212 292.815C134.994 292.381 134.683 292.038 134.278 291.786C133.878 291.535 133.405 291.409 132.859 291.409C132.259 291.409 131.739 291.558 131.3 291.857C130.865 292.151 130.531 292.534 130.296 293.007C130.062 293.48 129.945 293.987 129.945 294.528V295.398C129.945 296.139 130.072 296.768 130.328 297.283C130.588 297.795 130.948 298.185 131.408 298.453C131.869 298.717 132.403 298.849 133.013 298.849C133.409 298.849 133.767 298.794 134.087 298.683C134.411 298.568 134.69 298.398 134.924 298.172C135.158 297.942 135.339 297.656 135.467 297.315L136.925 297.724C136.771 298.219 136.513 298.653 136.151 299.028C135.789 299.399 135.342 299.689 134.809 299.898C134.276 300.102 133.678 300.205 133.013 300.205ZM148.424 300.205C147.504 300.205 146.711 299.987 146.046 299.553C145.381 299.118 144.87 298.519 144.512 297.756C144.154 296.994 143.975 296.122 143.975 295.142C143.975 294.145 144.158 293.265 144.525 292.502C144.896 291.735 145.411 291.136 146.072 290.706C146.737 290.271 147.512 290.054 148.398 290.054C149.089 290.054 149.711 290.182 150.265 290.438C150.819 290.693 151.273 291.051 151.626 291.511C151.98 291.972 152.2 292.509 152.285 293.122H150.776C150.661 292.675 150.406 292.278 150.009 291.933C149.617 291.584 149.089 291.409 148.424 291.409C147.836 291.409 147.32 291.562 146.877 291.869C146.438 292.172 146.095 292.6 145.848 293.154C145.605 293.704 145.484 294.349 145.484 295.091C145.484 295.849 145.603 296.51 145.842 297.072C146.085 297.635 146.425 298.072 146.864 298.383C147.308 298.694 147.827 298.849 148.424 298.849C148.816 298.849 149.172 298.781 149.491 298.645C149.811 298.509 150.082 298.312 150.303 298.057C150.525 297.801 150.683 297.494 150.776 297.136H152.285C152.2 297.716 151.989 298.238 151.652 298.702C151.32 299.163 150.879 299.529 150.329 299.802C149.783 300.07 149.148 300.205 148.424 300.205ZM158.479 300.205C157.592 300.205 156.815 299.994 156.146 299.572C155.481 299.15 154.961 298.56 154.586 297.801C154.215 297.043 154.03 296.156 154.03 295.142C154.03 294.119 154.215 293.227 154.586 292.464C154.961 291.701 155.481 291.109 156.146 290.687C156.815 290.265 157.592 290.054 158.479 290.054C159.365 290.054 160.141 290.265 160.805 290.687C161.474 291.109 161.994 291.701 162.365 292.464C162.74 293.227 162.928 294.119 162.928 295.142C162.928 296.156 162.74 297.043 162.365 297.801C161.994 298.56 161.474 299.15 160.805 299.572C160.141 299.994 159.365 300.205 158.479 300.205ZM158.479 298.849C159.152 298.849 159.706 298.677 160.141 298.332C160.575 297.987 160.897 297.533 161.106 296.97C161.315 296.408 161.419 295.798 161.419 295.142C161.419 294.486 161.315 293.874 161.106 293.308C160.897 292.741 160.575 292.283 160.141 291.933C159.706 291.584 159.152 291.409 158.479 291.409C157.805 291.409 157.251 291.584 156.817 291.933C156.382 292.283 156.06 292.741 155.852 293.308C155.643 293.874 155.538 294.486 155.538 295.142C155.538 295.798 155.643 296.408 155.852 296.97C156.06 297.533 156.382 297.987 156.817 298.332C157.251 298.677 157.805 298.849 158.479 298.849ZM165.23 300V290.182H166.688V291.716H166.816C167.02 291.192 167.35 290.785 167.806 290.495C168.262 290.201 168.81 290.054 169.449 290.054C170.097 290.054 170.636 290.201 171.066 290.495C171.501 290.785 171.84 291.192 172.083 291.716H172.185C172.436 291.209 172.813 290.806 173.316 290.508C173.819 290.205 174.422 290.054 175.125 290.054C176.003 290.054 176.721 290.329 177.279 290.879C177.838 291.424 178.117 292.274 178.117 293.429V300H176.608V293.429C176.608 292.705 176.41 292.187 176.014 291.876C175.617 291.565 175.151 291.409 174.614 291.409C173.923 291.409 173.389 291.618 173.009 292.036C172.63 292.449 172.441 292.973 172.441 293.608V300H170.906V293.276C170.906 292.717 170.725 292.268 170.363 291.927C170.001 291.582 169.534 291.409 168.963 291.409C168.571 291.409 168.205 291.513 167.864 291.722C167.527 291.931 167.254 292.221 167.046 292.592C166.841 292.958 166.739 293.382 166.739 293.864V300H165.23ZM180.875 303.682V290.182H182.332V291.741H182.511C182.622 291.571 182.775 291.354 182.971 291.089C183.172 290.821 183.457 290.582 183.828 290.374C184.203 290.161 184.71 290.054 185.349 290.054C186.176 290.054 186.905 290.261 187.535 290.674C188.166 291.087 188.658 291.673 189.012 292.432C189.366 293.19 189.542 294.085 189.542 295.116C189.542 296.156 189.366 297.058 189.012 297.82C188.658 298.579 188.168 299.167 187.542 299.585C186.915 299.998 186.193 300.205 185.375 300.205C184.744 300.205 184.239 300.1 183.86 299.891C183.481 299.678 183.189 299.437 182.984 299.169C182.78 298.896 182.622 298.67 182.511 298.491H182.383V303.682H180.875ZM182.358 295.091C182.358 295.832 182.466 296.487 182.684 297.053C182.901 297.616 183.219 298.057 183.636 298.376C184.054 298.692 184.565 298.849 185.17 298.849C185.801 298.849 186.327 298.683 186.749 298.351C187.175 298.014 187.495 297.562 187.708 296.996C187.925 296.425 188.034 295.79 188.034 295.091C188.034 294.401 187.927 293.778 187.714 293.224C187.506 292.666 187.188 292.225 186.762 291.901C186.34 291.573 185.809 291.409 185.17 291.409C184.557 291.409 184.041 291.565 183.623 291.876C183.206 292.183 182.89 292.613 182.677 293.167C182.464 293.717 182.358 294.358 182.358 295.091ZM193.352 286.909V300H191.844V286.909H193.352ZM200.232 300.205C199.286 300.205 198.469 299.996 197.783 299.578C197.102 299.156 196.575 298.568 196.205 297.814C195.838 297.055 195.655 296.173 195.655 295.168C195.655 294.162 195.838 293.276 196.205 292.509C196.575 291.737 197.091 291.136 197.751 290.706C198.416 290.271 199.192 290.054 200.078 290.054C200.589 290.054 201.094 290.139 201.593 290.31C202.092 290.48 202.545 290.757 202.955 291.141C203.364 291.52 203.69 292.023 203.933 292.649C204.175 293.276 204.297 294.047 204.297 294.963V295.602H196.729V294.298H202.763C202.763 293.744 202.652 293.25 202.43 292.815C202.213 292.381 201.902 292.038 201.497 291.786C201.097 291.535 200.624 291.409 200.078 291.409C199.477 291.409 198.957 291.558 198.518 291.857C198.084 292.151 197.749 292.534 197.515 293.007C197.281 293.48 197.163 293.987 197.163 294.528V295.398C197.163 296.139 197.291 296.768 197.547 297.283C197.807 297.795 198.167 298.185 198.627 298.453C199.087 298.717 199.622 298.849 200.232 298.849C200.628 298.849 200.986 298.794 201.305 298.683C201.629 298.568 201.908 298.398 202.143 298.172C202.377 297.942 202.558 297.656 202.686 297.315L204.143 297.724C203.99 298.219 203.732 298.653 203.37 299.028C203.008 299.399 202.56 299.689 202.028 299.898C201.495 300.102 200.896 300.205 200.232 300.205ZM210.862 290.182V291.46H205.773V290.182H210.862ZM207.256 287.83H208.765V297.188C208.765 297.614 208.827 297.933 208.95 298.146C209.078 298.355 209.24 298.496 209.436 298.568C209.636 298.636 209.847 298.67 210.069 298.67C210.235 298.67 210.371 298.662 210.478 298.645C210.585 298.624 210.67 298.607 210.734 298.594L211.04 299.949C210.938 299.987 210.795 300.026 210.612 300.064C210.429 300.107 210.197 300.128 209.915 300.128C209.489 300.128 209.072 300.036 208.663 299.853C208.258 299.67 207.921 299.391 207.653 299.016C207.388 298.641 207.256 298.168 207.256 297.597V287.83ZM217.014 300.205C216.127 300.205 215.35 299.994 214.681 299.572C214.016 299.15 213.496 298.56 213.121 297.801C212.75 297.043 212.565 296.156 212.565 295.142C212.565 294.119 212.75 293.227 213.121 292.464C213.496 291.701 214.016 291.109 214.681 290.687C215.35 290.265 216.127 290.054 217.014 290.054C217.9 290.054 218.676 290.265 219.341 290.687C220.01 291.109 220.529 291.701 220.9 292.464C221.275 293.227 221.463 294.119 221.463 295.142C221.463 296.156 221.275 297.043 220.9 297.801C220.529 298.56 220.01 299.15 219.341 299.572C218.676 299.994 217.9 300.205 217.014 300.205ZM217.014 298.849C217.687 298.849 218.241 298.677 218.676 298.332C219.11 297.987 219.432 297.533 219.641 296.97C219.85 296.408 219.954 295.798 219.954 295.142C219.954 294.486 219.85 293.874 219.641 293.308C219.432 292.741 219.11 292.283 218.676 291.933C218.241 291.584 217.687 291.409 217.014 291.409C216.341 291.409 215.787 291.584 215.352 291.933C214.917 292.283 214.596 292.741 214.387 293.308C214.178 293.874 214.074 294.486 214.074 295.142C214.074 295.798 214.178 296.408 214.387 296.97C214.596 297.533 214.917 297.987 215.352 298.332C215.787 298.677 216.341 298.849 217.014 298.849Z" fill="#6B7280"/>
<path d="M572 340H68C63.5817 340 60 343.582 60 348V392C60 396.418 63.5817 400 68 400H572C576.418 400 580 396.418 580 392V348C580 343.582 576.418 340 572 340Z" fill="#E5E7EB"/>
<path d="M82.1193 371H80.5341C80.4403 370.544 80.2763 370.143 80.0419 369.798C79.8118 369.453 79.5305 369.163 79.1982 368.929C78.87 368.69 78.5057 368.511 78.1051 368.392C77.7045 368.273 77.2869 368.213 76.8523 368.213C76.0597 368.213 75.3416 368.413 74.6982 368.814C74.0589 369.214 73.5497 369.805 73.1705 370.585C72.7955 371.364 72.608 372.321 72.608 373.455C72.608 374.588 72.7955 375.545 73.1705 376.325C73.5497 377.104 74.0589 377.695 74.6982 378.095C75.3416 378.496 76.0597 378.696 76.8523 378.696C77.2869 378.696 77.7045 378.636 78.1051 378.517C78.5057 378.398 78.87 378.221 79.1982 377.987C79.5305 377.748 79.8118 377.456 80.0419 377.111C80.2763 376.761 80.4403 376.361 80.5341 375.909H82.1193C82 376.578 81.7827 377.177 81.4673 377.705C81.152 378.234 80.7599 378.683 80.2912 379.054C79.8224 379.42 79.2962 379.7 78.7124 379.891C78.1328 380.083 77.5128 380.179 76.8523 380.179C75.7358 380.179 74.7429 379.906 73.8736 379.361C73.0043 378.815 72.3203 378.04 71.8217 377.034C71.3232 376.028 71.0739 374.835 71.0739 373.455C71.0739 372.074 71.3232 370.881 71.8217 369.875C72.3203 368.869 73.0043 368.094 73.8736 367.548C74.7429 367.003 75.7358 366.73 76.8523 366.73C77.5128 366.73 78.1328 366.826 78.7124 367.018C79.2962 367.21 79.8224 367.491 80.2912 367.862C80.7599 368.228 81.152 368.675 81.4673 369.204C81.7827 369.728 82 370.327 82.1193 371ZM88.465 380.205C87.5787 380.205 86.801 379.994 86.1319 379.572C85.4672 379.15 84.9473 378.56 84.5723 377.801C84.2015 377.043 84.0162 376.156 84.0162 375.142C84.0162 374.119 84.2015 373.227 84.5723 372.464C84.9473 371.701 85.4672 371.109 86.1319 370.687C86.801 370.265 87.5787 370.054 88.465 370.054C89.3514 370.054 90.127 370.265 90.7917 370.687C91.4608 371.109 91.9806 371.701 92.3514 372.464C92.7264 373.227 92.9139 374.119 92.9139 375.142C92.9139 376.156 92.7264 377.043 92.3514 377.801C91.9806 378.56 91.4608 379.15 90.7917 379.572C90.127 379.994 89.3514 380.205 88.465 380.205ZM88.465 378.849C89.1383 378.849 89.6923 378.677 90.127 378.332C90.5616 377.987 90.8833 377.533 91.0922 376.97C91.301 376.408 91.4054 375.798 91.4054 375.142C91.4054 374.486 91.301 373.874 91.0922 373.308C90.8833 372.741 90.5616 372.283 90.127 371.933C89.6923 371.584 89.1383 371.409 88.465 371.409C87.7917 371.409 87.2377 371.584 86.8031 371.933C86.3684 372.283 86.0467 372.741 85.8379 373.308C85.6291 373.874 85.5247 374.486 85.5247 375.142C85.5247 375.798 85.6291 376.408 85.8379 376.97C86.0467 377.533 86.3684 377.987 86.8031 378.332C87.2377 378.677 87.7917 378.849 88.465 378.849ZM95.2166 380V370.182H96.674V371.665H96.7763C96.9553 371.179 97.2791 370.785 97.7479 370.482C98.2166 370.18 98.745 370.028 99.3331 370.028C99.4439 370.028 99.5824 370.031 99.7486 370.035C99.9148 370.039 100.04 370.045 100.126 370.054V371.588C100.075 371.575 99.9574 371.556 99.7741 371.531C99.5952 371.501 99.4055 371.486 99.2053 371.486C98.728 371.486 98.3018 371.586 97.9268 371.786C97.5561 371.982 97.2621 372.255 97.0447 372.604C96.8317 372.95 96.7251 373.344 96.7251 373.787V380H95.2166ZM101.914 380V370.182H103.371V371.665H103.474C103.653 371.179 103.976 370.785 104.445 370.482C104.914 370.18 105.442 370.028 106.03 370.028C106.141 370.028 106.28 370.031 106.446 370.035C106.612 370.039 106.738 370.045 106.823 370.054V371.588C106.772 371.575 106.655 371.556 106.471 371.531C106.292 371.501 106.103 371.486 105.903 371.486C105.425 371.486 104.999 371.586 104.624 371.786C104.253 371.982 103.959 372.255 103.742 372.604C103.529 372.95 103.422 373.344 103.422 373.787V380H101.914ZM112.429 380.205C111.483 380.205 110.667 379.996 109.981 379.578C109.299 379.156 108.773 378.568 108.402 377.814C108.035 377.055 107.852 376.173 107.852 375.168C107.852 374.162 108.035 373.276 108.402 372.509C108.773 371.737 109.288 371.136 109.949 370.706C110.613 370.271 111.389 370.054 112.275 370.054C112.787 370.054 113.292 370.139 113.79 370.31C114.289 370.48 114.743 370.757 115.152 371.141C115.561 371.52 115.887 372.023 116.13 372.649C116.373 373.276 116.494 374.047 116.494 374.963V375.602H108.926V374.298H114.96C114.96 373.744 114.849 373.25 114.628 372.815C114.41 372.381 114.099 372.038 113.694 371.786C113.294 371.535 112.821 371.409 112.275 371.409C111.675 371.409 111.155 371.558 110.716 371.857C110.281 372.151 109.947 372.534 109.712 373.007C109.478 373.48 109.361 373.987 109.361 374.528V375.398C109.361 376.139 109.488 376.768 109.744 377.283C110.004 377.795 110.364 378.185 110.824 378.453C111.285 378.717 111.819 378.849 112.429 378.849C112.825 378.849 113.183 378.794 113.503 378.683C113.827 378.568 114.106 378.398 114.34 378.172C114.574 377.942 114.756 377.656 114.883 377.315L116.341 377.724C116.187 378.219 115.93 378.653 115.567 379.028C115.205 379.399 114.758 379.689 114.225 379.898C113.692 380.102 113.094 380.205 112.429 380.205ZM122.778 380.205C121.891 380.205 121.113 379.994 120.444 379.572C119.78 379.15 119.26 378.56 118.885 377.801C118.514 377.043 118.329 376.156 118.329 375.142C118.329 374.119 118.514 373.227 118.885 372.464C119.26 371.701 119.78 371.109 120.444 370.687C121.113 370.265 121.891 370.054 122.778 370.054C123.664 370.054 124.439 370.265 125.104 370.687C125.773 371.109 126.293 371.701 126.664 372.464C127.039 373.227 127.226 374.119 127.226 375.142C127.226 376.156 127.039 377.043 126.664 377.801C126.293 378.56 125.773 379.15 125.104 379.572C124.439 379.994 123.664 380.205 122.778 380.205ZM122.778 378.849C123.451 378.849 124.005 378.677 124.439 378.332C124.874 377.987 125.196 377.533 125.405 376.97C125.613 376.408 125.718 375.798 125.718 375.142C125.718 374.486 125.613 373.874 125.405 373.308C125.196 372.741 124.874 372.283 124.439 371.933C124.005 371.584 123.451 371.409 122.778 371.409C122.104 371.409 121.55 371.584 121.116 371.933C120.681 372.283 120.359 372.741 120.15 373.308C119.942 373.874 119.837 374.486 119.837 375.142C119.837 375.798 119.942 376.408 120.15 376.97C120.359 377.533 120.681 377.987 121.116 378.332C121.55 378.677 122.104 378.849 122.778 378.849ZM138.708 380.205C137.762 380.205 136.946 379.996 136.26 379.578C135.578 379.156 135.052 378.568 134.681 377.814C134.315 377.055 134.131 376.173 134.131 375.168C134.131 374.162 134.315 373.276 134.681 372.509C135.052 371.737 135.567 371.136 136.228 370.706C136.893 370.271 137.668 370.054 138.555 370.054C139.066 370.054 139.571 370.139 140.07 370.31C140.568 370.48 141.022 370.757 141.431 371.141C141.84 371.52 142.166 372.023 142.409 372.649C142.652 373.276 142.773 374.047 142.773 374.963V375.602H135.205V374.298H141.239C141.239 373.744 141.129 373.25 140.907 372.815C140.69 372.381 140.379 372.038 139.974 371.786C139.573 371.535 139.1 371.409 138.555 371.409C137.954 371.409 137.434 371.558 136.995 371.857C136.56 372.151 136.226 372.534 135.991 373.007C135.757 373.48 135.64 373.987 135.64 374.528V375.398C135.64 376.139 135.768 376.768 136.023 377.283C136.283 377.795 136.643 378.185 137.104 378.453C137.564 378.717 138.099 378.849 138.708 378.849C139.104 378.849 139.462 378.794 139.782 378.683C140.106 378.568 140.385 378.398 140.619 378.172C140.854 377.942 141.035 377.656 141.163 377.315L142.62 377.724C142.467 378.219 142.209 378.653 141.847 379.028C141.484 379.399 141.037 379.689 140.504 379.898C139.972 380.102 139.373 380.205 138.708 380.205ZM146.577 366.909V380H145.068V366.909H146.577ZM153.456 380.205C152.51 380.205 151.694 379.996 151.008 379.578C150.326 379.156 149.8 378.568 149.429 377.814C149.063 377.055 148.879 376.173 148.879 375.168C148.879 374.162 149.063 373.276 149.429 372.509C149.8 371.737 150.316 371.136 150.976 370.706C151.641 370.271 152.416 370.054 153.303 370.054C153.814 370.054 154.319 370.139 154.818 370.31C155.316 370.48 155.77 370.757 156.179 371.141C156.588 371.52 156.914 372.023 157.157 372.649C157.4 373.276 157.521 374.047 157.521 374.963V375.602H149.953V374.298H155.987C155.987 373.744 155.877 373.25 155.655 372.815C155.438 372.381 155.127 372.038 154.722 371.786C154.321 371.535 153.848 371.409 153.303 371.409C152.702 371.409 152.182 371.558 151.743 371.857C151.308 372.151 150.974 372.534 150.74 373.007C150.505 373.48 150.388 373.987 150.388 374.528V375.398C150.388 376.139 150.516 376.768 150.771 377.283C151.031 377.795 151.392 378.185 151.852 378.453C152.312 378.717 152.847 378.849 153.456 378.849C153.852 378.849 154.21 378.794 154.53 378.683C154.854 378.568 155.133 378.398 155.367 378.172C155.602 377.942 155.783 377.656 155.911 377.315L157.368 377.724C157.215 378.219 156.957 378.653 156.595 379.028C156.232 379.399 155.785 379.689 155.252 379.898C154.72 380.102 154.121 380.205 153.456 380.205ZM163.805 380.205C162.884 380.205 162.092 379.987 161.427 379.553C160.762 379.118 160.251 378.519 159.893 377.756C159.535 376.994 159.356 376.122 159.356 375.142C159.356 374.145 159.539 373.265 159.906 372.502C160.276 371.735 160.792 371.136 161.453 370.706C162.117 370.271 162.893 370.054 163.779 370.054C164.47 370.054 165.092 370.182 165.646 370.438C166.2 370.693 166.654 371.051 167.007 371.511C167.361 371.972 167.58 372.509 167.666 373.122H166.157C166.042 372.675 165.786 372.278 165.39 371.933C164.998 371.584 164.47 371.409 163.805 371.409C163.217 371.409 162.701 371.562 162.258 371.869C161.819 372.172 161.476 372.6 161.229 373.154C160.986 373.704 160.865 374.349 160.865 375.091C160.865 375.849 160.984 376.51 161.222 377.072C161.465 377.635 161.806 378.072 162.245 378.383C162.688 378.694 163.208 378.849 163.805 378.849C164.197 378.849 164.553 378.781 164.872 378.645C165.192 378.509 165.463 378.312 165.684 378.057C165.906 377.801 166.063 377.494 166.157 377.136H167.666C167.58 377.716 167.369 378.238 167.033 378.702C166.7 379.163 166.259 379.529 165.71 379.802C165.164 380.07 164.529 380.205 163.805 380.205ZM174.141 370.182V371.46H169.053V370.182H174.141ZM170.536 367.83H172.044V377.188C172.044 377.614 172.106 377.933 172.23 378.146C172.357 378.355 172.519 378.496 172.715 378.568C172.916 378.636 173.127 378.67 173.348 378.67C173.514 378.67 173.651 378.662 173.757 378.645C173.864 378.624 173.949 378.607 174.013 378.594L174.32 379.949C174.218 379.987 174.075 380.026 173.892 380.064C173.708 380.107 173.476 380.128 173.195 380.128C172.769 380.128 172.351 380.036 171.942 379.853C171.537 379.67 171.2 379.391 170.932 379.016C170.668 378.641 170.536 378.168 170.536 377.597V367.83ZM176.41 380V370.182H177.867V371.665H177.97C178.149 371.179 178.472 370.785 178.941 370.482C179.41 370.18 179.938 370.028 180.526 370.028C180.637 370.028 180.776 370.031 180.942 370.035C181.108 370.039 181.234 370.045 181.319 370.054V371.588C181.268 371.575 181.151 371.556 180.968 371.531C180.789 371.501 180.599 371.486 180.399 371.486C179.921 371.486 179.495 371.586 179.12 371.786C178.749 371.982 178.455 372.255 178.238 372.604C178.025 372.95 177.919 373.344 177.919 373.787V380H176.41ZM186.797 380.205C185.911 380.205 185.133 379.994 184.464 379.572C183.799 379.15 183.279 378.56 182.904 377.801C182.534 377.043 182.348 376.156 182.348 375.142C182.348 374.119 182.534 373.227 182.904 372.464C183.279 371.701 183.799 371.109 184.464 370.687C185.133 370.265 185.911 370.054 186.797 370.054C187.683 370.054 188.459 370.265 189.124 370.687C189.793 371.109 190.313 371.701 190.683 372.464C191.058 373.227 191.246 374.119 191.246 375.142C191.246 376.156 191.058 377.043 190.683 377.801C190.313 378.56 189.793 379.15 189.124 379.572C188.459 379.994 187.683 380.205 186.797 380.205ZM186.797 378.849C187.47 378.849 188.024 378.677 188.459 378.332C188.894 377.987 189.215 377.533 189.424 376.97C189.633 376.408 189.737 375.798 189.737 375.142C189.737 374.486 189.633 373.874 189.424 373.308C189.215 372.741 188.894 372.283 188.459 371.933C188.024 371.584 187.47 371.409 186.797 371.409C186.124 371.409 185.57 371.584 185.135 371.933C184.7 372.283 184.379 372.741 184.17 373.308C183.961 373.874 183.857 374.486 183.857 375.142C183.857 375.798 183.961 376.408 184.17 376.97C184.379 377.533 184.7 377.987 185.135 378.332C185.57 378.677 186.124 378.849 186.797 378.849ZM186.107 368.852L187.666 365.886H189.431L187.436 368.852H186.107ZM195.057 374.094V380H193.549V370.182H195.006V371.716H195.134C195.364 371.217 195.713 370.817 196.182 370.514C196.651 370.207 197.256 370.054 197.998 370.054C198.662 370.054 199.244 370.19 199.743 370.463C200.241 370.732 200.629 371.141 200.906 371.69C201.183 372.236 201.321 372.926 201.321 373.761V380H199.813V373.864C199.813 373.092 199.613 372.491 199.212 372.061C198.811 371.626 198.262 371.409 197.563 371.409C197.081 371.409 196.651 371.513 196.272 371.722C195.897 371.931 195.6 372.236 195.383 372.636C195.166 373.037 195.057 373.523 195.057 374.094ZM204.078 380V370.182H205.586V380H204.078ZM204.845 368.545C204.551 368.545 204.297 368.445 204.084 368.245C203.876 368.045 203.771 367.804 203.771 367.523C203.771 367.241 203.876 367.001 204.084 366.8C204.297 366.6 204.551 366.5 204.845 366.5C205.139 366.5 205.39 366.6 205.599 366.8C205.812 367.001 205.919 367.241 205.919 367.523C205.919 367.804 205.812 368.045 205.599 368.245C205.39 368.445 205.139 368.545 204.845 368.545ZM212.338 380.205C211.418 380.205 210.625 379.987 209.96 379.553C209.295 379.118 208.784 378.519 208.426 377.756C208.068 376.994 207.889 376.122 207.889 375.142C207.889 374.145 208.072 373.265 208.439 372.502C208.81 371.735 209.325 371.136 209.986 370.706C210.651 370.271 211.426 370.054 212.312 370.054C213.003 370.054 213.625 370.182 214.179 370.438C214.733 370.693 215.187 371.051 215.54 371.511C215.894 371.972 216.114 372.509 216.199 373.122H214.69C214.575 372.675 214.32 372.278 213.923 371.933C213.531 371.584 213.003 371.409 212.338 371.409C211.75 371.409 211.234 371.562 210.791 371.869C210.352 372.172 210.009 372.6 209.762 373.154C209.519 373.704 209.398 374.349 209.398 375.091C209.398 375.849 209.517 376.51 209.756 377.072C209.999 377.635 210.339 378.072 210.778 378.383C211.222 378.694 211.741 378.849 212.338 378.849C212.73 378.849 213.086 378.781 213.406 378.645C213.725 378.509 213.996 378.312 214.217 378.057C214.439 377.801 214.597 377.494 214.69 377.136H216.199C216.114 377.716 215.903 378.238 215.566 378.702C215.234 379.163 214.793 379.529 214.243 379.802C213.697 380.07 213.063 380.205 212.338 380.205ZM222.393 380.205C221.506 380.205 220.729 379.994 220.06 379.572C219.395 379.15 218.875 378.56 218.5 377.801C218.129 377.043 217.944 376.156 217.944 375.142C217.944 374.119 218.129 373.227 218.5 372.464C218.875 371.701 219.395 371.109 220.06 370.687C220.729 370.265 221.506 370.054 222.393 370.054C223.279 370.054 224.055 370.265 224.719 370.687C225.388 371.109 225.908 371.701 226.279 372.464C226.654 373.227 226.842 374.119 226.842 375.142C226.842 376.156 226.654 377.043 226.279 377.801C225.908 378.56 225.388 379.15 224.719 379.572C224.055 379.994 223.279 380.205 222.393 380.205ZM222.393 378.849C223.066 378.849 223.62 378.677 224.055 378.332C224.489 377.987 224.811 377.533 225.02 376.97C225.229 376.408 225.333 375.798 225.333 375.142C225.333 374.486 225.229 373.874 225.02 373.308C224.811 372.741 224.489 372.283 224.055 371.933C223.62 371.584 223.066 371.409 222.393 371.409C221.719 371.409 221.165 371.584 220.731 371.933C220.296 372.283 219.974 372.741 219.766 373.308C219.557 373.874 219.452 374.486 219.452 375.142C219.452 375.798 219.557 376.408 219.766 376.97C219.974 377.533 220.296 377.987 220.731 378.332C221.165 378.677 221.719 378.849 222.393 378.849Z" fill="#6B7280"/>
<path d="M572 420H68C63.5817 420 60 423.582 60 428V472C60 476.418 63.5817 480 68 480H572C576.418 480 580 476.418 580 472V428C580 423.582 576.418 420 572 420Z" fill="#E5E7EB"/>
<path d="M81.9659 446.909V460H80.4318L73.2983 449.722H73.1705V460H71.5852V446.909H73.1193L80.2784 457.213H80.4062V446.909H81.9659ZM91.1209 455.986V450.182H92.6294V460H91.1209V458.338H91.0186C90.7885 458.837 90.4306 459.261 89.9448 459.61C89.459 459.955 88.8453 460.128 88.1039 460.128C87.4902 460.128 86.9448 459.994 86.4675 459.725C85.9902 459.452 85.6152 459.043 85.3425 458.498C85.0698 457.948 84.9334 457.256 84.9334 456.42V450.182H86.4419V456.318C86.4419 457.034 86.6422 457.605 87.0428 458.031C87.4476 458.457 87.9632 458.67 88.5897 458.67C88.9647 458.67 89.3461 458.575 89.7338 458.383C90.1259 458.191 90.454 457.897 90.7182 457.501C90.9867 457.104 91.1209 456.599 91.1209 455.986ZM88.1039 448.852L89.6635 445.886H91.4277L89.4334 448.852H88.1039ZM95.3924 460V450.182H96.8498V451.716H96.9776C97.1822 451.192 97.5124 450.785 97.9684 450.495C98.4244 450.201 98.9719 450.054 99.6112 450.054C100.259 450.054 100.798 450.201 101.228 450.495C101.663 450.785 102.002 451.192 102.245 451.716H102.347C102.598 451.209 102.975 450.806 103.478 450.508C103.981 450.205 104.584 450.054 105.287 450.054C106.165 450.054 106.883 450.329 107.441 450.879C108 451.424 108.279 452.274 108.279 453.429V460H106.77V453.429C106.77 452.705 106.572 452.187 106.176 451.876C105.779 451.565 105.313 451.409 104.776 451.409C104.086 451.409 103.551 451.618 103.172 452.036C102.792 452.449 102.603 452.973 102.603 453.608V460H101.069V453.276C101.069 452.717 100.887 452.268 100.525 451.927C100.163 451.582 99.6964 451.409 99.1254 451.409C98.7333 451.409 98.3668 451.513 98.0259 451.722C97.6893 451.931 97.4165 452.221 97.2077 452.592C97.0032 452.958 96.9009 453.382 96.9009 453.864V460H95.3924ZM115.153 460.205C114.207 460.205 113.391 459.996 112.705 459.578C112.023 459.156 111.497 458.568 111.126 457.814C110.76 457.055 110.577 456.173 110.577 455.168C110.577 454.162 110.76 453.276 111.126 452.509C111.497 451.737 112.013 451.136 112.673 450.706C113.338 450.271 114.114 450.054 115 450.054C115.511 450.054 116.016 450.139 116.515 450.31C117.013 450.48 117.467 450.757 117.876 451.141C118.286 451.52 118.612 452.023 118.854 452.649C119.097 453.276 119.219 454.047 119.219 454.963V455.602H111.651V454.298H117.685C117.685 453.744 117.574 453.25 117.352 452.815C117.135 452.381 116.824 452.038 116.419 451.786C116.018 451.535 115.545 451.409 115 451.409C114.399 451.409 113.879 451.558 113.44 451.857C113.006 452.151 112.671 452.534 112.437 453.007C112.202 453.48 112.085 453.987 112.085 454.528V455.398C112.085 456.139 112.213 456.768 112.469 457.283C112.729 457.795 113.089 458.185 113.549 458.453C114.009 458.717 114.544 458.849 115.153 458.849C115.55 458.849 115.908 458.794 116.227 458.683C116.551 458.568 116.83 458.398 117.065 458.172C117.299 457.942 117.48 457.656 117.608 457.315L119.065 457.724C118.912 458.219 118.654 458.653 118.292 459.028C117.93 459.399 117.482 459.689 116.95 459.898C116.417 460.102 115.818 460.205 115.153 460.205ZM121.513 460V450.182H122.971V451.665H123.073C123.252 451.179 123.576 450.785 124.045 450.482C124.513 450.18 125.042 450.028 125.63 450.028C125.741 450.028 125.879 450.031 126.045 450.035C126.212 450.039 126.337 450.045 126.423 450.054V451.588C126.371 451.575 126.254 451.556 126.071 451.531C125.892 451.501 125.702 451.486 125.502 451.486C125.025 451.486 124.599 451.586 124.224 451.786C123.853 451.982 123.559 452.255 123.342 452.604C123.129 452.95 123.022 453.344 123.022 453.787V460H121.513ZM131.901 460.205C131.014 460.205 130.237 459.994 129.567 459.572C128.903 459.15 128.383 458.56 128.008 457.801C127.637 457.043 127.452 456.156 127.452 455.142C127.452 454.119 127.637 453.227 128.008 452.464C128.383 451.701 128.903 451.109 129.567 450.687C130.237 450.265 131.014 450.054 131.901 450.054C132.787 450.054 133.563 450.265 134.227 450.687C134.896 451.109 135.416 451.701 135.787 452.464C136.162 453.227 136.349 454.119 136.349 455.142C136.349 456.156 136.162 457.043 135.787 457.801C135.416 458.56 134.896 459.15 134.227 459.572C133.563 459.994 132.787 460.205 131.901 460.205ZM131.901 458.849C132.574 458.849 133.128 458.677 133.562 458.332C133.997 457.987 134.319 457.533 134.528 456.97C134.737 456.408 134.841 455.798 134.841 455.142C134.841 454.486 134.737 453.874 134.528 453.308C134.319 452.741 133.997 452.283 133.562 451.933C133.128 451.584 132.574 451.409 131.901 451.409C131.227 451.409 130.673 451.584 130.239 451.933C129.804 452.283 129.482 452.741 129.273 453.308C129.065 453.874 128.96 454.486 128.96 455.142C128.96 455.798 129.065 456.408 129.273 456.97C129.482 457.533 129.804 457.987 130.239 458.332C130.673 458.677 131.227 458.849 131.901 458.849ZM147.422 460.205C146.604 460.205 145.882 459.998 145.255 459.585C144.629 459.167 144.139 458.579 143.785 457.82C143.431 457.058 143.254 456.156 143.254 455.116C143.254 454.085 143.431 453.19 143.785 452.432C144.139 451.673 144.631 451.087 145.262 450.674C145.892 450.261 146.621 450.054 147.448 450.054C148.087 450.054 148.592 450.161 148.963 450.374C149.338 450.582 149.623 450.821 149.819 451.089C150.019 451.354 150.175 451.571 150.286 451.741H150.414V446.909H151.922V460H150.465V458.491H150.286C150.175 458.67 150.017 458.896 149.813 459.169C149.608 459.437 149.316 459.678 148.937 459.891C148.558 460.1 148.053 460.205 147.422 460.205ZM147.627 458.849C148.232 458.849 148.743 458.692 149.161 458.376C149.578 458.057 149.896 457.616 150.113 457.053C150.33 456.487 150.439 455.832 150.439 455.091C150.439 454.358 150.333 453.717 150.119 453.167C149.906 452.613 149.591 452.183 149.173 451.876C148.756 451.565 148.24 451.409 147.627 451.409C146.987 451.409 146.455 451.573 146.029 451.901C145.607 452.225 145.289 452.666 145.076 453.224C144.867 453.778 144.763 454.401 144.763 455.091C144.763 455.79 144.869 456.425 145.083 456.996C145.3 457.562 145.619 458.014 146.041 458.351C146.468 458.683 146.996 458.849 147.627 458.849ZM159.011 460.205C158.065 460.205 157.249 459.996 156.563 459.578C155.881 459.156 155.355 458.568 154.984 457.814C154.617 457.055 154.434 456.173 154.434 455.168C154.434 454.162 154.617 453.276 154.984 452.509C155.355 451.737 155.87 451.136 156.531 450.706C157.195 450.271 157.971 450.054 158.857 450.054C159.369 450.054 159.874 450.139 160.372 450.31C160.871 450.48 161.325 450.757 161.734 451.141C162.143 451.52 162.469 452.023 162.712 452.649C162.955 453.276 163.076 454.047 163.076 454.963V455.602H155.508V454.298H161.542C161.542 453.744 161.431 453.25 161.21 452.815C160.992 452.381 160.681 452.038 160.276 451.786C159.876 451.535 159.403 451.409 158.857 451.409C158.257 451.409 157.737 451.558 157.298 451.857C156.863 452.151 156.529 452.534 156.294 453.007C156.06 453.48 155.943 453.987 155.943 454.528V455.398C155.943 456.139 156.07 456.768 156.326 457.283C156.586 457.795 156.946 458.185 157.406 458.453C157.867 458.717 158.401 458.849 159.011 458.849C159.407 458.849 159.765 458.794 160.085 458.683C160.409 458.568 160.688 458.398 160.922 458.172C161.156 457.942 161.338 457.656 161.465 457.315L162.923 457.724C162.769 458.219 162.512 458.653 162.149 459.028C161.787 459.399 161.34 459.689 160.807 459.898C160.274 460.102 159.676 460.205 159.011 460.205ZM174.703 450.182V451.46H169.615V450.182H174.703ZM171.098 447.83H172.607V457.188C172.607 457.614 172.669 457.933 172.792 458.146C172.92 458.355 173.082 458.496 173.278 458.568C173.478 458.636 173.689 458.67 173.911 458.67C174.077 458.67 174.213 458.662 174.32 458.645C174.426 458.624 174.512 458.607 174.575 458.594L174.882 459.949C174.78 459.987 174.637 460.026 174.454 460.064C174.271 460.107 174.039 460.128 173.757 460.128C173.331 460.128 172.914 460.036 172.504 459.853C172.1 459.67 171.763 459.391 171.494 459.016C171.23 458.641 171.098 458.168 171.098 457.597V447.83ZM180.983 460.205C180.037 460.205 179.221 459.996 178.535 459.578C177.854 459.156 177.327 458.568 176.956 457.814C176.59 457.055 176.407 456.173 176.407 455.168C176.407 454.162 176.59 453.276 176.956 452.509C177.327 451.737 177.843 451.136 178.503 450.706C179.168 450.271 179.944 450.054 180.83 450.054C181.341 450.054 181.846 450.139 182.345 450.31C182.844 450.48 183.297 450.757 183.706 451.141C184.116 451.52 184.442 452.023 184.684 452.649C184.927 453.276 185.049 454.047 185.049 454.963V455.602H177.481V454.298H183.515C183.515 453.744 183.404 453.25 183.182 452.815C182.965 452.381 182.654 452.038 182.249 451.786C181.849 451.535 181.376 451.409 180.83 451.409C180.229 451.409 179.709 451.558 179.27 451.857C178.836 452.151 178.501 452.534 178.267 453.007C178.032 453.48 177.915 453.987 177.915 454.528V455.398C177.915 456.139 178.043 456.768 178.299 457.283C178.559 457.795 178.919 458.185 179.379 458.453C179.839 458.717 180.374 458.849 180.983 458.849C181.38 458.849 181.738 458.794 182.057 458.683C182.381 458.568 182.66 458.398 182.895 458.172C183.129 457.942 183.31 457.656 183.438 457.315L184.895 457.724C184.742 458.219 184.484 458.653 184.122 459.028C183.76 459.399 183.312 459.689 182.78 459.898C182.247 460.102 181.648 460.205 180.983 460.205ZM188.852 446.909V460H187.344V446.909H188.852ZM195.732 460.205C194.786 460.205 193.969 459.996 193.283 459.578C192.602 459.156 192.075 458.568 191.705 457.814C191.338 457.055 191.155 456.173 191.155 455.168C191.155 454.162 191.338 453.276 191.705 452.509C192.075 451.737 192.591 451.136 193.251 450.706C193.916 450.271 194.692 450.054 195.578 450.054C196.089 450.054 196.594 450.139 197.093 450.31C197.592 450.48 198.045 450.757 198.455 451.141C198.864 451.52 199.19 452.023 199.433 452.649C199.675 453.276 199.797 454.047 199.797 454.963V455.602H192.229V454.298H198.263C198.263 453.744 198.152 453.25 197.93 452.815C197.713 452.381 197.402 452.038 196.997 451.786C196.597 451.535 196.124 451.409 195.578 451.409C194.977 451.409 194.457 451.558 194.018 451.857C193.584 452.151 193.249 452.534 193.015 453.007C192.781 453.48 192.663 453.987 192.663 454.528V455.398C192.663 456.139 192.791 456.768 193.047 457.283C193.307 457.795 193.667 458.185 194.127 458.453C194.587 458.717 195.122 458.849 195.732 458.849C196.128 458.849 196.486 458.794 196.805 458.683C197.129 458.568 197.408 458.398 197.643 458.172C197.877 457.942 198.058 457.656 198.186 457.315L199.643 457.724C199.49 458.219 199.232 458.653 198.87 459.028C198.508 459.399 198.06 459.689 197.528 459.898C196.995 460.102 196.396 460.205 195.732 460.205ZM194.811 448.852L196.371 445.886H198.135L196.141 448.852H194.811ZM206.464 450.182V451.46H201.171V450.182H206.464ZM202.756 460V448.827C202.756 448.264 202.888 447.795 203.153 447.42C203.417 447.045 203.76 446.764 204.182 446.577C204.604 446.389 205.049 446.295 205.518 446.295C205.888 446.295 206.191 446.325 206.425 446.385C206.66 446.445 206.835 446.5 206.95 446.551L206.515 447.855C206.438 447.83 206.332 447.798 206.195 447.759C206.063 447.721 205.888 447.702 205.671 447.702C205.173 447.702 204.813 447.827 204.591 448.079C204.374 448.33 204.265 448.699 204.265 449.185V460H202.756ZM212.162 460.205C211.276 460.205 210.498 459.994 209.829 459.572C209.164 459.15 208.645 458.56 208.27 457.801C207.899 457.043 207.713 456.156 207.713 455.142C207.713 454.119 207.899 453.227 208.27 452.464C208.645 451.701 209.164 451.109 209.829 450.687C210.498 450.265 211.276 450.054 212.162 450.054C213.049 450.054 213.824 450.265 214.489 450.687C215.158 451.109 215.678 451.701 216.049 452.464C216.424 453.227 216.611 454.119 216.611 455.142C216.611 456.156 216.424 457.043 216.049 457.801C215.678 458.56 215.158 459.15 214.489 459.572C213.824 459.994 213.049 460.205 212.162 460.205ZM212.162 458.849C212.836 458.849 213.39 458.677 213.824 458.332C214.259 457.987 214.581 457.533 214.789 456.97C214.998 456.408 215.103 455.798 215.103 455.142C215.103 454.486 214.998 453.874 214.789 453.308C214.581 452.741 214.259 452.283 213.824 451.933C213.39 451.584 212.836 451.409 212.162 451.409C211.489 451.409 210.935 451.584 210.5 451.933C210.066 452.283 209.744 452.741 209.535 453.308C209.326 453.874 209.222 454.486 209.222 455.142C209.222 455.798 209.326 456.408 209.535 456.97C209.744 457.533 210.066 457.987 210.5 458.332C210.935 458.677 211.489 458.849 212.162 458.849ZM220.422 454.094V460H218.914V450.182H220.371V451.716H220.499C220.729 451.217 221.079 450.817 221.547 450.514C222.016 450.207 222.621 450.054 223.363 450.054C224.028 450.054 224.609 450.19 225.108 450.463C225.606 450.732 225.994 451.141 226.271 451.69C226.548 452.236 226.687 452.926 226.687 453.761V460H225.178V453.864C225.178 453.092 224.978 452.491 224.577 452.061C224.177 451.626 223.627 451.409 222.928 451.409C222.447 451.409 222.016 451.513 221.637 451.722C221.262 451.931 220.966 452.236 220.748 452.636C220.531 453.037 220.422 453.523 220.422 454.094ZM233.432 460.205C232.545 460.205 231.768 459.994 231.099 459.572C230.434 459.15 229.914 458.56 229.539 457.801C229.168 457.043 228.983 456.156 228.983 455.142C228.983 454.119 229.168 453.227 229.539 452.464C229.914 451.701 230.434 451.109 231.099 450.687C231.768 450.265 232.545 450.054 233.432 450.054C234.318 450.054 235.094 450.265 235.759 450.687C236.428 451.109 236.947 451.701 237.318 452.464C237.693 453.227 237.881 454.119 237.881 455.142C237.881 456.156 237.693 457.043 237.318 457.801C236.947 458.56 236.428 459.15 235.759 459.572C235.094 459.994 234.318 460.205 233.432 460.205ZM233.432 458.849C234.105 458.849 234.659 458.677 235.094 458.332C235.528 457.987 235.85 457.533 236.059 456.97C236.268 456.408 236.372 455.798 236.372 455.142C236.372 454.486 236.268 453.874 236.059 453.308C235.85 452.741 235.528 452.283 235.094 451.933C234.659 451.584 234.105 451.409 233.432 451.409C232.759 451.409 232.205 451.584 231.77 451.933C231.335 452.283 231.013 452.741 230.805 453.308C230.596 453.874 230.491 454.486 230.491 455.142C230.491 455.798 230.596 456.408 230.805 456.97C231.013 457.533 231.335 457.987 231.77 458.332C232.205 458.677 232.759 458.849 233.432 458.849Z" fill="#6B7280"/>
<path d="M572 500H68C63.5817 500 60 503.582 60 508V612C60 616.418 63.5817 620 68 620H572C576.418 620 580 616.418 580 612V508C580 503.582 576.418 500 572 500Z" fill="#E5E7EB"/>
<path d="M71.5852 526.909H73.4773L77.9261 537.776H78.0795L82.5284 526.909H84.4205V540H82.9375V530.054H82.8097L78.7188 540H77.2869L73.196 530.054H73.0682V540H71.5852V526.909ZM91.5108 540.205C90.5648 540.205 89.7488 539.996 89.0627 539.578C88.3809 539.156 87.8546 538.568 87.4838 537.814C87.1174 537.055 86.9341 536.173 86.9341 535.168C86.9341 534.162 87.1174 533.276 87.4838 532.509C87.8546 531.737 88.3702 531.136 89.0307 530.706C89.6955 530.271 90.4711 530.054 91.3574 530.054C91.8688 530.054 92.3738 530.139 92.8723 530.31C93.3709 530.48 93.8248 530.757 94.2338 531.141C94.6429 531.52 94.9689 532.023 95.2118 532.649C95.4547 533.276 95.5762 534.047 95.5762 534.963V535.602H88.008V534.298H94.0421C94.0421 533.744 93.9313 533.25 93.7097 532.815C93.4924 532.381 93.1813 532.038 92.7765 531.786C92.3759 531.535 91.9029 531.409 91.3574 531.409C90.7566 531.409 90.2367 531.558 89.7978 531.857C89.3631 532.151 89.0286 532.534 88.7942 533.007C88.5598 533.48 88.4426 533.987 88.4426 534.528V535.398C88.4426 536.139 88.5705 536.768 88.8262 537.283C89.0861 537.795 89.4462 538.185 89.9064 538.453C90.3667 538.717 90.9015 538.849 91.5108 538.849C91.9071 538.849 92.2651 538.794 92.5847 538.683C92.9086 538.568 93.1877 538.398 93.4221 538.172C93.6564 537.942 93.8375 537.656 93.9654 537.315L95.4228 537.724C95.2694 538.219 95.0115 538.653 94.6493 539.028C94.2871 539.399 93.8397 539.689 93.307 539.898C92.7743 540.102 92.1756 540.205 91.5108 540.205ZM99.3794 534.094V540H97.8709V530.182H99.3283V531.716H99.4561C99.6863 531.217 100.036 530.817 100.504 530.514C100.973 530.207 101.578 530.054 102.32 530.054C102.985 530.054 103.566 530.19 104.065 530.463C104.563 530.732 104.951 531.141 105.228 531.69C105.505 532.236 105.644 532.926 105.644 533.761V540H104.135V533.864C104.135 533.092 103.935 532.491 103.534 532.061C103.134 531.626 102.584 531.409 101.885 531.409C101.404 531.409 100.973 531.513 100.594 531.722C100.219 531.931 99.9228 532.236 99.7054 532.636C99.4881 533.037 99.3794 533.523 99.3794 534.094ZM115.355 532.381L114 532.764C113.914 532.538 113.789 532.319 113.623 532.106C113.461 531.888 113.239 531.71 112.958 531.569C112.676 531.428 112.316 531.358 111.877 531.358C111.277 531.358 110.776 531.496 110.375 531.773C109.979 532.046 109.781 532.393 109.781 532.815C109.781 533.19 109.917 533.487 110.19 533.704C110.463 533.921 110.889 534.102 111.468 534.247L112.926 534.605C113.804 534.818 114.458 535.144 114.888 535.583C115.319 536.018 115.534 536.578 115.534 537.264C115.534 537.827 115.372 538.33 115.048 538.773C114.728 539.216 114.281 539.565 113.706 539.821C113.13 540.077 112.461 540.205 111.699 540.205C110.697 540.205 109.868 539.987 109.212 539.553C108.556 539.118 108.14 538.483 107.966 537.648L109.397 537.29C109.534 537.818 109.792 538.214 110.171 538.479C110.554 538.743 111.055 538.875 111.673 538.875C112.376 538.875 112.934 538.726 113.348 538.428C113.765 538.125 113.974 537.763 113.974 537.341C113.974 537 113.855 536.714 113.616 536.484C113.377 536.25 113.011 536.075 112.517 535.96L110.88 535.577C109.981 535.364 109.321 535.033 108.899 534.586C108.481 534.134 108.272 533.57 108.272 532.892C108.272 532.338 108.428 531.848 108.739 531.422C109.054 530.996 109.483 530.661 110.024 530.418C110.569 530.175 111.187 530.054 111.877 530.054C112.849 530.054 113.612 530.267 114.166 530.693C114.724 531.119 115.12 531.682 115.355 532.381ZM120.694 540.23C120.072 540.23 119.507 540.113 119 539.879C118.493 539.64 118.09 539.297 117.792 538.849C117.493 538.398 117.344 537.852 117.344 537.213C117.344 536.651 117.455 536.195 117.677 535.845C117.898 535.491 118.194 535.214 118.565 535.014C118.936 534.814 119.345 534.665 119.792 534.567C120.244 534.464 120.698 534.384 121.154 534.324C121.751 534.247 122.234 534.19 122.605 534.151C122.98 534.109 123.253 534.038 123.423 533.94C123.598 533.842 123.685 533.672 123.685 533.429V533.378C123.685 532.747 123.513 532.257 123.167 531.908C122.827 531.558 122.309 531.384 121.614 531.384C120.894 531.384 120.329 531.541 119.92 531.857C119.511 532.172 119.224 532.509 119.057 532.866L117.626 532.355C117.881 531.759 118.222 531.294 118.648 530.962C119.079 530.625 119.547 530.391 120.055 530.259C120.566 530.122 121.069 530.054 121.563 530.054C121.878 530.054 122.241 530.092 122.65 530.169C123.063 530.241 123.461 530.393 123.845 530.623C124.233 530.853 124.555 531.2 124.81 531.665C125.066 532.129 125.194 532.751 125.194 533.531V540H123.685V538.67H123.608C123.506 538.884 123.336 539.112 123.097 539.354C122.858 539.597 122.541 539.804 122.145 539.974C121.748 540.145 121.265 540.23 120.694 540.23ZM120.924 538.875C121.52 538.875 122.023 538.758 122.432 538.523C122.846 538.289 123.157 537.987 123.366 537.616C123.579 537.245 123.685 536.855 123.685 536.446V535.065C123.621 535.142 123.481 535.212 123.263 535.276C123.05 535.336 122.803 535.389 122.522 535.436C122.245 535.479 121.974 535.517 121.71 535.551C121.45 535.581 121.239 535.607 121.077 535.628C120.685 535.679 120.319 535.762 119.978 535.877C119.641 535.988 119.368 536.156 119.16 536.382C118.955 536.604 118.853 536.906 118.853 537.29C118.853 537.814 119.047 538.21 119.434 538.479C119.827 538.743 120.323 538.875 120.924 538.875ZM127.947 530.182H129.456V540.716C129.456 541.321 129.351 541.845 129.142 542.288C128.938 542.732 128.627 543.075 128.209 543.317C127.796 543.56 127.274 543.682 126.643 543.682C126.592 543.682 126.541 543.682 126.49 543.682C126.439 543.682 126.387 543.682 126.336 543.682V542.276C126.387 542.276 126.434 542.276 126.477 542.276C126.52 542.276 126.566 542.276 126.618 542.276C127.078 542.276 127.414 542.139 127.627 541.866C127.841 541.598 127.947 541.214 127.947 540.716V530.182ZM128.689 528.545C128.395 528.545 128.141 528.445 127.928 528.245C127.719 528.045 127.615 527.804 127.615 527.523C127.615 527.241 127.719 527.001 127.928 526.8C128.141 526.6 128.395 526.5 128.689 526.5C128.983 526.5 129.234 526.6 129.443 526.8C129.656 527.001 129.762 527.241 129.762 527.523C129.762 527.804 129.656 528.045 129.443 528.245C129.234 528.445 128.983 528.545 128.689 528.545ZM136.335 540.205C135.389 540.205 134.573 539.996 133.887 539.578C133.205 539.156 132.679 538.568 132.308 537.814C131.942 537.055 131.758 536.173 131.758 535.168C131.758 534.162 131.942 533.276 132.308 532.509C132.679 531.737 133.194 531.136 133.855 530.706C134.52 530.271 135.295 530.054 136.182 530.054C136.693 530.054 137.198 530.139 137.697 530.31C138.195 530.48 138.649 530.757 139.058 531.141C139.467 531.52 139.793 532.023 140.036 532.649C140.279 533.276 140.4 534.047 140.4 534.963V535.602H132.832V534.298H138.866C138.866 533.744 138.756 533.25 138.534 532.815C138.317 532.381 138.006 532.038 137.601 531.786C137.2 531.535 136.727 531.409 136.182 531.409C135.581 531.409 135.061 531.558 134.622 531.857C134.187 532.151 133.853 532.534 133.618 533.007C133.384 533.48 133.267 533.987 133.267 534.528V535.398C133.267 536.139 133.395 536.768 133.65 537.283C133.91 537.795 134.27 538.185 134.731 538.453C135.191 538.717 135.726 538.849 136.335 538.849C136.731 538.849 137.089 538.794 137.409 538.683C137.733 538.568 138.012 538.398 138.246 538.172C138.481 537.942 138.662 537.656 138.79 537.315L140.247 537.724C140.094 538.219 139.836 538.653 139.474 539.028C139.111 539.399 138.664 539.689 138.131 539.898C137.599 540.102 137 540.205 136.335 540.205ZM151.746 540.205C150.86 540.205 150.082 539.994 149.413 539.572C148.748 539.15 148.229 538.56 147.854 537.801C147.483 537.043 147.297 536.156 147.297 535.142C147.297 534.119 147.483 533.227 147.854 532.464C148.229 531.701 148.748 531.109 149.413 530.687C150.082 530.265 150.86 530.054 151.746 530.054C152.633 530.054 153.408 530.265 154.073 530.687C154.742 531.109 155.262 531.701 155.633 532.464C156.008 533.227 156.195 534.119 156.195 535.142C156.195 536.156 156.008 537.043 155.633 537.801C155.262 538.56 154.742 539.15 154.073 539.572C153.408 539.994 152.633 540.205 151.746 540.205ZM151.746 538.849C152.42 538.849 152.974 538.677 153.408 538.332C153.843 537.987 154.165 537.533 154.373 536.97C154.582 536.408 154.687 535.798 154.687 535.142C154.687 534.486 154.582 533.874 154.373 533.308C154.165 532.741 153.843 532.283 153.408 531.933C152.974 531.584 152.42 531.409 151.746 531.409C151.073 531.409 150.519 531.584 150.084 531.933C149.65 532.283 149.328 532.741 149.119 533.308C148.91 533.874 148.806 534.486 148.806 535.142C148.806 535.798 148.91 536.408 149.119 536.97C149.328 537.533 149.65 537.987 150.084 538.332C150.519 538.677 151.073 538.849 151.746 538.849ZM167.549 540.205C166.629 540.205 165.836 539.987 165.171 539.553C164.506 539.118 163.995 538.519 163.637 537.756C163.279 536.994 163.1 536.122 163.1 535.142C163.1 534.145 163.283 533.265 163.65 532.502C164.021 531.735 164.536 531.136 165.197 530.706C165.862 530.271 166.637 530.054 167.523 530.054C168.214 530.054 168.836 530.182 169.39 530.438C169.944 530.693 170.398 531.051 170.751 531.511C171.105 531.972 171.325 532.509 171.41 533.122H169.901C169.786 532.675 169.531 532.278 169.134 531.933C168.742 531.584 168.214 531.409 167.549 531.409C166.961 531.409 166.445 531.562 166.002 531.869C165.563 532.172 165.22 532.6 164.973 533.154C164.73 533.704 164.609 534.349 164.609 535.091C164.609 535.849 164.728 536.51 164.967 537.072C165.21 537.635 165.55 538.072 165.989 538.383C166.433 538.694 166.952 538.849 167.549 538.849C167.941 538.849 168.297 538.781 168.616 538.645C168.936 538.509 169.207 538.312 169.428 538.057C169.65 537.801 169.808 537.494 169.901 537.136H171.41C171.325 537.716 171.114 538.238 170.777 538.702C170.445 539.163 170.004 539.529 169.454 539.802C168.908 540.07 168.273 540.205 167.549 540.205ZM177.604 540.205C176.717 540.205 175.94 539.994 175.271 539.572C174.606 539.15 174.086 538.56 173.711 537.801C173.34 537.043 173.155 536.156 173.155 535.142C173.155 534.119 173.34 533.227 173.711 532.464C174.086 531.701 174.606 531.109 175.271 530.687C175.94 530.265 176.717 530.054 177.604 530.054C178.49 530.054 179.266 530.265 179.93 530.687C180.599 531.109 181.119 531.701 181.49 532.464C181.865 533.227 182.053 534.119 182.053 535.142C182.053 536.156 181.865 537.043 181.49 537.801C181.119 538.56 180.599 539.15 179.93 539.572C179.266 539.994 178.49 540.205 177.604 540.205ZM177.604 538.849C178.277 538.849 178.831 538.677 179.266 538.332C179.7 537.987 180.022 537.533 180.231 536.97C180.44 536.408 180.544 535.798 180.544 535.142C180.544 534.486 180.44 533.874 180.231 533.308C180.022 532.741 179.7 532.283 179.266 531.933C178.831 531.584 178.277 531.409 177.604 531.409C176.93 531.409 176.376 531.584 175.942 531.933C175.507 532.283 175.185 532.741 174.977 533.308C174.768 533.874 174.663 534.486 174.663 535.142C174.663 535.798 174.768 536.408 174.977 536.97C175.185 537.533 175.507 537.987 175.942 538.332C176.376 538.677 176.93 538.849 177.604 538.849ZM185.864 534.094V540H184.355V530.182H185.813V531.716H185.941C186.171 531.217 186.52 530.817 186.989 530.514C187.458 530.207 188.063 530.054 188.804 530.054C189.469 530.054 190.051 530.19 190.549 530.463C191.048 530.732 191.436 531.141 191.713 531.69C191.99 532.236 192.128 532.926 192.128 533.761V540H190.619V533.864C190.619 533.092 190.419 532.491 190.019 532.061C189.618 531.626 189.068 531.409 188.369 531.409C187.888 531.409 187.458 531.513 187.078 531.722C186.703 531.931 186.407 532.236 186.19 532.636C185.972 533.037 185.864 533.523 185.864 534.094ZM201.839 532.381L200.484 532.764C200.399 532.538 200.273 532.319 200.107 532.106C199.945 531.888 199.723 531.71 199.442 531.569C199.161 531.428 198.801 531.358 198.362 531.358C197.761 531.358 197.26 531.496 196.86 531.773C196.463 532.046 196.265 532.393 196.265 532.815C196.265 533.19 196.402 533.487 196.674 533.704C196.947 533.921 197.373 534.102 197.953 534.247L199.41 534.605C200.288 534.818 200.942 535.144 201.373 535.583C201.803 536.018 202.018 536.578 202.018 537.264C202.018 537.827 201.856 538.33 201.532 538.773C201.213 539.216 200.765 539.565 200.19 539.821C199.615 540.077 198.946 540.205 198.183 540.205C197.181 540.205 196.353 539.987 195.696 539.553C195.04 539.118 194.625 538.483 194.45 537.648L195.882 537.29C196.018 537.818 196.276 538.214 196.655 538.479C197.039 538.743 197.539 538.875 198.157 538.875C198.86 538.875 199.419 538.726 199.832 538.428C200.25 538.125 200.458 537.763 200.458 537.341C200.458 537 200.339 536.714 200.1 536.484C199.862 536.25 199.495 536.075 199.001 535.96L197.365 535.577C196.466 535.364 195.805 535.033 195.383 534.586C194.966 534.134 194.757 533.57 194.757 532.892C194.757 532.338 194.912 531.848 195.223 531.422C195.539 530.996 195.967 530.661 196.508 530.418C197.054 530.175 197.672 530.054 198.362 530.054C199.333 530.054 200.096 530.267 200.65 530.693C201.208 531.119 201.605 531.682 201.839 532.381ZM210.476 535.986V530.182H211.985V540H210.476V538.338H210.374C210.144 538.837 209.786 539.261 209.3 539.61C208.814 539.955 208.201 540.128 207.459 540.128C206.846 540.128 206.3 539.994 205.823 539.725C205.346 539.452 204.971 539.043 204.698 538.498C204.425 537.948 204.289 537.256 204.289 536.42V530.182H205.797V536.318C205.797 537.034 205.998 537.605 206.398 538.031C206.803 538.457 207.319 538.67 207.945 538.67C208.32 538.67 208.702 538.575 209.089 538.383C209.481 538.191 209.809 537.897 210.074 537.501C210.342 537.104 210.476 536.599 210.476 535.986ZM216.256 526.909V540H214.748V526.909H216.256ZM223.289 530.182V531.46H218.201V530.182H223.289ZM219.684 527.83H221.193V537.188C221.193 537.614 221.254 537.933 221.378 538.146C221.506 538.355 221.668 538.496 221.864 538.568C222.064 538.636 222.275 538.67 222.497 538.67C222.663 538.67 222.799 538.662 222.906 538.645C223.012 538.624 223.097 538.607 223.161 538.594L223.468 539.949C223.366 539.987 223.223 540.026 223.04 540.064C222.857 540.107 222.624 540.128 222.343 540.128C221.917 540.128 221.499 540.036 221.09 539.853C220.686 539.67 220.349 539.391 220.08 539.016C219.816 538.641 219.684 538.168 219.684 537.597V527.83ZM228.448 540.23C227.825 540.23 227.261 540.113 226.754 539.879C226.247 539.64 225.844 539.297 225.546 538.849C225.247 538.398 225.098 537.852 225.098 537.213C225.098 536.651 225.209 536.195 225.431 535.845C225.652 535.491 225.948 535.214 226.319 535.014C226.69 534.814 227.099 534.665 227.546 534.567C227.998 534.464 228.452 534.384 228.908 534.324C229.504 534.247 229.988 534.19 230.359 534.151C230.734 534.109 231.007 534.038 231.177 533.94C231.352 533.842 231.439 533.672 231.439 533.429V533.378C231.439 532.747 231.267 532.257 230.921 531.908C230.58 531.558 230.063 531.384 229.368 531.384C228.648 531.384 228.083 531.541 227.674 531.857C227.265 532.172 226.977 532.509 226.811 532.866L225.379 532.355C225.635 531.759 225.976 531.294 226.402 530.962C226.833 530.625 227.301 530.391 227.808 530.259C228.32 530.122 228.823 530.054 229.317 530.054C229.632 530.054 229.994 530.092 230.404 530.169C230.817 530.241 231.215 530.393 231.599 530.623C231.987 530.853 232.308 531.2 232.564 531.665C232.82 532.129 232.948 532.751 232.948 533.531V540H231.439V538.67H231.362C231.26 538.884 231.09 539.112 230.851 539.354C230.612 539.597 230.295 539.804 229.899 539.974C229.502 540.145 229.019 540.23 228.448 540.23ZM228.678 538.875C229.274 538.875 229.777 538.758 230.186 538.523C230.6 538.289 230.911 537.987 231.119 537.616C231.333 537.245 231.439 536.855 231.439 536.446V535.065C231.375 535.142 231.235 535.212 231.017 535.276C230.804 535.336 230.557 535.389 230.276 535.436C229.999 535.479 229.728 535.517 229.464 535.551C229.204 535.581 228.993 535.607 228.831 535.628C228.439 535.679 228.073 535.762 227.732 535.877C227.395 535.988 227.122 536.156 226.914 536.382C226.709 536.604 226.607 536.906 226.607 537.29C226.607 537.814 226.801 538.21 227.188 538.479C227.58 538.743 228.077 538.875 228.678 538.875Z" fill="#6B7280"/>
<path d="M215 640H85C71.1929 640 60 651.193 60 665C60 678.807 71.1929 690 85 690H215C228.807 690 240 678.807 240 665C240 651.193 228.807 640 215 640Z" fill="#3B82F6"/>
<path d="M122.757 672L124.93 658.909H133.751L133.368 661.191H127.315L126.803 664.31H132.403L132.019 666.592H126.42L125.908 669.718H131.987L131.604 672H122.757ZM137.409 666.324L136.463 672H133.747L135.383 662.182H137.972L137.691 663.914H137.799C138.11 663.339 138.549 662.885 139.116 662.553C139.687 662.22 140.337 662.054 141.066 662.054C141.747 662.054 142.316 662.203 142.772 662.501C143.232 662.8 143.556 663.224 143.744 663.773C143.936 664.323 143.968 664.982 143.84 665.749L142.791 672H140.068L141.034 666.234C141.132 665.634 141.055 665.165 140.803 664.828C140.556 664.487 140.158 664.317 139.608 664.317C139.242 664.317 138.905 664.396 138.598 664.553C138.291 664.711 138.034 664.941 137.825 665.244C137.62 665.542 137.482 665.902 137.409 666.324ZM155.363 662.182L150.294 672H147.226L145.43 662.182H148.204L149.073 669.207H149.175L152.378 662.182H155.363ZM155.12 672L156.756 662.182H159.479L157.843 672H155.12ZM158.399 660.903C157.994 660.903 157.66 660.769 157.396 660.501C157.136 660.228 157.029 659.904 157.076 659.529C157.123 659.146 157.306 658.822 157.626 658.558C157.945 658.289 158.308 658.155 158.712 658.155C159.117 658.155 159.447 658.289 159.703 658.558C159.959 658.822 160.065 659.146 160.023 659.529C159.98 659.904 159.799 660.228 159.479 660.501C159.164 660.769 158.804 660.903 158.399 660.903ZM162.798 672.185C162.176 672.185 161.637 672.077 161.181 671.859C160.73 671.638 160.397 671.31 160.184 670.875C159.971 670.44 159.918 669.901 160.024 669.258C160.118 668.712 160.295 668.256 160.555 667.89C160.819 667.519 161.141 667.221 161.52 666.995C161.899 666.769 162.319 666.597 162.779 666.477C163.244 666.358 163.723 666.277 164.218 666.234C164.789 666.175 165.253 666.117 165.611 666.062C165.973 666.006 166.244 665.928 166.423 665.825C166.602 665.719 166.71 665.561 166.749 665.352V665.314C166.813 664.913 166.738 664.602 166.525 664.381C166.316 664.155 165.982 664.042 165.521 664.042C165.036 664.042 164.622 664.148 164.281 664.362C163.945 664.575 163.704 664.845 163.559 665.173L161.079 664.969C161.301 664.372 161.635 663.857 162.083 663.422C162.534 662.983 163.078 662.646 163.713 662.412C164.347 662.173 165.059 662.054 165.847 662.054C166.393 662.054 166.902 662.118 167.375 662.246C167.852 662.374 168.264 662.572 168.609 662.84C168.958 663.109 169.21 663.454 169.363 663.876C169.521 664.293 169.553 664.794 169.459 665.378L168.353 672H165.771L166.001 670.638H165.924C165.715 670.945 165.46 671.216 165.157 671.45C164.855 671.68 164.507 671.862 164.115 671.994C163.723 672.121 163.284 672.185 162.798 672.185ZM163.892 670.306C164.288 670.306 164.652 670.227 164.985 670.07C165.321 669.908 165.598 669.69 165.816 669.418C166.037 669.145 166.178 668.836 166.237 668.491L166.404 667.449C166.318 667.504 166.195 667.553 166.033 667.596C165.875 667.638 165.703 667.679 165.515 667.717C165.332 667.751 165.146 667.783 164.959 667.813C164.771 667.839 164.603 667.864 164.454 667.89C164.126 667.937 163.832 668.011 163.572 668.114C163.312 668.216 163.101 668.354 162.939 668.529C162.777 668.7 162.677 668.913 162.639 669.168C162.579 669.539 162.666 669.822 162.901 670.018C163.139 670.21 163.47 670.306 163.892 670.306ZM170.466 672L172.102 662.182H174.742L174.454 663.895H174.557C174.838 663.286 175.215 662.825 175.688 662.514C176.165 662.199 176.679 662.041 177.229 662.041C177.365 662.041 177.508 662.05 177.657 662.067C177.81 662.08 177.947 662.101 178.066 662.131L177.657 664.553C177.537 664.511 177.367 664.477 177.145 664.451C176.928 664.421 176.721 664.406 176.525 664.406C176.129 664.406 175.76 664.494 175.42 664.668C175.079 664.839 174.791 665.077 174.557 665.384C174.327 665.691 174.175 666.045 174.103 666.445L173.189 672H170.466Z" fill="white"/>
</svg>
