<svg width="375" height="812" viewBox="0 0 375 812" fill="none" xmlns="http://www.w3.org/2000/svg">
<rect width="375" height="812" fill="#F9FAFB"/>
<path d="M22.1816 70.82H48.1816V44.82H22.1816V70.82ZM54.6609 69L57.8001 50.0909H70.32L69.766 53.3871H61.244L60.5053 57.8928H68.1964L67.6424 61.1889H59.9513L58.6587 69H54.6609ZM75.1811 69.277C73.7346 69.277 72.5374 68.9692 71.5895 68.3537C70.6416 67.732 69.9737 66.8703 69.5859 65.7685C69.2043 64.6605 69.1335 63.371 69.3736 61.8999C69.6075 60.4472 70.0938 59.1761 70.8324 58.0866C71.571 56.9972 72.5097 56.1508 73.6484 55.5476C74.7872 54.9382 76.0705 54.6335 77.4986 54.6335C78.9389 54.6335 80.133 54.9444 81.081 55.5661C82.0289 56.1816 82.6967 57.0433 83.0845 58.1513C83.4723 59.2592 83.5462 60.5488 83.3061 62.0199C83.0661 63.4664 82.5736 64.7344 81.8288 65.8239C81.084 66.9134 80.1454 67.7628 79.0128 68.3722C77.8802 68.9754 76.603 69.277 75.1811 69.277ZM75.5689 66.2301C76.2337 66.2301 76.8215 66.0424 77.3324 65.6669C77.8494 65.2853 78.2772 64.7682 78.6158 64.1158C78.9605 63.4571 79.2005 62.7124 79.3359 61.8814C79.4714 61.0627 79.4806 60.3364 79.3636 59.7024C79.2467 59.0623 79.0005 58.5575 78.625 58.1882C78.2557 57.8189 77.7479 57.6342 77.1016 57.6342C76.4368 57.6342 75.8459 57.825 75.3288 58.2067C74.8118 58.5821 74.384 59.0992 74.0455 59.7578C73.7069 60.4164 73.4699 61.1643 73.3345 62.0014C73.2053 62.8139 73.196 63.5402 73.3068 64.1804C73.4176 64.8144 73.6607 65.3161 74.0362 65.6854C74.4117 66.0485 74.9226 66.2301 75.5689 66.2301ZM84.7003 69L87.0639 54.8182H90.8771L90.4616 57.2926H90.6094C91.0156 56.4124 91.5604 55.7476 92.2436 55.2983C92.933 54.8428 93.6747 54.6151 94.4688 54.6151C94.6657 54.6151 94.8719 54.6274 95.0874 54.652C95.3089 54.6705 95.5059 54.7012 95.6783 54.7443L95.0874 58.2436C94.915 58.1821 94.6688 58.1328 94.3487 58.0959C94.0348 58.0528 93.7363 58.0312 93.4531 58.0312C92.8807 58.0312 92.3482 58.1574 91.8558 58.4098C91.3634 58.656 90.9479 59.0007 90.6094 59.4439C90.277 59.8871 90.0585 60.398 89.9538 60.9766L88.6335 69H84.7003ZM95.3667 69L97.7303 54.8182H101.47L101.063 57.3203H101.22C101.651 56.4893 102.251 55.8338 103.021 55.3537C103.796 54.8736 104.667 54.6335 105.634 54.6335C106.594 54.6335 107.376 54.8767 107.979 55.3629C108.588 55.843 108.939 56.4955 109.031 57.3203H109.179C109.598 56.5078 110.229 55.8584 111.072 55.3722C111.915 54.8797 112.857 54.6335 113.897 54.6335C115.208 54.6335 116.212 55.0552 116.907 55.8984C117.603 56.7417 117.821 57.9297 117.563 59.4624L115.975 69H112.041L113.519 60.2379C113.636 59.4439 113.519 58.853 113.168 58.4652C112.817 58.0713 112.328 57.8743 111.7 57.8743C110.986 57.8743 110.392 58.102 109.918 58.5575C109.444 59.0069 109.151 59.6009 109.041 60.3395L107.573 69H103.759L105.255 60.1548C105.36 59.4531 105.246 58.8991 104.914 58.4929C104.587 58.0805 104.098 57.8743 103.445 57.8743C103.015 57.8743 102.605 57.9851 102.218 58.2067C101.836 58.4221 101.513 58.7268 101.248 59.1207C100.983 59.5085 100.811 59.964 100.731 60.4872L99.2907 69H95.3667ZM129.155 62.9616L130.512 54.8182H134.445L132.081 69H128.305L128.73 66.424H128.582C128.145 67.255 127.508 67.9228 126.671 68.4276C125.834 68.9323 124.883 69.1847 123.818 69.1847C122.87 69.1847 122.07 68.9692 121.417 68.5384C120.771 68.1075 120.313 67.495 120.042 66.701C119.771 65.907 119.725 64.956 119.903 63.848L121.417 54.8182H125.351L123.966 63.1463C123.836 63.9834 123.953 64.6451 124.317 65.1314C124.68 65.6177 125.234 65.8608 125.979 65.8608C126.452 65.8608 126.911 65.7531 127.354 65.5376C127.804 65.3161 128.191 64.9898 128.518 64.5589C128.844 64.1281 129.056 63.5956 129.155 62.9616ZM142.3 50.0909L139.161 69H135.228L138.367 50.0909H142.3ZM146.319 69.2678C145.42 69.2678 144.641 69.1108 143.983 68.7969C143.33 68.4768 142.85 68.0028 142.542 67.375C142.235 66.7472 142.158 65.9685 142.312 65.0391C142.447 64.2512 142.702 63.5926 143.078 63.0632C143.46 62.5277 143.924 62.0968 144.472 61.7706C145.02 61.4444 145.626 61.1951 146.291 61.0227C146.962 60.8504 147.654 60.7334 148.368 60.6719C149.193 60.5857 149.864 60.5026 150.381 60.4226C150.904 60.3426 151.295 60.2287 151.554 60.081C151.812 59.9271 151.969 59.6993 152.025 59.3977V59.3423C152.117 58.7637 152.009 58.3144 151.702 57.9943C151.4 57.6681 150.917 57.505 150.252 57.505C149.55 57.505 148.953 57.6589 148.461 57.9666C147.974 58.2744 147.627 58.6652 147.417 59.1392L143.835 58.8438C144.155 57.982 144.638 57.2372 145.285 56.6094C145.937 55.9754 146.722 55.4891 147.639 55.1506C148.556 54.8059 149.584 54.6335 150.723 54.6335C151.511 54.6335 152.246 54.7259 152.93 54.9105C153.619 55.0952 154.213 55.3814 154.711 55.7692C155.216 56.157 155.579 56.6555 155.801 57.2649C156.029 57.8681 156.075 58.5914 155.939 59.4347L154.342 69H150.612L150.944 67.0334H150.834C150.532 67.4766 150.163 67.8674 149.726 68.206C149.289 68.5384 148.787 68.8 148.221 68.9908C147.654 69.1754 147.02 69.2678 146.319 69.2678ZM147.898 66.5533C148.47 66.5533 148.996 66.4394 149.476 66.2116C149.963 65.9777 150.363 65.6638 150.677 65.2699C150.997 64.8759 151.2 64.4297 151.286 63.9311L151.526 62.4261C151.403 62.5062 151.224 62.5769 150.991 62.6385C150.763 62.7 150.514 62.7585 150.243 62.8139C149.978 62.8632 149.71 62.9093 149.439 62.9524C149.169 62.9893 148.925 63.0263 148.71 63.0632C148.236 63.1309 147.811 63.2386 147.436 63.3864C147.06 63.5341 146.756 63.7341 146.522 63.9865C146.288 64.2327 146.143 64.5405 146.088 64.9098C146.002 65.4453 146.128 65.8546 146.466 66.1378C146.811 66.4148 147.288 66.5533 147.898 66.5533ZM157.394 69L159.757 54.8182H163.57L163.155 57.2926H163.303C163.709 56.4124 164.254 55.7476 164.937 55.2983C165.626 54.8428 166.368 54.6151 167.162 54.6151C167.359 54.6151 167.565 54.6274 167.781 54.652C168.002 54.6705 168.199 54.7012 168.372 54.7443L167.781 58.2436C167.608 58.1821 167.362 58.1328 167.042 58.0959C166.728 58.0528 166.43 58.0312 166.146 58.0312C165.574 58.0312 165.042 58.1574 164.549 58.4098C164.057 58.656 163.641 59.0007 163.303 59.4439C162.97 59.8871 162.752 60.398 162.647 60.9766L161.327 69H157.394ZM168.032 69L170.396 54.8182H174.329L171.966 69H168.032ZM172.769 52.9716C172.184 52.9716 171.701 52.7777 171.319 52.3899C170.944 51.996 170.79 51.5282 170.858 50.9865C170.925 50.4325 171.19 49.9647 171.652 49.5831C172.113 49.1953 172.636 49.0014 173.221 49.0014C173.806 49.0014 174.283 49.1953 174.652 49.5831C175.022 49.9647 175.176 50.4325 175.114 50.9865C175.052 51.5282 174.791 51.996 174.329 52.3899C173.874 52.7777 173.354 52.9716 172.769 52.9716ZM181.542 69.277C180.096 69.277 178.899 68.9692 177.951 68.3537C177.003 67.732 176.335 66.8703 175.947 65.7685C175.566 64.6605 175.495 63.371 175.735 61.8999C175.969 60.4472 176.455 59.1761 177.194 58.0866C177.932 56.9972 178.871 56.1508 180.01 55.5476C181.148 54.9382 182.432 54.6335 183.86 54.6335C185.3 54.6335 186.494 54.9444 187.442 55.5661C188.39 56.1816 189.058 57.0433 189.446 58.1513C189.834 59.2592 189.907 60.5488 189.667 62.0199C189.427 63.4664 188.935 64.7344 188.19 65.8239C187.445 66.9134 186.507 67.7628 185.374 68.3722C184.242 68.9754 182.964 69.277 181.542 69.277ZM181.93 66.2301C182.595 66.2301 183.183 66.0424 183.694 65.6669C184.211 65.2853 184.639 64.7682 184.977 64.1158C185.322 63.4571 185.562 62.7124 185.697 61.8814C185.833 61.0627 185.842 60.3364 185.725 59.7024C185.608 59.0623 185.362 58.5575 184.986 58.1882C184.617 57.8189 184.109 57.6342 183.463 57.6342C182.798 57.6342 182.207 57.825 181.69 58.2067C181.173 58.5821 180.745 59.0992 180.407 59.7578C180.068 60.4164 179.831 61.1643 179.696 62.0014C179.567 62.8139 179.557 63.5402 179.668 64.1804C179.779 64.8144 180.022 65.3161 180.398 65.6854C180.773 66.0485 181.284 66.2301 181.93 66.2301ZM202.287 69.2308C201.203 69.2308 200.271 68.9538 199.489 68.3999C198.713 67.8397 198.159 67.018 197.827 65.9347C197.501 64.8452 197.47 63.5095 197.735 61.9276C198.006 60.3026 198.492 58.9515 199.194 57.8743C199.895 56.791 200.726 55.9815 201.686 55.446C202.647 54.9044 203.647 54.6335 204.687 54.6335C205.475 54.6335 206.112 54.7689 206.598 55.0398C207.091 55.3045 207.469 55.6368 207.734 56.0369C207.999 56.4309 208.183 56.8187 208.288 57.2003H208.408L209.599 50.0909H213.523L210.384 69H206.506L206.885 66.7287H206.718C206.472 67.1226 206.146 67.5135 205.74 67.9013C205.34 68.2829 204.853 68.5999 204.281 68.8523C203.715 69.1046 203.05 69.2308 202.287 69.2308ZM204.022 66.1009C204.65 66.1009 205.217 65.9285 205.721 65.5838C206.226 65.233 206.651 64.7436 206.995 64.1158C207.34 63.4879 207.58 62.7524 207.716 61.9091C207.857 61.0658 207.86 60.3333 207.725 59.7116C207.589 59.09 207.325 58.6098 206.931 58.2713C206.543 57.9328 206.029 57.7635 205.389 57.7635C204.743 57.7635 204.17 57.9389 203.672 58.2898C203.179 58.6406 202.77 59.1269 202.444 59.7486C202.123 60.3703 201.896 61.0904 201.76 61.9091C201.625 62.7339 201.616 63.4633 201.733 64.0973C201.85 64.7251 202.099 65.2176 202.48 65.5746C202.862 65.9254 203.376 66.1009 204.022 66.1009ZM220.035 69.277C218.582 69.277 217.379 68.9815 216.425 68.3906C215.47 67.7936 214.8 66.9503 214.412 65.8608C214.03 64.7652 213.965 63.4695 214.218 61.9737C214.464 60.5149 214.96 59.2346 215.704 58.1328C216.455 57.031 217.397 56.1723 218.53 55.5568C219.662 54.9413 220.924 54.6335 222.315 54.6335C223.251 54.6335 224.097 54.7843 224.854 55.0859C225.617 55.3814 226.251 55.8307 226.756 56.4339C227.261 57.031 227.606 57.7789 227.79 58.6776C227.981 59.5762 227.978 60.6288 227.781 61.8352L227.606 62.9155H215.64L216.018 60.478H224.291C224.383 59.9117 224.346 59.41 224.18 58.973C224.014 58.536 223.737 58.1944 223.349 57.9482C222.961 57.6958 222.484 57.5696 221.918 57.5696C221.34 57.5696 220.798 57.7112 220.293 57.9943C219.788 58.2775 219.364 58.6499 219.019 59.1115C218.68 59.567 218.462 60.0625 218.363 60.598L217.93 63.017C217.806 63.7618 217.831 64.3804 218.003 64.8729C218.182 65.3653 218.49 65.7346 218.927 65.9808C219.364 66.2209 219.918 66.3409 220.589 66.3409C221.026 66.3409 221.435 66.2794 221.817 66.1562C222.204 66.0331 222.549 65.8516 222.851 65.6115C223.152 65.3653 223.398 65.0606 223.589 64.6974L227.181 64.9375C226.849 65.8116 226.344 66.5748 225.667 67.2273C224.99 67.8736 224.174 68.3783 223.22 68.7415C222.272 69.0985 221.21 69.277 220.035 69.277ZM253.97 56.7109H249.982C249.994 56.1816 249.926 55.7138 249.779 55.3075C249.631 54.8951 249.409 54.5443 249.114 54.255C248.825 53.9657 248.471 53.7472 248.052 53.5994C247.633 53.4455 247.163 53.3686 246.639 53.3686C245.63 53.3686 244.704 53.621 243.86 54.1257C243.017 54.6304 242.306 55.3629 241.727 56.3232C241.149 57.2772 240.749 58.4313 240.527 59.7855C240.312 61.0904 240.324 62.183 240.564 63.0632C240.804 63.9434 241.229 64.6082 241.838 65.0575C242.454 65.5007 243.22 65.7223 244.137 65.7223C244.704 65.7223 245.242 65.6515 245.753 65.5099C246.264 65.3622 246.729 65.1529 247.147 64.8821C247.572 64.6051 247.941 64.2696 248.255 63.8757C248.575 63.4818 248.825 63.0355 249.003 62.5369H253.019C252.767 63.4048 252.373 64.242 251.838 65.0483C251.308 65.8546 250.653 66.5748 249.871 67.2088C249.089 67.8366 248.2 68.3352 247.203 68.7045C246.205 69.0739 245.113 69.2585 243.925 69.2585C242.208 69.2585 240.733 68.8646 239.502 68.0767C238.277 67.2888 237.394 66.1532 236.852 64.6697C236.311 63.1863 236.209 61.3982 236.548 59.3054C236.886 57.2803 237.548 55.563 238.533 54.1534C239.524 52.7377 240.727 51.6636 242.143 50.9311C243.565 50.1986 245.085 49.8324 246.704 49.8324C247.83 49.8324 248.849 49.9863 249.76 50.294C250.671 50.6018 251.447 51.0511 252.087 51.642C252.733 52.2268 253.219 52.9439 253.546 53.7933C253.872 54.6428 254.013 55.6153 253.97 56.7109ZM261.167 69.277C259.721 69.277 258.524 68.9692 257.576 68.3537C256.628 67.732 255.96 66.8703 255.572 65.7685C255.191 64.6605 255.12 63.371 255.36 61.8999C255.594 60.4472 256.08 59.1761 256.819 58.0866C257.557 56.9972 258.496 56.1508 259.635 55.5476C260.773 54.9382 262.057 54.6335 263.485 54.6335C264.925 54.6335 266.119 54.9444 267.067 55.5661C268.015 56.1816 268.683 57.0433 269.071 58.1513C269.459 59.2592 269.532 60.5488 269.292 62.0199C269.052 63.4664 268.56 64.7344 267.815 65.8239C267.07 66.9134 266.132 67.7628 264.999 68.3722C263.867 68.9754 262.589 69.277 261.167 69.277ZM261.555 66.2301C262.22 66.2301 262.808 66.0424 263.319 65.6669C263.836 65.2853 264.264 64.7682 264.602 64.1158C264.947 63.4571 265.187 62.7124 265.322 61.8814C265.458 61.0627 265.467 60.3364 265.35 59.7024C265.233 59.0623 264.987 58.5575 264.611 58.1882C264.242 57.8189 263.734 57.6342 263.088 57.6342C262.423 57.6342 261.832 57.825 261.315 58.2067C260.798 58.5821 260.37 59.0992 260.032 59.7578C259.693 60.4164 259.456 61.1643 259.321 62.0014C259.192 62.8139 259.182 63.5402 259.293 64.1804C259.404 64.8144 259.647 65.3161 260.023 65.6854C260.398 66.0485 260.909 66.2301 261.555 66.2301ZM276.005 60.8011L274.638 69H270.714L273.078 54.8182H276.817L276.411 57.3203H276.568C277.017 56.4893 277.651 55.8338 278.47 55.3537C279.295 54.8736 280.233 54.6335 281.286 54.6335C282.271 54.6335 283.093 54.849 283.751 55.2798C284.416 55.7107 284.884 56.3232 285.155 57.1172C285.432 57.9112 285.478 58.8622 285.293 59.9702L283.779 69H279.846L281.24 60.6719C281.381 59.804 281.271 59.1269 280.907 58.6406C280.55 58.1482 279.975 57.902 279.181 57.902C278.652 57.902 278.165 58.0159 277.722 58.2436C277.279 58.4714 276.907 58.8037 276.605 59.2408C276.309 59.6716 276.109 60.1918 276.005 60.8011ZM296.767 54.8182L296.278 57.7727H287.728L288.227 54.8182H296.767ZM290.72 51.4205H294.653L292.456 64.642C292.394 65.0052 292.403 65.2884 292.483 65.4915C292.563 65.6884 292.696 65.8269 292.88 65.907C293.071 65.987 293.299 66.027 293.564 66.027C293.748 66.027 293.936 66.0116 294.127 65.9808C294.318 65.9439 294.462 65.9162 294.561 65.8977L294.708 68.8246C294.487 68.8923 294.188 68.9661 293.813 69.0462C293.444 69.1262 293.007 69.1754 292.502 69.1939C291.542 69.2308 290.729 69.1046 290.064 68.8153C289.4 68.5199 288.922 68.0675 288.633 67.4581C288.344 66.8487 288.282 66.0824 288.449 65.1591L290.72 51.4205ZM300.973 69.2678C300.074 69.2678 299.296 69.1108 298.637 68.7969C297.985 68.4768 297.504 68.0028 297.197 67.375C296.889 66.7472 296.812 65.9685 296.966 65.0391C297.101 64.2512 297.357 63.5926 297.732 63.0632C298.114 62.5277 298.579 62.0968 299.126 61.7706C299.674 61.4444 300.281 61.1951 300.945 61.0227C301.616 60.8504 302.309 60.7334 303.023 60.6719C303.848 60.5857 304.518 60.5026 305.036 60.4226C305.559 60.3426 305.95 60.2287 306.208 60.081C306.467 59.9271 306.624 59.6993 306.679 59.3977V59.3423C306.771 58.7637 306.664 58.3144 306.356 57.9943C306.054 57.6681 305.571 57.505 304.906 57.505C304.205 57.505 303.607 57.6589 303.115 57.9666C302.629 58.2744 302.281 58.6652 302.072 59.1392L298.489 58.8438C298.809 57.982 299.293 57.2372 299.939 56.6094C300.591 55.9754 301.376 55.4891 302.293 55.1506C303.21 54.8059 304.238 54.6335 305.377 54.6335C306.165 54.6335 306.901 54.7259 307.584 54.9105C308.273 55.0952 308.867 55.3814 309.366 55.7692C309.871 56.157 310.234 56.6555 310.455 57.2649C310.683 57.8681 310.729 58.5914 310.594 59.4347L308.996 69H305.266L305.599 67.0334H305.488C305.186 67.4766 304.817 67.8674 304.38 68.206C303.943 68.5384 303.441 68.8 302.875 68.9908C302.309 69.1754 301.675 69.2678 300.973 69.2678ZM302.552 66.5533C303.124 66.5533 303.651 66.4394 304.131 66.2116C304.617 65.9777 305.017 65.6638 305.331 65.2699C305.651 64.8759 305.854 64.4297 305.94 63.9311L306.18 62.4261C306.057 62.5062 305.879 62.5769 305.645 62.6385C305.417 62.7 305.168 62.7585 304.897 62.8139C304.632 62.8632 304.365 62.9093 304.094 62.9524C303.823 62.9893 303.58 63.0263 303.364 63.0632C302.89 63.1309 302.466 63.2386 302.09 63.3864C301.715 63.5341 301.41 63.7341 301.176 63.9865C300.942 64.2327 300.798 64.5405 300.742 64.9098C300.656 65.4453 300.782 65.8546 301.121 66.1378C301.465 66.4148 301.942 66.5533 302.552 66.5533ZM318.419 69.277C316.96 69.277 315.76 68.9692 314.818 68.3537C313.882 67.732 313.227 66.8703 312.851 65.7685C312.482 64.6667 312.417 63.3987 312.657 61.9645C312.891 60.5118 313.381 59.2377 314.125 58.142C314.87 57.0402 315.815 56.1816 316.96 55.5661C318.111 54.9444 319.404 54.6335 320.838 54.6335C322.075 54.6335 323.121 54.8582 323.977 55.3075C324.833 55.7569 325.46 56.3878 325.86 57.2003C326.261 58.0128 326.396 58.9669 326.267 60.0625H322.564C322.57 59.3608 322.389 58.7914 322.02 58.3544C321.65 57.9174 321.109 57.6989 320.395 57.6989C319.779 57.6989 319.213 57.8651 318.696 58.1974C318.185 58.5237 317.751 59.0007 317.394 59.6286C317.043 60.2564 316.797 61.0166 316.655 61.9091C316.507 62.8139 316.504 63.5833 316.646 64.2173C316.788 64.8513 317.058 65.3345 317.458 65.6669C317.859 65.9993 318.363 66.1655 318.973 66.1655C319.428 66.1655 319.85 66.0732 320.238 65.8885C320.632 65.7038 320.976 65.4361 321.272 65.0852C321.567 64.7282 321.795 64.3004 321.955 63.8018H325.667C325.414 64.8913 324.956 65.8454 324.291 66.6641C323.632 67.4827 322.804 68.1229 321.807 68.5845C320.81 69.0462 319.681 69.277 318.419 69.277ZM337.215 54.8182L336.725 57.7727H328.176L328.674 54.8182H337.215ZM331.167 51.4205H335.1L332.903 64.642C332.841 65.0052 332.851 65.2884 332.931 65.4915C333.011 65.6884 333.143 65.8269 333.328 65.907C333.518 65.987 333.746 66.027 334.011 66.027C334.195 66.027 334.383 66.0116 334.574 65.9808C334.765 65.9439 334.91 65.9162 335.008 65.8977L335.156 68.8246C334.934 68.8923 334.636 68.9661 334.26 69.0462C333.891 69.1262 333.454 69.1754 332.949 69.1939C331.989 69.2308 331.176 69.1046 330.512 68.8153C329.847 68.5199 329.37 68.0675 329.08 67.4581C328.791 66.8487 328.73 66.0824 328.896 65.1591L331.167 51.4205ZM343.687 69.277C342.24 69.277 341.043 68.9692 340.095 68.3537C339.147 67.732 338.48 66.8703 338.092 65.7685C337.71 64.6605 337.639 63.371 337.879 61.8999C338.113 60.4472 338.6 59.1761 339.338 58.0866C340.077 56.9972 341.016 56.1508 342.154 55.5476C343.293 54.9382 344.576 54.6335 346.004 54.6335C347.445 54.6335 348.639 54.9444 349.587 55.5661C350.535 56.1816 351.203 57.0433 351.59 58.1513C351.978 59.2592 352.052 60.5488 351.812 62.0199C351.572 63.4664 351.079 64.7344 350.335 65.8239C349.59 66.9134 348.651 67.7628 347.519 68.3722C346.386 68.9754 345.109 69.277 343.687 69.277ZM344.075 66.2301C344.74 66.2301 345.327 66.0424 345.838 65.6669C346.355 65.2853 346.783 64.7682 347.122 64.1158C347.466 63.4571 347.706 62.7124 347.842 61.8814C347.977 61.0627 347.986 60.3364 347.869 59.7024C347.753 59.0623 347.506 58.5575 347.131 58.1882C346.762 57.8189 346.254 57.6342 345.607 57.6342C344.943 57.6342 344.352 57.825 343.835 58.2067C343.318 58.5821 342.89 59.0992 342.551 59.7578C342.213 60.4164 341.976 61.1643 341.84 62.0014C341.711 62.8139 341.702 63.5402 341.813 64.1804C341.923 64.8144 342.167 65.3161 342.542 65.6854C342.918 66.0485 343.428 66.2301 344.075 66.2301Z" fill="#1F2937"/>
<path d="M39.3068 119.818V130H38.1136L32.5653 122.006H32.4659V130H31.233V119.818H32.4261L37.9943 127.832H38.0938V119.818H39.3068ZM44.7172 130.159C44.0278 130.159 43.4229 129.995 42.9025 129.667C42.3855 129.339 41.9811 128.88 41.6895 128.29C41.4011 127.7 41.2569 127.01 41.2569 126.222C41.2569 125.426 41.4011 124.732 41.6895 124.138C41.9811 123.545 42.3855 123.085 42.9025 122.756C43.4229 122.428 44.0278 122.264 44.7172 122.264C45.4065 122.264 46.0098 122.428 46.5268 122.756C47.0472 123.085 47.4515 123.545 47.7399 124.138C48.0315 124.732 48.1774 125.426 48.1774 126.222C48.1774 127.01 48.0315 127.7 47.7399 128.29C47.4515 128.88 47.0472 129.339 46.5268 129.667C46.0098 129.995 45.4065 130.159 44.7172 130.159ZM44.7172 129.105C45.2408 129.105 45.6717 128.971 46.0098 128.702C46.3478 128.434 46.5981 128.081 46.7605 127.643C46.9229 127.206 47.0041 126.732 47.0041 126.222C47.0041 125.711 46.9229 125.236 46.7605 124.795C46.5981 124.354 46.3478 123.998 46.0098 123.726C45.6717 123.454 45.2408 123.318 44.7172 123.318C44.1935 123.318 43.7626 123.454 43.4245 123.726C43.0865 123.998 42.8362 124.354 42.6738 124.795C42.5114 125.236 42.4302 125.711 42.4302 126.222C42.4302 126.732 42.5114 127.206 42.6738 127.643C42.8362 128.081 43.0865 128.434 43.4245 128.702C43.7626 128.971 44.1935 129.105 44.7172 129.105ZM49.9684 130V122.364H51.1019V123.557H51.2013C51.3604 123.149 51.6173 122.833 51.9719 122.607C52.3266 122.379 52.7525 122.264 53.2496 122.264C53.7534 122.264 54.1727 122.379 54.5075 122.607C54.8455 122.833 55.109 123.149 55.2979 123.557H55.3775C55.573 123.162 55.8664 122.849 56.2575 122.617C56.6486 122.382 57.1175 122.264 57.6644 122.264C58.3472 122.264 58.9057 122.478 59.3398 122.906C59.774 123.33 59.9911 123.991 59.9911 124.889V130H58.8178V124.889C58.8178 124.326 58.6637 123.923 58.3555 123.681C58.0472 123.439 57.6843 123.318 57.2667 123.318C56.7298 123.318 56.3138 123.481 56.0188 123.805C55.7238 124.127 55.5763 124.535 55.5763 125.028V130H54.3832V124.77C54.3832 124.336 54.2423 123.986 53.9606 123.721C53.6789 123.452 53.3159 123.318 52.8718 123.318C52.5669 123.318 52.2818 123.399 52.0167 123.562C51.7549 123.724 51.5427 123.95 51.3803 124.238C51.2212 124.523 51.1417 124.853 51.1417 125.227V130H49.9684ZM62.2955 130V119.818H63.4688V123.577H63.5682C63.6544 123.444 63.7737 123.275 63.9261 123.07C64.0819 122.861 64.304 122.675 64.5923 122.513C64.884 122.347 65.2784 122.264 65.7756 122.264C66.4186 122.264 66.9853 122.425 67.4759 122.746C67.9664 123.068 68.3492 123.524 68.6243 124.114C68.8994 124.704 69.0369 125.4 69.0369 126.202C69.0369 127.01 68.8994 127.711 68.6243 128.305C68.3492 128.895 67.968 129.352 67.4808 129.677C66.9936 129.998 66.4318 130.159 65.7955 130.159C65.3049 130.159 64.9122 130.078 64.6172 129.915C64.3222 129.75 64.0952 129.562 63.9361 129.354C63.777 129.142 63.6544 128.966 63.5682 128.827H63.429V130H62.2955ZM63.4489 126.182C63.4489 126.759 63.5334 127.267 63.7024 127.708C63.8714 128.146 64.1184 128.489 64.4432 128.737C64.768 128.982 65.1657 129.105 65.6364 129.105C66.1269 129.105 66.5362 128.976 66.8643 128.717C67.1958 128.455 67.4444 128.104 67.6101 127.663C67.7791 127.219 67.8636 126.725 67.8636 126.182C67.8636 125.645 67.7808 125.161 67.6151 124.73C67.4527 124.296 67.2057 123.953 66.8743 123.701C66.5462 123.446 66.1335 123.318 65.6364 123.318C65.1591 123.318 64.758 123.439 64.4332 123.681C64.1084 123.92 63.8632 124.254 63.6974 124.685C63.5317 125.113 63.4489 125.612 63.4489 126.182ZM70.8317 130V122.364H71.9652V123.517H72.0447C72.1839 123.139 72.4358 122.833 72.8004 122.597C73.165 122.362 73.576 122.244 74.0334 122.244C74.1196 122.244 74.2273 122.246 74.3565 122.249C74.4858 122.253 74.5836 122.258 74.6499 122.264V123.457C74.6101 123.447 74.5189 123.433 74.3764 123.413C74.2372 123.389 74.0897 123.378 73.9339 123.378C73.5627 123.378 73.2313 123.456 72.9396 123.612C72.6513 123.764 72.4226 123.976 72.2536 124.248C72.0878 124.516 72.005 124.823 72.005 125.168V130H70.8317ZM79.0099 130.159C78.2741 130.159 77.6394 129.997 77.1058 129.672C76.5755 129.344 76.1662 128.886 75.8778 128.3C75.5928 127.71 75.4503 127.024 75.4503 126.241C75.4503 125.459 75.5928 124.77 75.8778 124.173C76.1662 123.573 76.5672 123.106 77.081 122.771C77.598 122.433 78.2012 122.264 78.8906 122.264C79.2884 122.264 79.6811 122.33 80.0689 122.463C80.4567 122.596 80.8097 122.811 81.1278 123.109C81.446 123.404 81.6996 123.795 81.8885 124.283C82.0774 124.77 82.1719 125.37 82.1719 126.082V126.58H76.2855V125.565H80.9787C80.9787 125.134 80.8925 124.75 80.7202 124.412C80.5511 124.074 80.3092 123.807 79.9943 123.612C79.6828 123.416 79.3149 123.318 78.8906 123.318C78.4233 123.318 78.0189 123.434 77.6776 123.666C77.3395 123.895 77.0793 124.193 76.897 124.561C76.7147 124.929 76.6236 125.323 76.6236 125.744V126.42C76.6236 126.997 76.723 127.486 76.9219 127.887C77.1241 128.285 77.4041 128.588 77.7621 128.797C78.12 129.002 78.536 129.105 79.0099 129.105C79.3182 129.105 79.5966 129.062 79.8452 128.976C80.0971 128.886 80.3142 128.754 80.4964 128.578C80.6787 128.399 80.8196 128.177 80.919 127.912L82.0526 128.23C81.9332 128.615 81.7327 128.953 81.451 129.244C81.1693 129.533 80.8213 129.758 80.407 129.92C79.9927 130.08 79.527 130.159 79.0099 130.159ZM90.9964 130.159C90.2805 130.159 89.6641 129.99 89.147 129.652C88.63 129.314 88.2322 128.848 87.9538 128.255C87.6754 127.662 87.5362 126.984 87.5362 126.222C87.5362 125.446 87.6787 124.762 87.9638 124.168C88.2521 123.572 88.6532 123.106 89.1669 122.771C89.6839 122.433 90.2872 122.264 90.9766 122.264C91.5135 122.264 91.9974 122.364 92.4283 122.562C92.8591 122.761 93.2121 123.04 93.4872 123.398C93.7623 123.756 93.933 124.173 93.9993 124.651H92.826C92.7365 124.303 92.5376 123.994 92.2294 123.726C91.9245 123.454 91.5135 123.318 90.9964 123.318C90.5391 123.318 90.138 123.437 89.7933 123.676C89.4519 123.911 89.1851 124.245 88.9929 124.675C88.804 125.103 88.7095 125.605 88.7095 126.182C88.7095 126.772 88.8023 127.286 88.9879 127.723C89.1768 128.161 89.442 128.5 89.7834 128.742C90.1281 128.984 90.5324 129.105 90.9964 129.105C91.3014 129.105 91.5781 129.052 91.8267 128.946C92.0753 128.84 92.2857 128.688 92.4581 128.489C92.6304 128.29 92.7531 128.051 92.826 127.773H93.9993C93.933 128.223 93.7689 128.629 93.5071 128.991C93.2486 129.349 92.9055 129.634 92.478 129.846C92.0537 130.055 91.5599 130.159 90.9964 130.159ZM98.8168 130.159C98.1274 130.159 97.5225 129.995 97.0021 129.667C96.4851 129.339 96.0807 128.88 95.7891 128.29C95.5007 127.7 95.3565 127.01 95.3565 126.222C95.3565 125.426 95.5007 124.732 95.7891 124.138C96.0807 123.545 96.4851 123.085 97.0021 122.756C97.5225 122.428 98.1274 122.264 98.8168 122.264C99.5062 122.264 100.109 122.428 100.626 122.756C101.147 123.085 101.551 123.545 101.839 124.138C102.131 124.732 102.277 125.426 102.277 126.222C102.277 127.01 102.131 127.7 101.839 128.29C101.551 128.88 101.147 129.339 100.626 129.667C100.109 129.995 99.5062 130.159 98.8168 130.159ZM98.8168 129.105C99.3404 129.105 99.7713 128.971 100.109 128.702C100.447 128.434 100.698 128.081 100.86 127.643C101.022 127.206 101.104 126.732 101.104 126.222C101.104 125.711 101.022 125.236 100.86 124.795C100.698 124.354 100.447 123.998 100.109 123.726C99.7713 123.454 99.3404 123.318 98.8168 123.318C98.2931 123.318 97.8622 123.454 97.5241 123.726C97.1861 123.998 96.9358 124.354 96.7734 124.795C96.611 125.236 96.5298 125.711 96.5298 126.222C96.5298 126.732 96.611 127.206 96.7734 127.643C96.9358 128.081 97.1861 128.434 97.5241 128.702C97.8622 128.971 98.2931 129.105 98.8168 129.105ZM104.068 130V122.364H105.202V123.557H105.301C105.46 123.149 105.717 122.833 106.072 122.607C106.426 122.379 106.852 122.264 107.349 122.264C107.853 122.264 108.272 122.379 108.607 122.607C108.945 122.833 109.209 123.149 109.398 123.557H109.477C109.673 123.162 109.966 122.849 110.357 122.617C110.748 122.382 111.217 122.264 111.764 122.264C112.447 122.264 113.005 122.478 113.439 122.906C113.874 123.33 114.091 123.991 114.091 124.889V130H112.917V124.889C112.917 124.326 112.763 123.923 112.455 123.681C112.147 123.439 111.784 123.318 111.366 123.318C110.829 123.318 110.413 123.481 110.118 123.805C109.823 124.127 109.676 124.535 109.676 125.028V130H108.483V124.77C108.483 124.336 108.342 123.986 108.06 123.721C107.778 123.452 107.416 123.318 106.971 123.318C106.666 123.318 106.381 123.399 106.116 123.562C105.854 123.724 105.642 123.95 105.48 124.238C105.321 124.523 105.241 124.853 105.241 125.227V130H104.068ZM116.236 132.864V122.364H117.369V123.577H117.509C117.595 123.444 117.714 123.275 117.867 123.07C118.022 122.861 118.244 122.675 118.533 122.513C118.825 122.347 119.219 122.264 119.716 122.264C120.359 122.264 120.926 122.425 121.416 122.746C121.907 123.068 122.29 123.524 122.565 124.114C122.84 124.704 122.977 125.4 122.977 126.202C122.977 127.01 122.84 127.711 122.565 128.305C122.29 128.895 121.909 129.352 121.421 129.677C120.934 129.998 120.372 130.159 119.736 130.159C119.245 130.159 118.853 130.078 118.558 129.915C118.263 129.75 118.036 129.562 117.877 129.354C117.718 129.142 117.595 128.966 117.509 128.827H117.409V132.864H116.236ZM117.389 126.182C117.389 126.759 117.474 127.267 117.643 127.708C117.812 128.146 118.059 128.489 118.384 128.737C118.709 128.982 119.106 129.105 119.577 129.105C120.067 129.105 120.477 128.976 120.805 128.717C121.136 128.455 121.385 128.104 121.551 127.663C121.72 127.219 121.804 126.725 121.804 126.182C121.804 125.645 121.721 125.161 121.556 124.73C121.393 124.296 121.146 123.953 120.815 123.701C120.487 123.446 120.074 123.318 119.577 123.318C119.1 123.318 118.699 123.439 118.374 123.681C118.049 123.92 117.804 124.254 117.638 124.685C117.472 125.113 117.389 125.612 117.389 126.182ZM125.941 119.818V130H124.767V119.818H125.941ZM131.291 130.159C130.555 130.159 129.921 129.997 129.387 129.672C128.857 129.344 128.447 128.886 128.159 128.3C127.874 127.71 127.732 127.024 127.732 126.241C127.732 125.459 127.874 124.77 128.159 124.173C128.447 123.573 128.848 123.106 129.362 122.771C129.879 122.433 130.482 122.264 131.172 122.264C131.57 122.264 131.962 122.33 132.35 122.463C132.738 122.596 133.091 122.811 133.409 123.109C133.727 123.404 133.981 123.795 134.17 124.283C134.359 124.77 134.453 125.37 134.453 126.082V126.58H128.567V125.565H133.26C133.26 125.134 133.174 124.75 133.001 124.412C132.832 124.074 132.59 123.807 132.276 123.612C131.964 123.416 131.596 123.318 131.172 123.318C130.705 123.318 130.3 123.434 129.959 123.666C129.621 123.895 129.361 124.193 129.178 124.561C128.996 124.929 128.905 125.323 128.905 125.744V126.42C128.905 126.997 129.004 127.486 129.203 127.887C129.405 128.285 129.685 128.588 130.043 128.797C130.401 129.002 130.817 129.105 131.291 129.105C131.599 129.105 131.878 129.062 132.126 128.976C132.378 128.886 132.595 128.754 132.778 128.578C132.96 128.399 133.101 128.177 133.2 127.912L134.334 128.23C134.214 128.615 134.014 128.953 133.732 129.244C133.451 129.533 133.103 129.758 132.688 129.92C132.274 130.08 131.808 130.159 131.291 130.159ZM139.559 122.364V123.358H135.602V122.364H139.559ZM136.755 120.534H137.928V127.812C137.928 128.144 137.976 128.393 138.072 128.558C138.172 128.721 138.298 128.83 138.45 128.886C138.606 128.939 138.77 128.966 138.942 128.966C139.072 128.966 139.178 128.959 139.261 128.946C139.344 128.929 139.41 128.916 139.46 128.906L139.698 129.96C139.619 129.99 139.508 130.02 139.365 130.05C139.223 130.083 139.042 130.099 138.823 130.099C138.492 130.099 138.167 130.028 137.849 129.886C137.534 129.743 137.272 129.526 137.063 129.234C136.858 128.943 136.755 128.575 136.755 128.131V120.534ZM144.344 130.159C143.655 130.159 143.05 129.995 142.529 129.667C142.012 129.339 141.608 128.88 141.316 128.29C141.028 127.7 140.884 127.01 140.884 126.222C140.884 125.426 141.028 124.732 141.316 124.138C141.608 123.545 142.012 123.085 142.529 122.756C143.05 122.428 143.655 122.264 144.344 122.264C145.033 122.264 145.637 122.428 146.154 122.756C146.674 123.085 147.078 123.545 147.367 124.138C147.658 124.732 147.804 125.426 147.804 126.222C147.804 127.01 147.658 127.7 147.367 128.29C147.078 128.88 146.674 129.339 146.154 129.667C145.637 129.995 145.033 130.159 144.344 130.159ZM144.344 129.105C144.868 129.105 145.299 128.971 145.637 128.702C145.975 128.434 146.225 128.081 146.387 127.643C146.55 127.206 146.631 126.732 146.631 126.222C146.631 125.711 146.55 125.236 146.387 124.795C146.225 124.354 145.975 123.998 145.637 123.726C145.299 123.454 144.868 123.318 144.344 123.318C143.82 123.318 143.39 123.454 143.051 123.726C142.713 123.998 142.463 124.354 142.301 124.795C142.138 125.236 142.057 125.711 142.057 126.222C142.057 126.732 142.138 127.206 142.301 127.643C142.463 128.081 142.713 128.434 143.051 128.702C143.39 128.971 143.82 129.105 144.344 129.105Z" fill="#374151"/>
<path d="M337 140H38C33.5817 140 30 143.582 30 148V172C30 176.418 33.5817 180 38 180H337C341.418 180 345 176.418 345 172V148C345 143.582 341.418 140 337 140Z" fill="white" stroke="#D1D5DB"/>
<path d="M39.4261 193H38.1932C38.1203 192.645 37.9927 192.334 37.8104 192.065C37.6314 191.797 37.4126 191.571 37.1541 191.389C36.8989 191.204 36.6155 191.064 36.304 190.972C35.9924 190.879 35.6676 190.832 35.3295 190.832C34.7131 190.832 34.1546 190.988 33.6541 191.3C33.157 191.611 32.7609 192.07 32.4659 192.677C32.1742 193.283 32.0284 194.027 32.0284 194.909C32.0284 195.791 32.1742 196.535 32.4659 197.141C32.7609 197.748 33.157 198.207 33.6541 198.518C34.1546 198.83 34.7131 198.986 35.3295 198.986C35.6676 198.986 35.9924 198.939 36.304 198.847C36.6155 198.754 36.8989 198.616 37.1541 198.434C37.4126 198.248 37.6314 198.021 37.8104 197.753C37.9927 197.481 38.1203 197.17 38.1932 196.818H39.4261C39.3333 197.339 39.1643 197.804 38.919 198.215C38.6738 198.626 38.3688 198.976 38.0043 199.264C37.6397 199.549 37.2304 199.766 36.7763 199.915C36.3255 200.065 35.8433 200.139 35.3295 200.139C34.4612 200.139 33.6889 199.927 33.0128 199.503C32.3366 199.079 31.8047 198.475 31.4169 197.693C31.0291 196.911 30.8352 195.983 30.8352 194.909C30.8352 193.835 31.0291 192.907 31.4169 192.125C31.8047 191.343 32.3366 190.74 33.0128 190.315C33.6889 189.891 34.4612 189.679 35.3295 189.679C35.8433 189.679 36.3255 189.754 36.7763 189.903C37.2304 190.052 37.6397 190.271 38.0043 190.559C38.3688 190.844 38.6738 191.192 38.919 191.603C39.1643 192.011 39.3333 192.476 39.4261 193ZM44.3617 200.159C43.6723 200.159 43.0674 199.995 42.5471 199.667C42.03 199.339 41.6257 198.88 41.334 198.29C41.0456 197.7 40.9015 197.01 40.9015 196.222C40.9015 195.426 41.0456 194.732 41.334 194.138C41.6257 193.545 42.03 193.085 42.5471 192.756C43.0674 192.428 43.6723 192.264 44.3617 192.264C45.0511 192.264 45.6543 192.428 46.1713 192.756C46.6917 193.085 47.0961 193.545 47.3844 194.138C47.6761 194.732 47.8219 195.426 47.8219 196.222C47.8219 197.01 47.6761 197.7 47.3844 198.29C47.0961 198.88 46.6917 199.339 46.1713 199.667C45.6543 199.995 45.0511 200.159 44.3617 200.159ZM44.3617 199.105C44.8854 199.105 45.3162 198.971 45.6543 198.702C45.9924 198.434 46.2426 198.081 46.405 197.643C46.5674 197.206 46.6486 196.732 46.6486 196.222C46.6486 195.711 46.5674 195.236 46.405 194.795C46.2426 194.354 45.9924 193.998 45.6543 193.726C45.3162 193.454 44.8854 193.318 44.3617 193.318C43.838 193.318 43.4071 193.454 43.0691 193.726C42.731 193.998 42.4808 194.354 42.3184 194.795C42.156 195.236 42.0748 195.711 42.0748 196.222C42.0748 196.732 42.156 197.206 42.3184 197.643C42.4808 198.081 42.731 198.434 43.0691 198.702C43.4071 198.971 43.838 199.105 44.3617 199.105ZM49.6129 200V192.364H50.7464V193.517H50.826C50.9652 193.139 51.2171 192.833 51.5817 192.597C51.9463 192.362 52.3572 192.244 52.8146 192.244C52.9008 192.244 53.0085 192.246 53.1378 192.249C53.267 192.253 53.3648 192.258 53.4311 192.264V193.457C53.3913 193.447 53.3002 193.433 53.1577 193.413C53.0185 193.389 52.871 193.378 52.7152 193.378C52.344 193.378 52.0125 193.456 51.7209 193.612C51.4325 193.764 51.2038 193.976 51.0348 194.248C50.8691 194.516 50.7862 194.823 50.7862 195.168V200H49.6129ZM54.8219 200V192.364H55.9554V193.517H56.035C56.1742 193.139 56.4261 192.833 56.7907 192.597C57.1552 192.362 57.5662 192.244 58.0236 192.244C58.1098 192.244 58.2175 192.246 58.3468 192.249C58.476 192.253 58.5738 192.258 58.6401 192.264V193.457C58.6003 193.447 58.5092 193.433 58.3667 193.413C58.2275 193.389 58.08 193.378 57.9242 193.378C57.553 193.378 57.2215 193.456 56.9299 193.612C56.6415 193.764 56.4128 193.976 56.2438 194.248C56.0781 194.516 55.9952 194.823 55.9952 195.168V200H54.8219ZM63.0002 200.159C62.2644 200.159 61.6297 199.997 61.0961 199.672C60.5658 199.344 60.1564 198.886 59.8681 198.3C59.583 197.71 59.4405 197.024 59.4405 196.241C59.4405 195.459 59.583 194.77 59.8681 194.173C60.1564 193.573 60.5575 193.106 61.0712 192.771C61.5882 192.433 62.1915 192.264 62.8809 192.264C63.2786 192.264 63.6713 192.33 64.0591 192.463C64.4469 192.596 64.7999 192.811 65.1181 193.109C65.4363 193.404 65.6898 193.795 65.8787 194.283C66.0676 194.77 66.1621 195.37 66.1621 196.082V196.58H60.2757V195.565H64.9689C64.9689 195.134 64.8828 194.75 64.7104 194.412C64.5414 194.074 64.2994 193.807 63.9846 193.612C63.673 193.416 63.3051 193.318 62.8809 193.318C62.4135 193.318 62.0092 193.434 61.6678 193.666C61.3297 193.895 61.0695 194.193 60.8873 194.561C60.705 194.929 60.6138 195.323 60.6138 195.744V196.42C60.6138 196.997 60.7132 197.486 60.9121 197.887C61.1143 198.285 61.3944 198.588 61.7523 198.797C62.1103 199.002 62.5262 199.105 63.0002 199.105C63.3084 199.105 63.5868 199.062 63.8354 198.976C64.0873 198.886 64.3044 198.754 64.4867 198.578C64.669 198.399 64.8098 198.177 64.9093 197.912L66.0428 198.23C65.9235 198.615 65.723 198.953 65.4412 199.244C65.1595 199.533 64.8115 199.758 64.3972 199.92C63.9829 200.08 63.5172 200.159 63.0002 200.159ZM71.0492 200.159C70.3598 200.159 69.7549 199.995 69.2346 199.667C68.7175 199.339 68.3132 198.88 68.0215 198.29C67.7331 197.7 67.589 197.01 67.589 196.222C67.589 195.426 67.7331 194.732 68.0215 194.138C68.3132 193.545 68.7175 193.085 69.2346 192.756C69.7549 192.428 70.3598 192.264 71.0492 192.264C71.7386 192.264 72.3418 192.428 72.8588 192.756C73.3792 193.085 73.7836 193.545 74.0719 194.138C74.3636 194.732 74.5094 195.426 74.5094 196.222C74.5094 197.01 74.3636 197.7 74.0719 198.29C73.7836 198.88 73.3792 199.339 72.8588 199.667C72.3418 199.995 71.7386 200.159 71.0492 200.159ZM71.0492 199.105C71.5729 199.105 72.0037 198.971 72.3418 198.702C72.6799 198.434 72.9301 198.081 73.0925 197.643C73.2549 197.206 73.3361 196.732 73.3361 196.222C73.3361 195.711 73.2549 195.236 73.0925 194.795C72.9301 194.354 72.6799 193.998 72.3418 193.726C72.0037 193.454 71.5729 193.318 71.0492 193.318C70.5255 193.318 70.0946 193.454 69.7566 193.726C69.4185 193.998 69.1683 194.354 69.0059 194.795C68.8435 195.236 68.7623 195.711 68.7623 196.222C68.7623 196.732 68.8435 197.206 69.0059 197.643C69.1683 198.081 69.4185 198.434 69.7566 198.702C70.0946 198.971 70.5255 199.105 71.0492 199.105ZM83.4396 200.159C82.7038 200.159 82.0691 199.997 81.5355 199.672C81.0052 199.344 80.5959 198.886 80.3075 198.3C80.0225 197.71 79.88 197.024 79.88 196.241C79.88 195.459 80.0225 194.77 80.3075 194.173C80.5959 193.573 80.9969 193.106 81.5107 192.771C82.0277 192.433 82.6309 192.264 83.3203 192.264C83.718 192.264 84.1108 192.33 84.4986 192.463C84.8864 192.596 85.2393 192.811 85.5575 193.109C85.8757 193.404 86.1293 193.795 86.3182 194.283C86.5071 194.77 86.6016 195.37 86.6016 196.082V196.58H80.7152V195.565H85.4084C85.4084 195.134 85.3222 194.75 85.1499 194.412C84.9808 194.074 84.7389 193.807 84.424 193.612C84.1125 193.416 83.7446 193.318 83.3203 193.318C82.853 193.318 82.4486 193.434 82.1072 193.666C81.7692 193.895 81.509 194.193 81.3267 194.561C81.1444 194.929 81.0533 195.323 81.0533 195.744V196.42C81.0533 196.997 81.1527 197.486 81.3516 197.887C81.5537 198.285 81.8338 198.588 82.1918 198.797C82.5497 199.002 82.9657 199.105 83.4396 199.105C83.7479 199.105 84.0263 199.062 84.2749 198.976C84.5268 198.886 84.7438 198.754 84.9261 198.578C85.1084 198.399 85.2493 198.177 85.3487 197.912L86.4822 198.23C86.3629 198.615 86.1624 198.953 85.8807 199.244C85.599 199.533 85.2509 199.758 84.8366 199.92C84.4223 200.08 83.9567 200.159 83.4396 200.159ZM89.5597 189.818V200H88.3864V189.818H89.5597ZM94.9103 200.159C94.1745 200.159 93.5398 199.997 93.0062 199.672C92.4759 199.344 92.0666 198.886 91.7782 198.3C91.4932 197.71 91.3507 197.024 91.3507 196.241C91.3507 195.459 91.4932 194.77 91.7782 194.173C92.0666 193.573 92.4676 193.106 92.9814 192.771C93.4984 192.433 94.1016 192.264 94.791 192.264C95.1887 192.264 95.5815 192.33 95.9693 192.463C96.3571 192.596 96.7101 192.811 97.0282 193.109C97.3464 193.404 97.6 193.795 97.7889 194.283C97.9778 194.77 98.0723 195.37 98.0723 196.082V196.58H92.1859V195.565H96.8791C96.8791 195.134 96.7929 194.75 96.6206 194.412C96.4515 194.074 96.2096 193.807 95.8947 193.612C95.5832 193.416 95.2153 193.318 94.791 193.318C94.3237 193.318 93.9193 193.434 93.5779 193.666C93.2399 193.895 92.9797 194.193 92.7974 194.561C92.6151 194.929 92.524 195.323 92.524 195.744V196.42C92.524 196.997 92.6234 197.486 92.8223 197.887C93.0244 198.285 93.3045 198.588 93.6625 198.797C94.0204 199.002 94.4364 199.105 94.9103 199.105C95.2186 199.105 95.497 199.062 95.7456 198.976C95.9975 198.886 96.2145 198.754 96.3968 198.578C96.5791 198.399 96.72 198.177 96.8194 197.912L97.9529 198.23C97.8336 198.615 97.6331 198.953 97.3514 199.244C97.0697 199.533 96.7217 199.758 96.3074 199.92C95.8931 200.08 95.4274 200.159 94.9103 200.159ZM102.959 200.159C102.243 200.159 101.627 199.99 101.11 199.652C100.593 199.314 100.195 198.848 99.9167 198.255C99.6383 197.662 99.4991 196.984 99.4991 196.222C99.4991 195.446 99.6416 194.762 99.9267 194.168C100.215 193.572 100.616 193.106 101.13 192.771C101.647 192.433 102.25 192.264 102.939 192.264C103.476 192.264 103.96 192.364 104.391 192.562C104.822 192.761 105.175 193.04 105.45 193.398C105.725 193.756 105.896 194.173 105.962 194.651H104.789C104.699 194.303 104.501 193.994 104.192 193.726C103.887 193.454 103.476 193.318 102.959 193.318C102.502 193.318 102.101 193.437 101.756 193.676C101.415 193.911 101.148 194.245 100.956 194.675C100.767 195.103 100.672 195.605 100.672 196.182C100.672 196.772 100.765 197.286 100.951 197.723C101.14 198.161 101.405 198.5 101.746 198.742C102.091 198.984 102.495 199.105 102.959 199.105C103.264 199.105 103.541 199.052 103.79 198.946C104.038 198.84 104.249 198.688 104.421 198.489C104.593 198.29 104.716 198.051 104.789 197.773H105.962C105.896 198.223 105.732 198.629 105.47 198.991C105.211 199.349 104.868 199.634 104.441 199.846C104.017 200.055 103.523 200.159 102.959 200.159ZM110.998 192.364V193.358H107.041V192.364H110.998ZM108.194 190.534H109.368V197.812C109.368 198.144 109.416 198.393 109.512 198.558C109.611 198.721 109.737 198.83 109.89 198.886C110.046 198.939 110.21 198.966 110.382 198.966C110.511 198.966 110.617 198.959 110.7 198.946C110.783 198.929 110.849 198.916 110.899 198.906L111.138 199.96C111.058 199.99 110.947 200.02 110.805 200.05C110.662 200.083 110.481 200.099 110.263 200.099C109.931 200.099 109.606 200.028 109.288 199.886C108.973 199.743 108.711 199.526 108.503 199.234C108.297 198.943 108.194 198.575 108.194 198.131V190.534ZM112.763 200V192.364H113.897V193.517H113.976C114.116 193.139 114.367 192.833 114.732 192.597C115.097 192.362 115.508 192.244 115.965 192.244C116.051 192.244 116.159 192.246 116.288 192.249C116.417 192.253 116.515 192.258 116.581 192.264V193.457C116.542 193.447 116.451 193.433 116.308 193.413C116.169 193.389 116.021 193.378 115.866 193.378C115.494 193.378 115.163 193.456 114.871 193.612C114.583 193.764 114.354 193.976 114.185 194.248C114.019 194.516 113.937 194.823 113.937 195.168V200H112.763ZM120.842 200.159C120.153 200.159 119.548 199.995 119.028 199.667C118.51 199.339 118.106 198.88 117.814 198.29C117.526 197.7 117.382 197.01 117.382 196.222C117.382 195.426 117.526 194.732 117.814 194.138C118.106 193.545 118.51 193.085 119.028 192.756C119.548 192.428 120.153 192.264 120.842 192.264C121.532 192.264 122.135 192.428 122.652 192.756C123.172 193.085 123.577 193.545 123.865 194.138C124.157 194.732 124.302 195.426 124.302 196.222C124.302 197.01 124.157 197.7 123.865 198.29C123.577 198.88 123.172 199.339 122.652 199.667C122.135 199.995 121.532 200.159 120.842 200.159ZM120.842 199.105C121.366 199.105 121.797 198.971 122.135 198.702C122.473 198.434 122.723 198.081 122.885 197.643C123.048 197.206 123.129 196.732 123.129 196.222C123.129 195.711 123.048 195.236 122.885 194.795C122.723 194.354 122.473 193.998 122.135 193.726C121.797 193.454 121.366 193.318 120.842 193.318C120.318 193.318 119.888 193.454 119.55 193.726C119.211 193.998 118.961 194.354 118.799 194.795C118.636 195.236 118.555 195.711 118.555 196.222C118.555 196.732 118.636 197.206 118.799 197.643C118.961 198.081 119.211 198.434 119.55 198.702C119.888 198.971 120.318 199.105 120.842 199.105ZM120.305 191.33L121.518 189.023H122.89L121.339 191.33H120.305ZM127.267 195.406V200H126.093V192.364H127.227V193.557H127.326C127.505 193.169 127.777 192.857 128.142 192.622C128.506 192.384 128.977 192.264 129.554 192.264C130.071 192.264 130.523 192.37 130.911 192.582C131.299 192.791 131.6 193.109 131.816 193.537C132.031 193.961 132.139 194.498 132.139 195.148V200H130.966V195.227C130.966 194.627 130.81 194.16 130.498 193.825C130.187 193.487 129.759 193.318 129.216 193.318C128.841 193.318 128.506 193.399 128.211 193.562C127.92 193.724 127.689 193.961 127.52 194.273C127.351 194.584 127.267 194.962 127.267 195.406ZM134.283 200V192.364H135.456V200H134.283ZM134.879 191.091C134.651 191.091 134.454 191.013 134.288 190.857C134.125 190.701 134.044 190.514 134.044 190.295C134.044 190.077 134.125 189.889 134.288 189.734C134.454 189.578 134.651 189.5 134.879 189.5C135.108 189.5 135.304 189.578 135.466 189.734C135.632 189.889 135.715 190.077 135.715 190.295C135.715 190.514 135.632 190.701 135.466 190.857C135.304 191.013 135.108 191.091 134.879 191.091ZM140.707 200.159C139.991 200.159 139.375 199.99 138.858 199.652C138.341 199.314 137.943 198.848 137.665 198.255C137.386 197.662 137.247 196.984 137.247 196.222C137.247 195.446 137.39 194.762 137.675 194.168C137.963 193.572 138.364 193.106 138.878 192.771C139.395 192.433 139.998 192.264 140.688 192.264C141.224 192.264 141.708 192.364 142.139 192.562C142.57 192.761 142.923 193.04 143.198 193.398C143.473 193.756 143.644 194.173 143.71 194.651H142.537C142.447 194.303 142.249 193.994 141.94 193.726C141.635 193.454 141.224 193.318 140.707 193.318C140.25 193.318 139.849 193.437 139.504 193.676C139.163 193.911 138.896 194.245 138.704 194.675C138.515 195.103 138.42 195.605 138.42 196.182C138.42 196.772 138.513 197.286 138.699 197.723C138.888 198.161 139.153 198.5 139.494 198.742C139.839 198.984 140.243 199.105 140.707 199.105C141.012 199.105 141.289 199.052 141.538 198.946C141.786 198.84 141.997 198.688 142.169 198.489C142.341 198.29 142.464 198.051 142.537 197.773H143.71C143.644 198.223 143.48 198.629 143.218 198.991C142.96 199.349 142.616 199.634 142.189 199.846C141.765 200.055 141.271 200.159 140.707 200.159ZM148.528 200.159C147.838 200.159 147.233 199.995 146.713 199.667C146.196 199.339 145.792 198.88 145.5 198.29C145.212 197.7 145.067 197.01 145.067 196.222C145.067 195.426 145.212 194.732 145.5 194.138C145.792 193.545 146.196 193.085 146.713 192.756C147.233 192.428 147.838 192.264 148.528 192.264C149.217 192.264 149.82 192.428 150.337 192.756C150.858 193.085 151.262 193.545 151.55 194.138C151.842 194.732 151.988 195.426 151.988 196.222C151.988 197.01 151.842 197.7 151.55 198.29C151.262 198.88 150.858 199.339 150.337 199.667C149.82 199.995 149.217 200.159 148.528 200.159ZM148.528 199.105C149.051 199.105 149.482 198.971 149.82 198.702C150.158 198.434 150.409 198.081 150.571 197.643C150.733 197.206 150.815 196.732 150.815 196.222C150.815 195.711 150.733 195.236 150.571 194.795C150.409 194.354 150.158 193.998 149.82 193.726C149.482 193.454 149.051 193.318 148.528 193.318C148.004 193.318 147.573 193.454 147.235 193.726C146.897 193.998 146.647 194.354 146.484 194.795C146.322 195.236 146.241 195.711 146.241 196.222C146.241 196.732 146.322 197.206 146.484 197.643C146.647 198.081 146.897 198.434 147.235 198.702C147.573 198.971 148.004 199.105 148.528 199.105Z" fill="#374151"/>
<path d="M337 210H38C33.5817 210 30 213.582 30 218V242C30 246.418 33.5817 250 38 250H337C341.418 250 345 246.418 345 242V218C345 213.582 341.418 210 337 210Z" fill="white" stroke="#D1D5DB"/>
<path d="M39.3068 259.818V270H38.1136L32.5653 262.006H32.4659V270H31.233V259.818H32.4261L37.9943 267.832H38.0938V259.818H39.3068ZM46.4274 266.878V262.364H47.6007V270H46.4274V268.707H46.3478C46.1689 269.095 45.8904 269.425 45.5126 269.697C45.1348 269.965 44.6575 270.099 44.0808 270.099C43.6035 270.099 43.1793 269.995 42.8081 269.786C42.4368 269.574 42.1452 269.256 41.9331 268.832C41.7209 268.404 41.6149 267.866 41.6149 267.216V262.364H42.7882V267.136C42.7882 267.693 42.944 268.137 43.2555 268.469C43.5704 268.8 43.9714 268.966 44.4586 268.966C44.7503 268.966 45.0469 268.891 45.3485 268.742C45.6535 268.593 45.9087 268.364 46.1142 268.056C46.323 267.748 46.4274 267.355 46.4274 266.878ZM44.0808 261.33L45.2939 259.023H46.666L45.1149 261.33H44.0808ZM49.7496 270V262.364H50.8832V263.557H50.9826C51.1417 263.149 51.3986 262.833 51.7532 262.607C52.1078 262.379 52.5337 262.264 53.0309 262.264C53.5347 262.264 53.954 262.379 54.2887 262.607C54.6268 262.833 54.8903 263.149 55.0792 263.557H55.1587C55.3543 263.162 55.6476 262.849 56.0387 262.617C56.4298 262.382 56.8988 262.264 57.4457 262.264C58.1284 262.264 58.6869 262.478 59.1211 262.906C59.5553 263.33 59.7724 263.991 59.7724 264.889V270H58.5991V264.889C58.5991 264.326 58.445 263.923 58.1367 263.681C57.8285 263.439 57.4656 263.318 57.0479 263.318C56.511 263.318 56.0951 263.481 55.8001 263.805C55.5051 264.127 55.3576 264.535 55.3576 265.028V270H54.1644V264.77C54.1644 264.336 54.0236 263.986 53.7418 263.721C53.4601 263.452 53.0972 263.318 52.6531 263.318C52.3481 263.318 52.0631 263.399 51.7979 263.562C51.5361 263.724 51.324 263.95 51.1616 264.238C51.0025 264.523 50.9229 264.853 50.9229 265.227V270H49.7496ZM65.1193 270.159C64.3835 270.159 63.7488 269.997 63.2152 269.672C62.6849 269.344 62.2756 268.886 61.9872 268.3C61.7022 267.71 61.5597 267.024 61.5597 266.241C61.5597 265.459 61.7022 264.77 61.9872 264.173C62.2756 263.573 62.6766 263.106 63.1903 262.771C63.7074 262.433 64.3106 262.264 65 262.264C65.3977 262.264 65.7905 262.33 66.1783 262.463C66.5661 262.596 66.919 262.811 67.2372 263.109C67.5554 263.404 67.8089 263.795 67.9979 264.283C68.1868 264.77 68.2812 265.37 68.2812 266.082V266.58H62.3949V265.565H67.0881C67.0881 265.134 67.0019 264.75 66.8295 264.412C66.6605 264.074 66.4186 263.807 66.1037 263.612C65.7921 263.416 65.4242 263.318 65 263.318C64.5327 263.318 64.1283 263.434 63.7869 263.666C63.4489 263.895 63.1887 264.193 63.0064 264.561C62.8241 264.929 62.733 265.323 62.733 265.744V266.42C62.733 266.997 62.8324 267.486 63.0312 267.887C63.2334 268.285 63.5135 268.588 63.8714 268.797C64.2294 269.002 64.6454 269.105 65.1193 269.105C65.4276 269.105 65.706 269.062 65.9545 268.976C66.2064 268.886 66.4235 268.754 66.6058 268.578C66.7881 268.399 66.929 268.177 67.0284 267.912L68.1619 268.23C68.0426 268.615 67.8421 268.953 67.5604 269.244C67.2786 269.533 66.9306 269.758 66.5163 269.92C66.102 270.08 65.6364 270.159 65.1193 270.159ZM70.0661 270V262.364H71.1996V263.517H71.2791C71.4183 263.139 71.6702 262.833 72.0348 262.597C72.3994 262.362 72.8104 262.244 73.2678 262.244C73.3539 262.244 73.4616 262.246 73.5909 262.249C73.7202 262.253 73.8179 262.258 73.8842 262.264V263.457C73.8445 263.447 73.7533 263.433 73.6108 263.413C73.4716 263.389 73.3241 263.378 73.1683 263.378C72.7971 263.378 72.4657 263.456 72.174 263.612C71.8857 263.764 71.657 263.976 71.4879 264.248C71.3222 264.516 71.2393 264.823 71.2393 265.168V270H70.0661ZM78.1449 270.159C77.4555 270.159 76.8506 269.995 76.3303 269.667C75.8132 269.339 75.4089 268.88 75.1172 268.29C74.8288 267.7 74.6847 267.01 74.6847 266.222C74.6847 265.426 74.8288 264.732 75.1172 264.138C75.4089 263.545 75.8132 263.085 76.3303 262.756C76.8506 262.428 77.4555 262.264 78.1449 262.264C78.8343 262.264 79.4375 262.428 79.9545 262.756C80.4749 263.085 80.8793 263.545 81.1676 264.138C81.4593 264.732 81.6051 265.426 81.6051 266.222C81.6051 267.01 81.4593 267.7 81.1676 268.29C80.8793 268.88 80.4749 269.339 79.9545 269.667C79.4375 269.995 78.8343 270.159 78.1449 270.159ZM78.1449 269.105C78.6686 269.105 79.0994 268.971 79.4375 268.702C79.7756 268.434 80.0258 268.081 80.1882 267.643C80.3506 267.206 80.4318 266.732 80.4318 266.222C80.4318 265.711 80.3506 265.236 80.1882 264.795C80.0258 264.354 79.7756 263.998 79.4375 263.726C79.0994 263.454 78.6686 263.318 78.1449 263.318C77.6212 263.318 77.1903 263.454 76.8523 263.726C76.5142 263.998 76.264 264.354 76.1016 264.795C75.9392 265.236 75.858 265.711 75.858 266.222C75.858 266.732 75.9392 267.206 76.1016 267.643C76.264 268.081 76.5142 268.434 76.8523 268.702C77.1903 268.971 77.6212 269.105 78.1449 269.105ZM90.6547 262.364V263.358H86.6973V262.364H90.6547ZM87.8507 260.534H89.024V267.812C89.024 268.144 89.072 268.393 89.1681 268.558C89.2676 268.721 89.3935 268.83 89.546 268.886C89.7018 268.939 89.8658 268.966 90.0382 268.966C90.1674 268.966 90.2735 268.959 90.3564 268.946C90.4392 268.929 90.5055 268.916 90.5552 268.906L90.7939 269.96C90.7143 269.99 90.6033 270.02 90.4608 270.05C90.3182 270.083 90.1376 270.099 89.9189 270.099C89.5874 270.099 89.2626 270.028 88.9444 269.886C88.6296 269.743 88.3677 269.526 88.1589 269.234C87.9534 268.943 87.8507 268.575 87.8507 268.131V260.534ZM95.5392 270.159C94.8034 270.159 94.1687 269.997 93.6351 269.672C93.1048 269.344 92.6955 268.886 92.4071 268.3C92.1221 267.71 91.9796 267.024 91.9796 266.241C91.9796 265.459 92.1221 264.77 92.4071 264.173C92.6955 263.573 93.0965 263.106 93.6103 262.771C94.1273 262.433 94.7305 262.264 95.4199 262.264C95.8176 262.264 96.2104 262.33 96.5982 262.463C96.986 262.596 97.339 262.811 97.6571 263.109C97.9753 263.404 98.2289 263.795 98.4178 264.283C98.6067 264.77 98.7012 265.37 98.7012 266.082V266.58H92.8148V265.565H97.508C97.508 265.134 97.4218 264.75 97.2495 264.412C97.0804 264.074 96.8385 263.807 96.5236 263.612C96.2121 263.416 95.8442 263.318 95.4199 263.318C94.9526 263.318 94.5482 263.434 94.2069 263.666C93.8688 263.895 93.6086 264.193 93.4263 264.561C93.244 264.929 93.1529 265.323 93.1529 265.744V266.42C93.1529 266.997 93.2523 267.486 93.4512 267.887C93.6533 268.285 93.9334 268.588 94.2914 268.797C94.6493 269.002 95.0653 269.105 95.5392 269.105C95.8475 269.105 96.1259 269.062 96.3745 268.976C96.6264 268.886 96.8435 268.754 97.0257 268.578C97.208 268.399 97.3489 268.177 97.4483 267.912L98.5819 268.23C98.4625 268.615 98.262 268.953 97.9803 269.244C97.6986 269.533 97.3506 269.758 96.9363 269.92C96.522 270.08 96.0563 270.159 95.5392 270.159ZM101.659 259.818V270H100.486V259.818H101.659ZM107.01 270.159C106.274 270.159 105.639 269.997 105.106 269.672C104.576 269.344 104.166 268.886 103.878 268.3C103.593 267.71 103.45 267.024 103.45 266.241C103.45 265.459 103.593 264.77 103.878 264.173C104.166 263.573 104.567 263.106 105.081 262.771C105.598 262.433 106.201 262.264 106.891 262.264C107.288 262.264 107.681 262.33 108.069 262.463C108.457 262.596 108.81 262.811 109.128 263.109C109.446 263.404 109.7 263.795 109.888 264.283C110.077 264.77 110.172 265.37 110.172 266.082V266.58H104.286V265.565H108.979C108.979 265.134 108.893 264.75 108.72 264.412C108.551 264.074 108.309 263.807 107.994 263.612C107.683 263.416 107.315 263.318 106.891 263.318C106.423 263.318 106.019 263.434 105.678 263.666C105.339 263.895 105.079 264.193 104.897 264.561C104.715 264.929 104.624 265.323 104.624 265.744V266.42C104.624 266.997 104.723 267.486 104.922 267.887C105.124 268.285 105.404 268.588 105.762 268.797C106.12 269.002 106.536 269.105 107.01 269.105C107.318 269.105 107.597 269.062 107.845 268.976C108.097 268.886 108.314 268.754 108.496 268.578C108.679 268.399 108.82 268.177 108.919 267.912L110.053 268.23C109.933 268.615 109.733 268.953 109.451 269.244C109.169 269.533 108.821 269.758 108.407 269.92C107.993 270.08 107.527 270.159 107.01 270.159ZM115.357 262.364V263.358H111.241V262.364H115.357ZM112.474 270V261.31C112.474 260.872 112.576 260.508 112.782 260.216C112.987 259.924 113.254 259.705 113.582 259.56C113.911 259.414 114.257 259.341 114.621 259.341C114.91 259.341 115.145 259.364 115.327 259.411C115.51 259.457 115.646 259.5 115.735 259.54L115.397 260.554C115.337 260.534 115.254 260.509 115.148 260.479C115.046 260.45 114.91 260.435 114.741 260.435C114.353 260.435 114.073 260.532 113.901 260.728C113.732 260.924 113.647 261.21 113.647 261.588V270H112.474ZM119.789 270.159C119.1 270.159 118.495 269.995 117.975 269.667C117.458 269.339 117.053 268.88 116.762 268.29C116.473 267.7 116.329 267.01 116.329 266.222C116.329 265.426 116.473 264.732 116.762 264.138C117.053 263.545 117.458 263.085 117.975 262.756C118.495 262.428 119.1 262.264 119.789 262.264C120.479 262.264 121.082 262.428 121.599 262.756C122.119 263.085 122.524 263.545 122.812 264.138C123.104 264.732 123.25 265.426 123.25 266.222C123.25 267.01 123.104 267.7 122.812 268.29C122.524 268.88 122.119 269.339 121.599 269.667C121.082 269.995 120.479 270.159 119.789 270.159ZM119.789 269.105C120.313 269.105 120.744 268.971 121.082 268.702C121.42 268.434 121.67 268.081 121.833 267.643C121.995 267.206 122.076 266.732 122.076 266.222C122.076 265.711 121.995 265.236 121.833 264.795C121.67 264.354 121.42 263.998 121.082 263.726C120.744 263.454 120.313 263.318 119.789 263.318C119.266 263.318 118.835 263.454 118.497 263.726C118.159 263.998 117.908 264.354 117.746 264.795C117.584 265.236 117.502 265.711 117.502 266.222C117.502 266.732 117.584 267.206 117.746 267.643C117.908 268.081 118.159 268.434 118.497 268.702C118.835 268.971 119.266 269.105 119.789 269.105ZM119.252 261.33L120.466 259.023H121.838L120.287 261.33H119.252ZM126.214 265.406V270H125.041V262.364H126.174V263.557H126.274C126.453 263.169 126.724 262.857 127.089 262.622C127.454 262.384 127.924 262.264 128.501 262.264C129.018 262.264 129.47 262.37 129.858 262.582C130.246 262.791 130.548 263.109 130.763 263.537C130.978 263.961 131.086 264.498 131.086 265.148V270H129.913V265.227C129.913 264.627 129.757 264.16 129.445 263.825C129.134 263.487 128.706 263.318 128.163 263.318C127.788 263.318 127.454 263.399 127.159 263.562C126.867 263.724 126.637 263.961 126.468 264.273C126.298 264.584 126.214 264.962 126.214 265.406ZM133.23 270V262.364H134.403V270H133.23ZM133.827 261.091C133.598 261.091 133.401 261.013 133.235 260.857C133.073 260.701 132.991 260.514 132.991 260.295C132.991 260.077 133.073 259.889 133.235 259.734C133.401 259.578 133.598 259.5 133.827 259.5C134.055 259.5 134.251 259.578 134.413 259.734C134.579 259.889 134.662 260.077 134.662 260.295C134.662 260.514 134.579 260.701 134.413 260.857C134.251 261.013 134.055 261.091 133.827 261.091ZM139.655 270.159C138.939 270.159 138.322 269.99 137.805 269.652C137.288 269.314 136.89 268.848 136.612 268.255C136.334 267.662 136.194 266.984 136.194 266.222C136.194 265.446 136.337 264.762 136.622 264.168C136.91 263.572 137.311 263.106 137.825 262.771C138.342 262.433 138.945 262.264 139.635 262.264C140.172 262.264 140.656 262.364 141.086 262.562C141.517 262.761 141.87 263.04 142.145 263.398C142.421 263.756 142.591 264.173 142.657 264.651H141.484C141.395 264.303 141.196 263.994 140.888 263.726C140.583 263.454 140.172 263.318 139.655 263.318C139.197 263.318 138.796 263.437 138.452 263.676C138.11 263.911 137.843 264.245 137.651 264.675C137.462 265.103 137.368 265.605 137.368 266.182C137.368 266.772 137.461 267.286 137.646 267.723C137.835 268.161 138.1 268.5 138.442 268.742C138.786 268.984 139.191 269.105 139.655 269.105C139.96 269.105 140.236 269.052 140.485 268.946C140.733 268.84 140.944 268.688 141.116 268.489C141.289 268.29 141.411 268.051 141.484 267.773H142.657C142.591 268.223 142.427 268.629 142.165 268.991C141.907 269.349 141.564 269.634 141.136 269.846C140.712 270.055 140.218 270.159 139.655 270.159ZM147.475 270.159C146.786 270.159 146.181 269.995 145.66 269.667C145.143 269.339 144.739 268.88 144.447 268.29C144.159 267.7 144.015 267.01 144.015 266.222C144.015 265.426 144.159 264.732 144.447 264.138C144.739 263.545 145.143 263.085 145.66 262.756C146.181 262.428 146.786 262.264 147.475 262.264C148.164 262.264 148.768 262.428 149.285 262.756C149.805 263.085 150.209 263.545 150.498 264.138C150.789 264.732 150.935 265.426 150.935 266.222C150.935 267.01 150.789 267.7 150.498 268.29C150.209 268.88 149.805 269.339 149.285 269.667C148.768 269.995 148.164 270.159 147.475 270.159ZM147.475 269.105C147.999 269.105 148.43 268.971 148.768 268.702C149.106 268.434 149.356 268.081 149.518 267.643C149.681 267.206 149.762 266.732 149.762 266.222C149.762 265.711 149.681 265.236 149.518 264.795C149.356 264.354 149.106 263.998 148.768 263.726C148.43 263.454 147.999 263.318 147.475 263.318C146.951 263.318 146.52 263.454 146.182 263.726C145.844 263.998 145.594 264.354 145.432 264.795C145.269 265.236 145.188 265.711 145.188 266.222C145.188 266.732 145.269 267.206 145.432 267.643C145.594 268.081 145.844 268.434 146.182 268.702C146.52 268.971 146.951 269.105 147.475 269.105Z" fill="#374151"/>
<path d="M337 280H38C33.5817 280 30 283.582 30 288V312C30 316.418 33.5817 320 38 320H337C341.418 320 345 316.418 345 312V288C345 283.582 341.418 280 337 280Z" fill="white" stroke="#D1D5DB"/>
<path d="M31.233 329.818H32.7045L36.1648 338.27H36.2841L39.7443 329.818H41.2159V340H40.0625V332.264H39.9631L36.7812 340H35.6676L32.4858 332.264H32.3864V340H31.233V329.818ZM46.7306 340.159C45.9949 340.159 45.3601 339.997 44.8265 339.672C44.2962 339.344 43.8869 338.886 43.5985 338.3C43.3135 337.71 43.171 337.024 43.171 336.241C43.171 335.459 43.3135 334.77 43.5985 334.173C43.8869 333.573 44.2879 333.106 44.8017 332.771C45.3187 332.433 45.9219 332.264 46.6113 332.264C47.0091 332.264 47.4018 332.33 47.7896 332.463C48.1774 332.596 48.5304 332.811 48.8485 333.109C49.1667 333.404 49.4203 333.795 49.6092 334.283C49.7981 334.77 49.8926 335.37 49.8926 336.082V336.58H44.0062V335.565H48.6994C48.6994 335.134 48.6132 334.75 48.4409 334.412C48.2718 334.074 48.0299 333.807 47.715 333.612C47.4035 333.416 47.0356 333.318 46.6113 333.318C46.144 333.318 45.7396 333.434 45.3983 333.666C45.0602 333.895 44.8 334.193 44.6177 334.561C44.4354 334.929 44.3443 335.323 44.3443 335.744V336.42C44.3443 336.997 44.4437 337.486 44.6426 337.887C44.8448 338.285 45.1248 338.588 45.4828 338.797C45.8407 339.002 46.2567 339.105 46.7306 339.105C47.0389 339.105 47.3173 339.062 47.5659 338.976C47.8178 338.886 48.0349 338.754 48.2172 338.578C48.3994 338.399 48.5403 338.177 48.6397 337.912L49.7733 338.23C49.6539 338.615 49.4534 338.953 49.1717 339.244C48.89 339.533 48.542 339.758 48.1277 339.92C47.7134 340.08 47.2477 340.159 46.7306 340.159ZM52.8507 335.406V340H51.6774V332.364H52.8109V333.557H52.9103C53.0893 333.169 53.3611 332.857 53.7257 332.622C54.0903 332.384 54.5609 332.264 55.1376 332.264C55.6547 332.264 56.1071 332.37 56.4949 332.582C56.8826 332.791 57.1842 333.109 57.3997 333.537C57.6151 333.961 57.7228 334.498 57.7228 335.148V340H56.5495V335.227C56.5495 334.627 56.3938 334.16 56.0822 333.825C55.7707 333.487 55.3431 333.318 54.7995 333.318C54.425 333.318 54.0903 333.399 53.7953 333.562C53.5036 333.724 53.2733 333.961 53.1042 334.273C52.9352 334.584 52.8507 334.962 52.8507 335.406ZM65.2759 334.074L64.2219 334.372C64.1557 334.196 64.0579 334.026 63.9286 333.86C63.8027 333.691 63.6303 333.552 63.4116 333.442C63.1928 333.333 62.9128 333.278 62.5714 333.278C62.104 333.278 61.7146 333.386 61.4031 333.602C61.0948 333.814 60.9407 334.084 60.9407 334.412C60.9407 334.704 61.0468 334.934 61.2589 335.103C61.471 335.272 61.8024 335.413 62.2532 335.526L63.3867 335.804C64.0695 335.97 64.5782 336.223 64.913 336.565C65.2478 336.903 65.4151 337.339 65.4151 337.872C65.4151 338.31 65.2892 338.701 65.0373 339.045C64.7887 339.39 64.4407 339.662 63.9933 339.861C63.5458 340.06 63.0254 340.159 62.4322 340.159C61.6533 340.159 61.0086 339.99 60.4982 339.652C59.9878 339.314 59.6647 338.82 59.5288 338.17L60.6424 337.892C60.7485 338.303 60.949 338.611 61.244 338.817C61.5423 339.022 61.9317 339.125 62.4123 339.125C62.9592 339.125 63.3933 339.009 63.7148 338.777C64.0397 338.542 64.2021 338.26 64.2021 337.932C64.2021 337.667 64.1093 337.445 63.9237 337.266C63.738 337.083 63.453 336.947 63.0685 336.858L61.7958 336.56C61.0965 336.394 60.5827 336.137 60.2546 335.789C59.9298 335.438 59.7674 334.999 59.7674 334.472C59.7674 334.041 59.8884 333.66 60.1303 333.328C60.3756 332.997 60.7087 332.737 61.1296 332.548C61.5539 332.359 62.0344 332.264 62.5714 332.264C63.3271 332.264 63.9203 332.43 64.3512 332.761C64.7854 333.093 65.0936 333.53 65.2759 334.074ZM69.4284 340.179C68.9445 340.179 68.5054 340.088 68.111 339.906C67.7166 339.72 67.4033 339.453 67.1713 339.105C66.9393 338.754 66.8233 338.33 66.8233 337.832C66.8233 337.395 66.9095 337.04 67.0819 336.768C67.2542 336.493 67.4846 336.278 67.7729 336.122C68.0613 335.966 68.3794 335.85 68.7275 335.774C69.0788 335.695 69.4318 335.632 69.7864 335.585C70.2504 335.526 70.6266 335.481 70.915 335.451C71.2066 335.418 71.4187 335.363 71.5513 335.287C71.6872 335.211 71.7551 335.078 71.7551 334.889V334.849C71.7551 334.359 71.6209 333.978 71.3525 333.706C71.0873 333.434 70.6846 333.298 70.1444 333.298C69.5842 333.298 69.1451 333.421 68.8269 333.666C68.5087 333.911 68.285 334.173 68.1557 334.452L67.0421 334.054C67.2409 333.59 67.5061 333.229 67.8375 332.97C68.1723 332.708 68.5369 332.526 68.9313 332.423C69.329 332.317 69.7201 332.264 70.1046 332.264C70.3498 332.264 70.6316 332.294 70.9498 332.354C71.2712 332.41 71.5811 332.528 71.8794 332.707C72.181 332.886 72.4313 333.156 72.6301 333.517C72.829 333.878 72.9284 334.362 72.9284 334.969V340H71.7551V338.966H71.6955C71.6159 339.132 71.4834 339.309 71.2978 339.498C71.1122 339.687 70.8652 339.848 70.557 339.98C70.2488 340.113 69.8726 340.179 69.4284 340.179ZM69.6074 339.125C70.0714 339.125 70.4625 339.034 70.7807 338.852C71.1022 338.669 71.3442 338.434 71.5066 338.146C71.6723 337.857 71.7551 337.554 71.7551 337.236V336.162C71.7054 336.222 71.5961 336.276 71.427 336.326C71.2613 336.372 71.0691 336.414 70.8503 336.45C70.6349 336.483 70.4244 336.513 70.2189 336.54C70.0167 336.563 69.8527 336.583 69.7267 336.599C69.4218 336.639 69.1368 336.704 68.8716 336.793C68.6098 336.879 68.3977 337.01 68.2353 337.186C68.0762 337.358 67.9966 337.594 67.9966 337.892C67.9966 338.3 68.1474 338.608 68.449 338.817C68.754 339.022 69.1401 339.125 69.6074 339.125ZM75.07 332.364H76.2433V340.557C76.2433 341.027 76.1621 341.435 75.9996 341.78C75.8406 342.125 75.5986 342.391 75.2738 342.58C74.9523 342.769 74.5463 342.864 74.0558 342.864C74.016 342.864 73.9762 342.864 73.9364 342.864C73.8967 342.864 73.8569 342.864 73.8171 342.864V341.77C73.8569 341.77 73.8933 341.77 73.9265 341.77C73.9596 341.77 73.9961 341.77 74.0359 341.77C74.3938 341.77 74.6557 341.664 74.8214 341.452C74.9871 341.243 75.07 340.945 75.07 340.557V332.364ZM75.6467 331.091C75.418 331.091 75.2208 331.013 75.055 330.857C74.8926 330.701 74.8114 330.514 74.8114 330.295C74.8114 330.077 74.8926 329.889 75.055 329.734C75.2208 329.578 75.418 329.5 75.6467 329.5C75.8754 329.5 76.0709 329.578 76.2333 329.734C76.399 329.889 76.4819 330.077 76.4819 330.295C76.4819 330.514 76.399 330.701 76.2333 330.857C76.0709 331.013 75.8754 331.091 75.6467 331.091ZM81.5939 340.159C80.8581 340.159 80.2234 339.997 79.6898 339.672C79.1595 339.344 78.7502 338.886 78.4618 338.3C78.1768 337.71 78.0343 337.024 78.0343 336.241C78.0343 335.459 78.1768 334.77 78.4618 334.173C78.7502 333.573 79.1512 333.106 79.665 332.771C80.182 332.433 80.7852 332.264 81.4746 332.264C81.8723 332.264 82.2651 332.33 82.6529 332.463C83.0407 332.596 83.3936 332.811 83.7118 333.109C84.03 333.404 84.2836 333.795 84.4725 334.283C84.6614 334.77 84.7559 335.37 84.7559 336.082V336.58H78.8695V335.565H83.5627C83.5627 335.134 83.4765 334.75 83.3042 334.412C83.1351 334.074 82.8932 333.807 82.5783 333.612C82.2667 333.416 81.8989 333.318 81.4746 333.318C81.0073 333.318 80.6029 333.434 80.2615 333.666C79.9235 333.895 79.6633 334.193 79.481 334.561C79.2987 334.929 79.2076 335.323 79.2076 335.744V336.42C79.2076 336.997 79.307 337.486 79.5059 337.887C79.708 338.285 79.9881 338.588 80.3461 338.797C80.704 339.002 81.12 339.105 81.5939 339.105C81.9022 339.105 82.1806 339.062 82.4292 338.976C82.681 338.886 82.8981 338.754 83.0804 338.578C83.2627 338.399 83.4036 338.177 83.503 337.912L84.6365 338.23C84.5172 338.615 84.3167 338.953 84.035 339.244C83.7533 339.533 83.4052 339.758 82.9909 339.92C82.5766 340.08 82.111 340.159 81.5939 340.159Z" fill="#374151"/>
<path d="M337 350H38C33.5817 350 30 353.582 30 358V442C30 446.418 33.5817 450 38 450H337C341.418 450 345 446.418 345 442V358C345 353.582 341.418 350 337 350Z" fill="white" stroke="#D1D5DB"/>
<path d="M280 490H94C87.3726 490 82 495.373 82 502V526C82 532.627 87.3726 538 94 538H280C286.627 538 292 532.627 292 526V502C292 495.373 286.627 490 280 490Z" fill="#2563EB"/>
<path d="M131.448 521L133.26 510.091H140.61L140.291 511.993H135.246L134.82 514.592H139.486L139.167 516.494H134.501L134.075 519.098H139.14L138.821 521H131.448ZM143.659 516.27L142.87 521H140.606L141.97 512.818H144.127L143.893 514.262H143.984C144.243 513.782 144.609 513.404 145.081 513.127C145.557 512.85 146.098 512.712 146.705 512.712C147.274 512.712 147.748 512.836 148.128 513.085C148.511 513.333 148.781 513.686 148.937 514.145C149.097 514.603 149.124 515.151 149.017 515.79L148.144 521H145.875L146.679 516.195C146.761 515.695 146.697 515.304 146.487 515.023C146.281 514.739 145.949 514.597 145.491 514.597C145.186 514.597 144.905 514.663 144.649 514.794C144.394 514.926 144.179 515.118 144.005 515.37C143.834 515.618 143.719 515.918 143.659 516.27ZM158.62 512.818L154.396 521H151.839L150.342 512.818H152.654L153.379 518.672H153.464L156.132 512.818H158.62ZM158.418 521L159.781 512.818H162.05L160.687 521H158.418ZM161.15 511.753C160.813 511.753 160.534 511.641 160.314 511.417C160.097 511.19 160.008 510.92 160.048 510.608C160.087 510.288 160.239 510.018 160.506 509.798C160.772 509.574 161.074 509.462 161.411 509.462C161.749 509.462 162.024 509.574 162.237 509.798C162.45 510.018 162.539 510.288 162.503 510.608C162.468 510.92 162.317 511.19 162.05 511.417C161.788 511.641 161.488 511.753 161.15 511.753ZM164.816 521.154C164.298 521.154 163.849 521.064 163.469 520.883C163.092 520.698 162.815 520.425 162.638 520.062C162.46 519.7 162.416 519.251 162.504 518.715C162.583 518.26 162.73 517.88 162.947 517.575C163.167 517.266 163.435 517.017 163.751 516.829C164.067 516.641 164.417 516.497 164.8 516.398C165.187 516.298 165.587 516.231 165.999 516.195C166.475 516.146 166.862 516.098 167.16 516.051C167.462 516.005 167.687 515.94 167.837 515.854C167.986 515.766 168.076 515.634 168.108 515.46V515.428C168.161 515.094 168.099 514.835 167.922 514.651C167.748 514.462 167.469 514.368 167.085 514.368C166.681 514.368 166.336 514.457 166.052 514.635C165.772 514.812 165.571 515.038 165.45 515.311L163.383 515.141C163.568 514.643 163.847 514.214 164.22 513.852C164.596 513.486 165.049 513.205 165.578 513.01C166.107 512.811 166.7 512.712 167.357 512.712C167.812 512.712 168.236 512.765 168.63 512.871C169.028 512.978 169.371 513.143 169.658 513.367C169.949 513.591 170.159 513.878 170.287 514.23C170.418 514.578 170.445 514.995 170.367 515.482L169.445 521H167.293L167.485 519.865H167.421C167.247 520.121 167.034 520.347 166.782 520.542C166.53 520.734 166.24 520.885 165.914 520.995C165.587 521.101 165.221 521.154 164.816 521.154ZM165.727 519.588C166.057 519.588 166.361 519.523 166.638 519.391C166.919 519.256 167.149 519.075 167.33 518.848C167.515 518.621 167.632 518.363 167.682 518.076L167.821 517.207C167.75 517.254 167.647 517.294 167.512 517.33C167.38 517.365 167.236 517.399 167.08 517.431C166.927 517.46 166.773 517.486 166.617 517.511C166.46 517.532 166.32 517.554 166.196 517.575C165.922 517.614 165.677 517.676 165.461 517.761C165.244 517.847 165.068 517.962 164.933 518.108C164.799 518.25 164.715 518.427 164.683 518.64C164.633 518.949 164.706 519.185 164.902 519.349C165.1 519.509 165.376 519.588 165.727 519.588ZM171.206 521L172.569 512.818H174.769L174.53 514.246H174.615C174.849 513.738 175.163 513.354 175.558 513.095C175.955 512.832 176.383 512.701 176.841 512.701C176.955 512.701 177.074 512.708 177.198 512.722C177.326 512.733 177.44 512.751 177.539 512.776L177.198 514.794C177.099 514.759 176.957 514.73 176.772 514.709C176.591 514.684 176.419 514.672 176.255 514.672C175.925 514.672 175.618 514.745 175.334 514.89C175.05 515.032 174.81 515.231 174.615 515.487C174.423 515.743 174.297 516.037 174.237 516.371L173.475 521H171.206ZM182.669 510.091H185.513L187.308 517.42H187.436L191.65 510.091H194.494L192.683 521H190.446L191.628 513.9H191.532L187.548 520.947H186.019L184.379 513.873H184.288L183.095 521H180.858L182.669 510.091ZM198.248 521.16C197.41 521.16 196.716 520.989 196.165 520.648C195.615 520.304 195.228 519.817 195.004 519.189C194.784 518.557 194.747 517.809 194.892 516.946C195.034 516.105 195.32 515.366 195.75 514.73C196.183 514.095 196.726 513.599 197.38 513.244C198.033 512.889 198.761 512.712 199.564 512.712C200.103 512.712 200.592 512.799 201.029 512.973C201.469 513.143 201.835 513.402 202.126 513.75C202.417 514.095 202.616 514.526 202.722 515.045C202.833 515.563 202.831 516.17 202.717 516.866L202.616 517.49H195.712L195.931 516.083H200.704C200.757 515.757 200.736 515.467 200.64 515.215C200.544 514.963 200.384 514.766 200.16 514.624C199.937 514.478 199.661 514.406 199.335 514.406C199.001 514.406 198.688 514.487 198.397 514.651C198.106 514.814 197.861 515.029 197.662 515.295C197.467 515.558 197.341 515.844 197.284 516.153L197.034 517.548C196.962 517.978 196.977 518.335 197.076 518.619C197.179 518.903 197.357 519.116 197.609 519.258C197.861 519.397 198.181 519.466 198.568 519.466C198.82 519.466 199.056 519.43 199.276 519.359C199.5 519.288 199.699 519.184 199.873 519.045C200.047 518.903 200.189 518.727 200.299 518.518L202.371 518.656C202.179 519.161 201.888 519.601 201.497 519.977C201.107 520.35 200.636 520.641 200.086 520.851C199.539 521.057 198.926 521.16 198.248 521.16ZM206.588 516.27L205.8 521H203.536L204.9 512.818H207.057L206.823 514.262H206.913C207.172 513.782 207.538 513.404 208.011 513.127C208.486 512.85 209.028 512.712 209.635 512.712C210.203 512.712 210.677 512.836 211.057 513.085C211.441 513.333 211.711 513.686 211.867 514.145C212.027 514.603 212.053 515.151 211.947 515.79L211.073 521H208.804L209.609 516.195C209.69 515.695 209.626 515.304 209.417 515.023C209.211 514.739 208.879 514.597 208.421 514.597C208.115 514.597 207.835 514.663 207.579 514.794C207.323 514.926 207.109 515.118 206.935 515.37C206.764 515.618 206.649 515.918 206.588 516.27ZM220.623 515.151L218.561 515.279C218.551 515.098 218.501 514.936 218.412 514.794C218.327 514.649 218.201 514.533 218.034 514.448C217.871 514.363 217.665 514.32 217.416 514.32C217.043 514.32 216.711 514.406 216.42 514.576C216.129 514.746 215.964 514.965 215.925 515.231C215.893 515.402 215.937 515.545 216.058 515.663C216.179 515.78 216.422 515.879 216.788 515.961L218.226 516.259C218.993 516.423 219.547 516.694 219.888 517.074C220.232 517.454 220.355 517.951 220.255 518.566C220.167 519.088 219.937 519.544 219.568 519.935C219.199 520.322 218.73 520.624 218.162 520.84C217.594 521.053 216.963 521.16 216.271 521.16C215.159 521.16 214.314 520.933 213.735 520.478C213.157 520.023 212.878 519.407 212.899 518.63L215.115 518.512C215.133 518.846 215.25 519.098 215.467 519.269C215.683 519.436 215.98 519.521 216.356 519.525C216.779 519.532 217.137 519.445 217.432 519.263C217.73 519.079 217.899 518.855 217.938 518.592C217.967 518.408 217.913 518.259 217.778 518.145C217.647 518.031 217.405 517.937 217.054 517.863L215.69 517.58C214.916 517.42 214.36 517.135 214.023 516.723C213.686 516.311 213.57 515.787 213.677 515.151C213.762 514.643 213.973 514.208 214.311 513.846C214.652 513.48 215.09 513.2 215.626 513.005C216.166 512.809 216.775 512.712 217.453 512.712C218.515 512.712 219.314 512.93 219.85 513.367C220.39 513.804 220.648 514.398 220.623 515.151ZM223.586 521.154C223.067 521.154 222.618 521.064 222.238 520.883C221.862 520.698 221.585 520.425 221.407 520.062C221.23 519.7 221.185 519.251 221.274 518.715C221.352 518.26 221.5 517.88 221.716 517.575C221.936 517.266 222.204 517.017 222.52 516.829C222.837 516.641 223.186 516.497 223.57 516.398C223.957 516.298 224.356 516.231 224.768 516.195C225.244 516.146 225.631 516.098 225.93 516.051C226.231 516.005 226.457 515.94 226.606 515.854C226.755 515.766 226.846 515.634 226.878 515.46V515.428C226.931 515.094 226.869 514.835 226.691 514.651C226.517 514.462 226.239 514.368 225.855 514.368C225.45 514.368 225.106 514.457 224.822 514.635C224.541 514.812 224.34 515.038 224.22 515.311L222.153 515.141C222.338 514.643 222.616 514.214 222.989 513.852C223.366 513.486 223.818 513.205 224.348 513.01C224.877 512.811 225.47 512.712 226.127 512.712C226.581 512.712 227.006 512.765 227.4 512.871C227.797 512.978 228.14 513.143 228.428 513.367C228.719 513.591 228.928 513.878 229.056 514.23C229.188 514.578 229.214 514.995 229.136 515.482L228.215 521H226.063L226.254 519.865H226.191C226.017 520.121 225.803 520.347 225.551 520.542C225.299 520.734 225.01 520.885 224.683 520.995C224.356 521.101 223.991 521.154 223.586 521.154ZM224.497 519.588C224.827 519.588 225.131 519.523 225.408 519.391C225.688 519.256 225.919 519.075 226.1 518.848C226.285 518.621 226.402 518.363 226.452 518.076L226.59 517.207C226.519 517.254 226.416 517.294 226.281 517.33C226.15 517.365 226.006 517.399 225.85 517.431C225.697 517.46 225.542 517.486 225.386 517.511C225.23 517.532 225.09 517.554 224.965 517.575C224.692 517.614 224.447 517.676 224.23 517.761C224.014 517.847 223.838 517.962 223.703 518.108C223.568 518.25 223.485 518.427 223.453 518.64C223.403 518.949 223.476 519.185 223.671 519.349C223.87 519.509 224.145 519.588 224.497 519.588ZM231.339 512.818H233.608L232.18 521.405C232.074 522.033 231.863 522.543 231.547 522.934C231.231 523.328 230.824 523.615 230.327 523.797C229.833 523.978 229.265 524.068 228.622 524.068C228.551 524.068 228.48 524.066 228.409 524.063C228.338 524.063 228.262 524.061 228.18 524.058L228.473 522.284C228.526 522.287 228.578 522.289 228.628 522.289C228.677 522.293 228.725 522.294 228.771 522.294C229.137 522.294 229.407 522.216 229.581 522.06C229.755 521.904 229.869 521.673 229.922 521.368L231.339 512.818ZM232.686 511.763C232.349 511.763 232.072 511.652 231.856 511.428C231.639 511.201 231.55 510.929 231.589 510.613C231.628 510.297 231.781 510.027 232.047 509.803C232.314 509.58 232.614 509.468 232.947 509.468C233.288 509.468 233.565 509.58 233.778 509.803C233.992 510.027 234.08 510.297 234.045 510.613C234.009 510.929 233.858 511.201 233.592 511.428C233.329 511.652 233.027 511.763 232.686 511.763ZM237.769 521.16C236.931 521.16 236.237 520.989 235.687 520.648C235.136 520.304 234.749 519.817 234.526 519.189C234.305 518.557 234.268 517.809 234.414 516.946C234.556 516.105 234.842 515.366 235.271 514.73C235.705 514.095 236.248 513.599 236.901 513.244C237.555 512.889 238.283 512.712 239.085 512.712C239.625 512.712 240.113 512.799 240.55 512.973C240.99 513.143 241.356 513.402 241.647 513.75C241.939 514.095 242.137 514.526 242.244 515.045C242.354 515.563 242.352 516.17 242.239 516.866L242.137 517.49H235.234L235.452 516.083H240.225C240.278 515.757 240.257 515.467 240.161 515.215C240.065 514.963 239.905 514.766 239.682 514.624C239.458 514.478 239.183 514.406 238.856 514.406C238.522 514.406 238.21 514.487 237.919 514.651C237.627 514.814 237.382 515.029 237.184 515.295C236.988 515.558 236.862 515.844 236.805 516.153L236.555 517.548C236.484 517.978 236.498 518.335 236.598 518.619C236.701 518.903 236.878 519.116 237.13 519.258C237.382 519.397 237.702 519.466 238.089 519.466C238.341 519.466 238.577 519.43 238.798 519.359C239.021 519.288 239.22 519.184 239.394 519.045C239.568 518.903 239.71 518.727 239.82 518.518L241.892 518.656C241.701 519.161 241.409 519.601 241.019 519.977C240.628 520.35 240.158 520.641 239.607 520.851C239.06 521.057 238.448 521.16 237.769 521.16Z" fill="white"/>
</svg>
