<svg xmlns="http://www.w3.org/2000/svg" width="942.667" height="1021.333" version="1.0" viewBox="0 0 707 766"><path d="M97.9 113.1c-.5.3-.8 18.6-.7 44.5l.3 43.9h88l.3-43.4c.1-23.9-.2-43.9-.6-44.3-1-1-85.8-1.6-87.3-.7zm74.6 12.9c.3.5.6 14.7.6 31.6 0 31.6-.2 33.2-3.9 31.9-.8-.3-14.4-.5-30.3-.5H110v-31.3c0-17.3.3-31.7.7-32 1-1.1 61.1-.8 61.8.3z"/><path d="M122.9 138.4c-1.5 1.6-1.2 36.1.4 37.4.8.7 7.7 1.1 17.9 1.1 13.8 0 17-.3 18.3-1.5 1.3-1.3 1.5-4.5 1.4-19.1 0-12.8-.4-17.5-1.3-17.9-2.4-.9-35.7-.9-36.7 0zM242 112.7c-5.1.5-6 1.4-6 6.3 0 5.6 1.2 6.5 7.4 6.3l5.5-.2.3 12.7.3 12.7 12.8.3 12.7.3v5.8c0 3.8-.4 6.1-1.2 6.4-.7.2-9.1.5-18.6.6-19.2.2-18.1.7-18.5-7.4l-.2-5-6-.5-6-.5-.3-5.5c-.4-6.6-1.2-7.8-5.2-7.2-1.6.2-4.2.1-5.6-.2-2.5-.7-2.6-1-2.1-5 .9-6.2-.6-7.8-6.8-7.4l-5 .3-.3 6.2-.3 6.3h6.1c4 0 6 .4 6.1 1.2 1.2 10.7.4 12.1-6.5 11.6l-5.1-.3v13h5.2c2.9 0 5.7.5 6.2 1 .6.6.8 3.2.4 6.2l-.6 5.2-5.6.3-5.6.3-.5 11.5c-.3 6.3-.1 12.1.4 12.7.5.8 2.9 1.3 5.7 1.3 2.7 0 5.1-.5 5.6-1.3.4-.6.8-6.4.8-12.7v-11.5l4.9.3c6.4.3 7.6-.8 7.6-7.4 0-3.6.4-5.4 1.3-5.5.6-.1 3.6-.2 6.5-.3l5.4-.1-.6 5c-1 8-1.1 7.9 18.5 8.1 9.4.1 17.8 0 18.5-.3 1-.4 1.4-2.3 1.4-6.3 0-5.7.1-5.9 2.8-6.2 1.5-.2 4.2-.1 6 .1l3.2.3.1 8.2c.1 4.4.2 9.9.3 12.1l.1 4 6 .5 6 .5.3 6.2.3 6.3h-5.4c-2.9 0-5.8-.5-6.5-1.2-.7-.7-1.2-3.6-1.2-6.5v-5.4l-5.7.3-5.8.3-.3 12.2c-.2 8.8-.6 12.3-1.5 12.4-5.9.6-23.3-.5-24-1.5-.4-.6-.6-3.1-.5-5.6l.3-4.5 6-.5 6-.5.5-4.7c.8-6.7-.1-7.8-6.4-7.8-6.2 0-6.6.5-6.6 8.1v4.9h-5.9c-6.3 0-7.1.7-7.1 7 0 4.4 1.5 5.5 7.5 5.5h5.6l.2 31.5.2 31.5 6.2.3 6.3.3.2-25.3.3-25.3 18.8-.3 18.7-.2v13.3l-5-.5c-6.6-.7-7.9.4-8.2 7.2l-.3 5.5-4.5.1c-7.2.1-7-.1-7 6.4 0 4.1.4 6 1.3 6.1.6 0 3.2.1 5.7.2l4.5.2.5 5.3c.3 2.9.3 5.7 0 6.2s-6 1.1-12.5 1.2l-12 .3-.1 4.6c-.2 8.1.2 7.9-13.3 7.9-8.9 0-12 .3-12.4 1.3-.3.7-.6 11.6-.6 24.1-.1 16.1.1 23.2 1 24.2 1.4 1.7 10.5 1.9 11.5.3.4-.6.6-8.5.5-17.5-.1-10.3.2-17.1.9-18.4 1-1.9 2-2 18.5-2 10.7 0 17.6.4 18 1 .5.8.9 26.5.5 36.8 0 .9-1.6 1.2-5.7 1l-5.8-.3-.5-12.5-.5-12.5h-12v50l6.2.3 6.2.3.3 6.2.3 6.2 37.8.3 37.7.2v5.4c0 7.4.8 7.9 13.4 7.5 6.8-.3 10.9 0 11.6.7.6.6 1 3.3.8 6l-.3 4.9-12.5.5-12.5.5-.3 12.7-.3 12.8h-5.8c-5.5 0-5.9.2-6.5 2.6-.4 1.4-.4 4 0 5.8.4 2.6.2 3.5-1.1 4-1 .3-11.9.6-24.4.5-12.4-.1-23.4-.1-24.4 0-1.5.1-1.8.9-1.6 5.6.1 3-.1 5.8-.4 6.1-.4.4-3 .7-5.9.8l-5.3.1v12l5.8.3c3.1.2 5.7.7 5.8 1.2.1.6.1 2.1.1 3.5s0 3.8-.1 5.5l-.1 3h-24.9l-.3-6.3-.3-6.2-5.4-.3c-6.2-.4-7.1.4-7.1 6 0 6.2.6 6.8 7.1 6.8h5.9v5.9c0 7.4-.3 7.5-14.4 6.6l-10.3-.6-.6 3c-.4 1.7-.4 4.4-.1 6 .7 3.5-.7 4.5-6.1 4.3-2.2-.1-4.5.1-5.2.6-.6.4-1.3 3.2-1.5 6.2l-.3 5.5-6.3.3-6.3.3.7-5c.9-6.7-.3-8.1-7.1-8.1h-5.3l-.4 5.2c-.6 7.6-.4 7.8 6.2 7.8 5.7 0 5.7 0 6.2 3.3.3 1.7.3 4.7.1 6.5l-.6 3.4-5.6-.4-5.6-.3-.3 12.7-.3 12.8h6c3.8 0 6-.4 6.3-1.3.3-.6.4-6.2.2-12.3l-.3-11.2 12.2-.4c7.7-.2 12.5 0 12.9.7.5.5.5 2.8.2 5.1-.9 6.3 2.9 8.8 10.4 6.8 2.2-.6 2.2-.8 2.2-17.9 0-9.6.3-18.1.6-19 .6-1.4 3.9-1.6 31.1-1.5 17.9.1 30.9-.2 31.5-.8.5-.5.8-3.3.6-6.3l-.3-5.4-11.3.4c-13.5.4-14.2 0-14.2-7.5V482l25.7-.2 25.7-.3.2-5.8c.1-4-.2-6-1.1-6.3-.7-.3-9.3-.6-19.1-.7l-17.9-.2v-12l18.5-.3c18.7-.3 20.7-.7 19.5-4.1-.3-.7-.3-2.9.1-4.7.6-3.4.7-3.4 6-3.4 6.2 0 6.7-.5 6.8-7.9l.1-4.6 6.2-.3 6.2-.3.3 6.3.3 6.3h37l.3-6.3.3-6.2h-38.2l.3-6.3.3-6.2h37l.3 5.5c.2 3 .9 5.8 1.5 6.2.7.4 12.1.8 25.5.8H453v6c0 5.5-.2 6-2.5 6.6-1.4.3-3.7.3-5.1 0-4.7-1.2-5.4.5-5.4 13.5V469h-12l.2 19.2.3 19.2 5.1-.3c3.5-.1 5.5.2 6 1.1.5.7.7 6.2.5 12.2-.2 8.3 0 11.1 1.1 11.7.7.5 12.2.9 25.4.9h24.2l.4 4.7c.8 7.8 1.1 7.7-24.9 7.5-12.6-.1-23.6-.1-24.5-.2-1.5 0-1.8-1-1.8-6 0-6.3-.2-6.6-5.4-6-1 .1-2.9-.1-4.2-.4-2-.5-2.3-1.3-2.6-6.4l-.3-5.7h-25l-.3 6.2-.3 6.3H340l-1.1-2.8c-.6-1.6-.9-9.2-.7-18.9l.3-16.2-5.3-.7c-3.4-.4-5.8-.2-6.4.4-.6.6-1.1 6-1.2 12.9l-.1 11.8-31.5.5-31.5.5-.2 11.9c-.1 8.6-.5 12.1-1.5 12.8-.7.5-3.4.7-6.1.5-4.2-.4-4.8-.2-5.3 1.8-.3 1.2-.4 3.9-.2 6.1l.3 3.9 5.5.3c3 .2 5.9.7 6.4 1.2s.9 3.3 1 6.2l.1 5.3 6.3.3 6.2.3v5.8c0 6.6.7 7.3 6.4 6.4 5.1-.8 6.5.7 6.1 6.7-.5 6.5-1 7.2-5 6.4-1.8-.3-4.3-.3-5.4.1-2 .6-2.1 1.3-2.1 12.5 0 13.5.3 13-8.5 12.7l-4-.2-.5-6-.5-6h-12l-.3 4.8c-.4 5.9 1.1 8 4.8 7.2 1.5-.3 3.9-.3 5.4.1 2.4.6 2.6 1 2.6 6.5v5.9h76.5l-.3-18.5c-.4-20.8-1.3-18.7 7.8-18.9l4.5-.1.3-6.8.3-6.7H364l-.2 19.2-.3 19.3-4.9-.3c-6.4-.3-7.6.8-7.6 7.4v5.4h13v-11.9l3.4-.6c1.8-.4 7.2-.4 11.8-.1 6.2.4 8.8.2 9.6-.7.8-1 .9-6.5.3-11-.1-.4-2.8-.7-6.1-.7-4.1 0-6-.4-6.1-1.3-.4-3.6-.1-8.7.5-10.2.5-1.5 1.4-1.7 5.3-1.1 6 .8 7.3-.4 7.3-6.4 0-6.1-1.4-7.3-8.2-6.9-2.9.1-8.1.1-11.5.1l-6.3-.2v-12h5.3c7.2 0 7.9-.6 7.6-7.4l-.2-5.7-6.1.3-6.1.3-.5 6-.5 6-5 .1c-2.8 0-5.6.3-6.3.8-.7.4-1.2 2.9-1.2 6.2v5.4h-5.5c-5.1 0-5.6.2-6.6 2.7-.6 1.5-.8 4.2-.4 6 .7 4-.5 4.8-7 4.8h-5l-.3 12.2c-.3 13.8-.3 13.8-8.8 13.1l-3.9-.3-.5-6-.5-6-6-.5-6-.5v-12l5-.1c2.8-.1 5.5-.2 6.2-.3.8 0 1.3-2.4 1.5-6.3l.3-6.3 11.5-.2c6.3-.1 12-.2 12.5-.3.6 0 1-6.9.9-18.8l-.1-18.7h-11.8L326 558l-.5 12.5h-5c-2.7 0-5.6.4-6.2.8-.8.5-1.3 3-1.3 6.3 0 3-.3 5.4-.7 5.5-4.6.6-10 .4-11-.4-.9-.6-1.3-4.4-1.3-12.3 0-12.7-.5-12 8.5-12.6l4-.3v-12H295c-9.6 0-18.1-.4-18.7-.8-.8-.5-1.3-3-1.3-6.3 0-3.6.4-5.4 1.3-5.4.6-.1 12.7-.1 26.7-.1 14 .1 27.9.1 30.8.1h5.3l-.7 4.8c-1 8.1-.3 8.4 19.6 7.9 9.2-.3 17.3-.2 17.9.3.9.5 1.2 2.6 1 6.1l-.4 5.4 5.4.5c6.9.7 8.3-.5 7.4-6.6-.7-5.4.5-6.7 5.4-5.8 6 1.1 7.3 0 7.3-6.7V533h25.9l.3 6.2.3 6.3 5.7-.2 5.7-.2.3 6.2.3 6.2 31.5.5 31.5.5.3 19.1.2 19.1-9.9-.5c-13.9-.7-14.8-.3-15.3 5.5-.6 6.9-.3 7.3 5.7 7.3 3 0 5.7.5 6.2 1.2s.8 3.6.5 6.4l-.4 5.1-12.1-.1-12.2-.1-.5-6-.5-6-6-.5-6-.5-.5-6-.5-6h-24l-.3 6.3-.3 6.2h25.2l-.3 6.2-.3 6.3h-37L415 609l-.5-12.5h-12l-.3 18.7-.2 18.8 43.5.2c23.9.2 44 .2 44.5 0 .6-.2 1-3 1-6.2 0-7 0-7 14.6-7 11.5 0 11.4-.1 11.4 8.1v5l6.3-.3 6.2-.3.3-12.3.3-12.2H542v25h51v-5.9c0-5.6.1-5.9 2.9-6.4 1.5-.3 3.8-.3 5 0 3.2.8 5.1-1.4 5.1-6.1 0-6-.8-6.8-7.1-6.4l-5.4.3-.3 6.1-.3 6.1-11.9.1c-8.2.1-12.1-.3-12.8-1.1-.8-1-1-5.7-.3-11 .1-.4 2.5-.7 5.4-.7 2.9 0 5.8-.5 6.5-1.2.7-.7 1.2-3.3 1.2-5.9 0-4.5-.2-4.8-3-5.4-1.7-.4-7.2-.5-12.4-.3-5.2.1-9.7.1-9.9-.2-.2-.3-.7-2.7-.9-5.3-.9-7.6-1.2-7.5 25.9-7.6 13-.1 23.8-.3 24-.5.2-.2.4-2.4.5-5 .1-6.3 1.7-7.7 7.4-6.9 3.2.4 4.8.2 5.4-.6.6-1 .6-6.4.1-11.4-.1-.4-5.6-.6-12.3-.5l-12.3.3v5c0 2.7-.4 5.6-.8 6.2-1.1 1.8-23.1 1.8-24.4.1-.8-1.1-1.1-7.6-.4-11.1 0-.4 2.8-.7 6.1-.7 4.1 0 6-.4 6.1-1.3.9-11.2.5-12-6.2-11.2-2.9.4-5 .2-5.4-.5-1.3-2.1-1.6-10.8-.3-11.6.7-.4 6.4-.8 12.8-.8l11.5-.1v-12l-12.2-.3c-8.8-.2-12.3-.6-12.4-1.5v-36.2l18.6-.3c20.7-.3 18.7-1.1 18.9 7.8l.1 4.5 5.8.1c4.4.1 6-.3 6.5-1.5.4-.9.6-9.6.4-19.4l-.3-17.7H612c-5.4 0-6 .2-6.5 2.3-.4 1.3-.5 2.7-.4 3.3.1.5.1 2.4 0 4.1l-.1 3.3h-18.4c-17.6 0-18.5.1-19.1 2-.3 1.1-.4 2.4 0 3 .3.5.3 2.5-.1 4.5-.6 3.5-.6 3.5-6 3.5-6.2 0-6.5-.4-6.8-7.8l-.1-4.7-6.4-.3-6.3-.3.4-4.9c.7-6.9-.3-8.1-6.3-7.9-2.7.1-5.2-.1-5.6-.5-.4-.3-.7-2.9-.8-5.6-.1-2.7-.4-5.3-.8-5.6-.4-.4-6.1-.7-12.7-.7h-12V431h12.4c14.2 0 14.4.2 13.2 8.5l-.7 4.3 5.5.1c7.1 0 8.2-1.1 7.8-7.7l-.4-5.2H529l.6-4c.4-2.1.4-5.1 0-6.5-.6-2.3-1-2.5-6.6-2.5h-5.9l-.3-6.3-.3-6.2h-12l-.3 12.7-.3 12.8H479v-4.9c0-7.7-.4-8.1-7.1-8.1h-5.8l-.3-6.3-.3-6.2-5.3-.1c-2.9-.1-5.7-.5-6.2-1s-1-3.4-1.2-6.4l-.3-5.4-6 .1-6 .1-.2 11.3c0 6.3-.2 12-.2 12.6-.1 1-3.3 1.3-12.6 1.3H415v-25h-13v11.8l-5.1.4c-2.8.1-5.7 0-6.4-.5-1.7-.9-1.8-10.4-.2-11.5.7-.4 3.5-.7 6.2-.7h5l.3-6.3.3-6.2h12.8l.3 6.1.3 6.2 7.9.4c4.3.3 9.8.2 12.2-.2l4.3-.6.3-5.7.3-5.7 25.3-.3 25.2-.2v13.3l-5.4-.6c-7.4-.7-7.5-.6-6.7 11.5.1 1.3 10.9.9 11.7-.4.4-.7.6-3.3.5-5.9l-.2-4.8 6.3-.3 6.3-.3.3-6.3.3-6.2H491v-13.1l6.3.3 6.2.3.5 6 .5 6 12.1.3c12 .3 12.2.3 12.8 2.7.4 1.4.4 3.6 0 5-.9 3.8 1.1 5.5 6.7 5.5 2.6 0 5.1-.5 5.5-1.2.4-.6.6-3.5.5-6.5l-.2-5.3h13.4l-.6 5.4c-.3 3.3-.1 5.8.6 6.5.6.6 3.4 1.1 6.3 1.1 6 0 6.4-.6 6.4-8.1V380h37v13.2l-4.7-.2c-2.7-.2-5.3-.2-6-.1-.9.1-1.3 3.6-1.5 12.3l-.3 12.3h-25l.3-3.9c.2-2.2.1-5-.3-6.3-.5-2.1-1.1-2.3-6.5-2.3-4 0-6.1.4-6.2 1.2-.1.7-.2 3.5-.2 6.3l-.1 5-6 .5-6 .5v12l6.1.3 6.2.3-.2 11.2c-.2 6.2-.1 11.8.2 12.4.3.9 2.5 1.3 6.3 1.3 7.1 0 7 .1 6.6-14.5l-.2-10h25l.5 12 .5 12 5.8.3 5.7.3v-5.4c0-6.8 1.3-8.1 7.3-7.2 6 .9 6.8-.8 5.8-11.3-.1-.8-1.9-1.2-5.5-1.2-3 0-5.8-.5-6.2-1.1-.3-.6-.7-9.2-.8-19l-.1-17.9h5.8c6.5 0 6.9-.4 7.1-7.8l.1-4.7-6.8-.3-6.7-.3.4-10.7c.2-5.9.2-11.8-.1-13.1-.5-2.2-.9-2.3-6.4-1.8l-5.8.5-.3-6.1-.3-6.2-5-.6c-2.7-.3-5.5-.2-6.2.3-1.5 1.2-1.5 9.8 0 11.6.6.8 2.1 1 4.3.6 1.8-.3 4.2-.3 5.4.1 1.9.6 2.1 1.3 1.8 6.3l-.3 5.7-12.2.3c-10.8.2-12.3.5-12.4 2-.1.9-.2 3.7-.3 6.2l-.1 4.5h-6c-5.8 0-5.9 0-6.6-3.1-.3-1.7-.4-4.5-.1-6.2.4-3 .5-3.1 6.6-3.4l6.1-.3v-37l-6.2-.3-6.2-.3-.3-6.2-.3-6.2h-12v12l6.1.3 6.1.3-.1 18.7-.1 18.7-6 .5-6 .5-.3 6.2-.3 6.3h-12.7l.1-6.3.2-6.2-6.2-.3-6.3-.3v-5.2c0-7.9 0-7.9-13.6-7.6l-11.9.3-.3-6.2-.3-6.1 6.3-.3 6.3-.3.3-6.3.3-6.2h12.8l.3 6.2.3 6.3 4.8.3c6.5.4 7.9-.9 7.5-7.2l-.3-5.1-6.2-.3-6.3-.3v-12.8l6.3-.3 6.2-.3.3-12.3.3-12.2H542v5.9c0 6.7.8 7.5 7.2 6.5 4.9-.8 5.8.2 5.8 7.3v5.3h5.9c6.7 0 7.1.4 7.1 8.1v4.9h5.9c3.9 0 6.1-.4 6.4-1.3 1.1-2.8-.2-23-1.5-23.9-.7-.5-3.2-.7-5.5-.4-2.7.4-4.5.1-5-.7-.4-.6-.8-6.4-.8-12.7v-11.5l-6.3-.3-6.3-.3.3-6.2.3-6.2h12l.1 5c.1 2.7.2 5.6.3 6.2.1.9 4.9 1.3 18.8 1.5l18.6.3v3.5c0 1.9-.1 4.8-.2 6.3l-.1 2.8-11.3-.2c-6.2-.1-11.9.1-12.5.5-.7.4-1 3-.9 6.3l.2 5.7 5.8-.3c4.4-.2 5.8.1 6.3 1.3.3.8.7 6.6.7 12.8l.2 11.3h12V291h6.1c4 0 6.3-.4 6.6-1.3.4-1 .4-3.9-.1-11-.1-.4-2.8-.7-6.1-.7s-6-.3-6.1-.8c0-.4-.2-8.9-.2-19l-.2-18.2h6.2c6.9 0 7-.1 6.9-8l-.1-4.5-6.8-.3-6.9-.3.7-5c.9-6.5-.3-7.9-6.5-7.9-5.4 0-6 .7-6 7.5 0 5.3 1.5 6.4 7.5 5.7 4-.4 4.2-.3 4.8 2.6.3 1.6.3 4.6 0 6.5-.5 3.6-.6 3.6-6.2 3.9l-5.6.3-.3 12.2-.3 12.3H568v-5.3c0-6.4-1.1-7.7-6.6-7.7-5.9 0-7.3 1.7-6.7 7.9l.5 5-6.4.3-6.3.3-.3 6.2-.3 6.2-5.7.3-5.7.3-.5 5.3c-.7 6.2-1.7 7.2-8.2 7.2H517v25.1l-12.7-.3-12.8-.3-.3-12.3-.3-12.2h-24.2c-17.6 0-24.6-.3-25.5-1.2-.7-.7-1.2-3.4-1.2-6 0-4.1.3-4.8 2.3-5.3 1.2-.3 12.6-.4 25.2-.3l23 .3.5 6 .5 6h12l.3-5.4c.4-6.4-.3-7.1-7.6-7.1h-5.3l.2-5.5c.1-3.1-.2-6-.7-6.5-.7-.7-12.4-.9-31.5-.8l-30.4.3v38l5.2-.3c3.8-.3 5.3 0 6 1.1.4.9.7 6.8.5 13.1l-.3 11.6h-11.8l-.3-6.3-.3-6.2-6.2-.3-6.3-.3v-5.2c0-2.9-.5-5.8-1.2-6.5-1.6-1.6-9-1.6-10.6 0-.8.8-1.2 5.2-1.2 13V329h-38l.2 18.7.3 18.8 6 .5 6 .5.3 3.9c.2 2.2.1 5-.2 6.3-.6 2.3-.9 2.3-13.1 2.3H351v-12.9l-6.2-.3-6.3-.3v-5c0-2.8-.4-5.6-.8-6.3-.5-.7-3-1.2-6.2-1.2h-5.4l-.3 6.2-.3 6.3h-12l-.3-5.7c-.3-5.3-.1-5.8 2-6.3 1.3-.3 4.1-.4 6.3-.3l4 .3.3-5.5c.4-6.7-.6-7.6-7.7-7.2l-5.1.4v12.4h-6.5l-6.6-.1.3-6 .3-6 6-.5 6-.5.5-6 .5-6h25l-.3 5.1c-.4 6.3.9 7.6 7.5 7.2l4.8-.3.5-6 .5-6 6-.5 6-.5.5-6 .5-6 6-.5c5.7-.5 6-.6 6.3-3.4.2-1.6.1-4.4-.3-6.3l-.6-3.4-12.2.3-12.2.3-.3 6.3-.3 6.3-6.2-.3-6.2-.3-.3-9c-.2-5 0-10.5.3-12.3l.6-3.2h18.4c20.8 0 20-.3 19.3 8.2l-.3 4.2 6-.3c3.3-.1 6.3-.5 6.6-.7.6-.3.6-4.6 0-10.2-.1-.8-2-1.2-6.1-1.2h-6v-6c0-5.4.2-6 2.4-6.6 1.3-.3 3.8-.4 5.7-.2 3.4.3 3.4.3 3.9 6.3l.5 6h12v-12l-5-.3c-7.6-.5-7.8-.6-7.3-5.6.8-6.4-.3-7.6-6.7-7.6H377l-.1-5c-.1-2.8-.2-5.6-.3-6.3-.1-.8 1.5-1.1 5.5-.9 6.7.4 7.4-.3 7.4-7.3v-5l6-.5 6-.5.5-6 .5-6 12.8-.3 12.7-.3V221c0-5.6-.2-6-2.6-6.6-1.4-.4-6.7-.5-11.7-.2-5.1.3-9.8.3-10.4.1-.9-.3-1.3-2.5-1.3-6.3v-5.9l6.3-.3 6.2-.3.3-12.7.3-12.8 12.4.2 12.5.1v12.9l-5.7-.4-5.8-.3v13h11l.3-6.3.3-6.2h5.2c2.9 0 5.7.4 6.4.8.6.4 1.3 3.2 1.5 6.2l.3 5.5h12l.5-6 .5-6 3.9-.3c2.2-.2 5-.1 6.4.3 2.3.6 2.4.9 2 5.5-.3 2.8 0 5.4.6 6 .5.5 3.4 1 6.3 1h5.3v12h-38v-12h-13v5.3c0 2.9.5 5.8 1.1 6.4.7.7 3.2.9 6.5.6l5.4-.6v6.1c0 3.3.5 6.4 1 6.7.6.3 9.1.6 19 .6h17.9l.3 6.2.3 6.2h12l.3-6.2.3-6.2 11.8.1c6.5 0 12.3-.2 13-.6 1.6-1 1.4-10.1-.3-11.5-.9-.8-5.2-1.1-12.7-.9l-11.4.3-.3 6.2-.3 6.3h-13l.3-6.3.3-6.2 6.3-.3 6.2-.3v-11.8l-6.2-.3-6.3-.3-.3-12.9-.3-12.9 5.3.5c7.5.8 7.8.5 7.8-6.2s-.4-7-7.8-6.2l-5.2.5V176l-3.7.1c-11.4.3-45.6-.2-46.4-.7-.5-.3-.9-3-.9-6V164h25c19.2 0 25.2-.3 25.4-1.3 1-2.9 1.3-9.6.6-10.7-.6-.9-4.3-1.3-12.6-1.4l-11.9-.1-.3-6.2-.3-6.2-6.2-.3-6.2-.3-.5-6-.5-6-5-.1c-2.7-.1-5.6-.2-6.4-.3-1-.1-1.2-1.4-.9-5.6.3-3.3 0-5.9-.6-6.4s-3.5-.6-6.4-.4l-5.3.6.3 6.1.3 6.1 5.6-.3 5.7-.4.4 5.4c.2 2.9 0 5.9-.5 6.5-.6.8-3.2 1.3-6.3 1.3H428v5.9c0 5.6.1 5.9 2.9 6.4 1.5.3 3.7.4 4.8.1 2.4-.7 5.7 2.2 4.9 4.3-.3.8-.6 3.2-.6 5.4v4l-5.7-.3-5.8-.3-.3-6.2-.3-6.1-4.8-.4c-8.4-.6-8-1.1-8.3 12.4-.3 12-.3 12.2-2.8 12.8-1.4.4-4.2.5-6.2.2l-3.7-.4-.3-6.2-.3-6.1h-10.9l-.8-4c-.4-2.2-.7-7.7-.6-12.3.1-5.2-.2-8.6-.9-9-.6-.4-9.1-.5-18.9-.2l-17.9.5v12l11.8.1c13.4 0 13.7.2 13.7 7.5 0 5.3.8 5.9 7.5 5.9 4.7 0 5.9 1.4 4.9 5.5-.3 1.3-.3 3.3.1 4.4.5 1.8 1.4 2.1 6.6 2.1h5.9v26h-12.8l.2-13.1.2-13.1-5.1.2c-7.8.4-7.5.6-7.5-6v-6h-3.7c-2.1 0-13.5-.1-25.3-.3l-21.5-.2-.3-5.5c-.2-3-.8-6-1.3-6.5-.6-.6-3.3-1-6.2-1h-5.2l-.3-6.2-.3-6.2-6.2-.3-6.2-.3v-12l37.4-.2c21.7-.1 37.7-.5 38.3-1.1.5-.5.8-3.1.6-5.8l-.3-4.9-37-.5c-20.4-.3-37.6-.1-38.2.4-.8.5-1.3 3.1-1.3 6.2 0 3-.3 5.4-.7 5.4-3.6.1-22.1.2-23 .1-.9-.1-1.3-1.9-1.3-5.5 0-6.2-.9-7.2-6.5-7.1-5.8.1-6.5.9-6.5 7s-.4 6.5-7.8 5.7l-5.4-.5.4-5.1c.3-4.9-.5-7.8-2-7.4-.4.1-2.7.3-5.2.5zm45 31.3c0 6.4-.6 7-8.2 7H275v-5.8c0-3.2.4-6.2.9-6.8.6-.5 3.3-.7 6-.6l5.1.4v5.8zm26.2 13.2.3 6.3 6.3.3 6.2.3v5.4c0 3-.5 5.7-1.2 6.1-1.8 1.1-22.9 1-23.8-.1-.5-.6-1-3.5-1.2-6.5l-.3-5.5-4 .3c-7.6.5-8.3 0-8.3-6.8v-6H312.9l.3 6.2zm37.4 19.9c.4.7.7 6.4.8 12.8l.1 11.6 6.3.3 6.3.3-.3 5.7-.3 5.7-25 .5-25 .5-.3 5.8c-.2 4.4.1 5.9 1.2 6.3.8.3 6.6.7 12.8.7l11.3.2-.3 3c-.1 1.6 0 4.5.3 6.2.6 3.3.6 3.3 6.5 3.3h5.9l.3-6.3c.3-6.9-.5-6.3 9.6-6.6l3.2-.1v-5.9c0-5.2.3-6.1 2.1-6.6 1.1-.4 3.1-.4 4.5-.1 1.3.4 3.4.2 4.5-.4 1.7-1 2-1.9 1.7-6.3l-.3-5.2-6-.5-6-.5v-12h12l.3 6.2.3 6.3h5.9c5.5 0 6 .2 6.1 2.2 0 2.1 0 20.4-.1 22 0 .5-5.6.8-12.5.8h-12.6l.3 6.2.3 6.3 6 .5c6 .5 6 .5 6.3 3.9.2 1.9.1 4.4-.2 5.7-.6 2.1-1.2 2.4-5 2.4-7.1 0-7.6.4-7.6 7.1v5.9h6c5.4 0 6 .2 6.6 2.3.3 1.3.4 4.1.2 6.3l-.3 3.9-19 .5-19 .5.1 6.4.1 6.3-5.2-.5c-2.8-.3-5.7-.2-6.4.3-.9.5-1.3 4.3-1.4 12.6l-.2 11.9h-12v-37l12.3-.3c6.7-.1 12.3-.6 12.3-1 .1-.4.3-3.1.4-6 .4-6.4.3-6.4-14.5-6l-10.5.3-.3 6.3-.3 6.3-6.2-.3-6.2-.3v-37l6-.5 6-.5.3-6.3.3-6.2H300v-24.9l6.3-.3 6.2-.3.3-5.7c.3-6.5 1.3-7.2 8.8-6.6l3.9.3v5c.1 6.6.8 7.5 6 7.5 7.4 0 7.3.2 6.7-12.1-.3-7.8-.1-11.3.8-12.4 1.5-1.8 10.5-2.1 11.6-.4zM555 282.9c0 7.7-.4 8.1-7.1 8.1H542v-5.8c0-3.2.3-6.2.7-6.5.3-.4 3.3-.7 6.5-.7h5.8v4.9zm-77.1 21.5c.7.8 1.1 3.6.9 6.3l-.3 4.8-6.2.3-6.3.3v-5.9c0-3.2.3-6.2.7-6.5 1.3-1.3 10-.7 11.2.7zM428 335.5v6.6l5.8-.3 5.7-.3.3-6.3.3-6.2h25.4c17 0 25.4.3 25.7 1.1.2.6.1 3.4-.2 6.2l-.5 5.2-25.2.3-25.3.2-.2 18.8-.3 18.7-5.7.3-5.7.3-.3-6.3-.3-6.3-6.2-.3-6.2-.3-.3-6.2-.3-6.2h-12l-.3 12.7-.3 12.8H396c-4.7 0-6-.3-6.4-1.8-.8-2.5 0-35.1.8-36 .4-.3 3.1-.7 5.9-.7h5.2l.3-6.3.3-6.2H428v6.5zm-129.6 19.1c1.2.5 1.6 2.1 1.6 6.5v5.9h-25v-5.8c0-3.2.3-6.2.7-6.5.8-.9 20.6-.9 22.7-.1zm191 0c1.2.5 1.6 2.1 1.6 6.5v5.9h-25v-5.8c0-3.2.3-6.2.7-6.5.8-.9 20.6-.9 22.7-.1zm-23.6 69.6-.3 6.3h-12l-.3-4.9c-.5-7.2-.1-7.6 6.8-7.6h6.1l-.3 6.2zm101.6-3.7c.3 1.3.3 4.3 0 6.5l-.7 4.1-5.5-.3c-5.6-.3-5.6-.3-6.4-4-.4-2.1-.3-4.9.2-6.3.9-2.2 1.5-2.5 6.4-2.5s5.4.2 6 2.5zm-88.6 29.2-.3 18.8-12.8.3-12.8.3.3 6.2.3 6.2 18.8.3 18.7.2v-18.9c0-21.3-.4-20.4 8-19.4l5 .6V482h24.8l.7 3c.8 3.7-.3 9-1.8 9.1-.7 0-3.2.1-5.7.2l-4.5.2-.5 6-.5 6-6 .5-6 .5-.5 12.5-.5 12.5-3.9.3c-2.2.2-5 .1-6.4-.3-2.3-.6-2.4-.9-1.9-5.4.3-2.6.2-5.2-.2-5.9-.5-.8-6.4-1.2-19.1-1.4l-18.5-.3-.5-12.5-.5-12.5h-5c-2.7 0-5.6-.4-6.2-.8-.9-.6-1.3-4.3-1.3-12.8V469h13v-12.4c0-11.8.1-12.4 2.1-12.9 1.2-.3 3.5-.3 5 0 4.4.8 5.9-1.1 5.9-7.3V431h13l-.2 18.7zm63.2 25.8v6.5h12.5v37.5h-12l-.1-4.6c-.1-7.6-.7-8.2-6.4-7.7-3.1.3-5.4.1-5.9-.6-.6-.7-.7-3.8-.4-7l.6-5.8 4.2.6c6.6 1 7.5.3 7.5-6.5V482h-12.7l.2-6.3c.1-3.4.3-6.3.4-6.5 0-.1 2.8-.2 6.1-.2h6v6.5zm12.5 59c.2 1.1.3 9.6.2 19l-.2 17h-37l-.3-18c-.1-9.8-.1-18.4.1-19 .3-.6 7-1 18.6-1 17.4 0 18.2.1 18.6 2zm-267.7 29.7-.3 6.3-5.7.3-5.8.3v-5.9c0-3.2.3-6.2.7-6.5.3-.4 3.1-.7 6-.7h5.4l-.3 6.2zm253.6 19.4c1.2.5 1.6 2.1 1.6 7.1v6.6l3.9-.7c2.2-.3 5.1-.2 6.6.4 2.4.9 2.6 1.4 2.3 6.2l-.3 5.3-6.2.3-6.3.3v-6c0-5.8-.1-6-3-6.6-1.6-.4-4.3-.4-6 0-2.8.6-3 .9-3 5.5 0 2.8-.6 5.2-1.4 5.9-.9.8-5.2 1.1-12.7.9l-11.4-.3-.3-5.7-.3-5.6 4.2-.7c2.2-.4 8-.6 12.8-.4l8.6.4V591c0-3 .4-6.1.8-6.8.8-1.2 7.3-1.7 10.1-.6z"/><path d="M327.1 240.4c-.7.8-1.1 3.6-.9 6.8l.3 5.3 4 .2c7.9.3 8.2 0 8.2-6.7v-6h-3.8c-2 0-4.4-.2-5.2-.5-.7-.3-1.9.1-2.6.9zM491 487.9c0 5.8-.1 6-3 6.6-1.6.4-4.3.4-6 0-1.6-.4-3-.3-3.1.2-.5 4.4-.5 10.1.2 11.3.5 1.1 2.3 1.5 6.1 1.5h5.3l.3-6.2.3-6.2 6.2-.3 6.2-.3.3-6.3.3-6.2H491v5.9zM529.9 545.8c-.1.4-.3 2.8-.4 5.4-.3 6.6.8 7.7 7 6.9l5-.6v-12l-5.7-.2c-3.2-.1-5.9.2-5.9.5zM390.4 113.3c-1.8 1-1.9 10.2-.1 11.4.6.4 3.5.8 6.2.8h5l.5 6 .5 6h12v-6c0-6.7.8-6.1-9.2-6.4l-3.2-.1-.3-6.3-.3-6.2h-4.8c-2.7 0-5.5.4-6.3.8zM466.4 112.9c-.2.2-.4 3-.4 6.2 0 5.5.1 5.8 2.9 6.4 1.6.3 4 .3 5.4 0 3.1-.8 4 .5 4.7 7l.5 5h11l.5-6 .5-6h5.2c2.8 0 5.7-.5 6.3-1.1.6-.6 1-3.4.8-6.5l-.3-5.4h-5c-2.7 0-5.6.4-6.2.9-.8.5-1.3 3.1-1.3 6.2v5.4l-4 .2c-2.2.1-4.8.2-5.7.2-1.5.1-1.9-1-2.3-5.9l-.5-6-5.8-.5c-3.2-.3-6-.3-6.3-.1zM530.4 113.2c-.8 1.2-.7 86.5 0 87.7.8 1.3 87.6 1.6 87.6.3 0-.4 0-20.3.1-44.2l.1-43.5-9.4-.2c-25.2-.7-78-.7-78.4-.1zm74.9 14.5c.6 3.2.2 60.1-.4 60.7-.7.8-60.7.9-61.9.1-1.1-.7-1.5-61.7-.3-62.8.3-.4 14.5-.7 31.4-.7h30.7l.5 2.7z"/><path d="M555.8 138.1c-1.4.9-1.1 37.1.3 38 1.3.8 33.5 1 35.5.2 1.1-.4 1.4-4.1 1.4-18.8 0-11.8-.4-18.6-1.1-19-1.3-.9-34.8-1.2-36.1-.4zM504 156.8v5.9l4.9.7c7.4 1 8.2.3 7.9-6.3l-.3-5.6-6.2-.3-6.3-.3v5.9zM224.4 190.4c-.3.7-.4 3.5-.2 6.2l.3 4.9 6.2.3 6.1.3-.3-5.8c-.2-3.2-.4-6.1-.4-6.6-.2-1.4-11.1-.8-11.7.7zM504.4 190.3c-.3.8-.4 3.6-.2 6.3l.3 4.9h12v-12l-5.8-.3c-4.2-.2-5.9.1-6.3 1.1zM97.4 215.3c-.2.7-.3 9.4-.2 19.2l.3 18 4.5.1c8.5.2 8-.2 8 6.4v5.9l5.8.3 5.7.3.5 6 .5 6 6 .5 6 .5.3 12c.1 6.9.7 12.2 1.3 12.6.6.3 3.4.5 6.2.3l5.2-.2.3-17.7c.2-12.2-.1-18.2-.9-19.1-.9-1.1-4.1-1.4-13.1-1.4h-11.9l.2-5.6c.3-6.6-.5-7.4-7.3-7.4H110v-11.9l12.3-.3 12.2-.3.5-6 .5-6 12-.3c8-.2 12.2-.7 12.7-1.5 1.2-1.9.9-9.2-.4-10.5-1.8-1.8-61.7-1.7-62.4.1z"/><path d="M174.3 214.7c-.8.3-1.3 2.5-1.3 5.8 0 3-.5 5.7-1.2 6.1-.6.4-3.3.6-6 .5-3.3-.1-4.8.3-4.9 1.1 0 .7 0 6.1.1 11.9.2 12.5-.4 13.5-7.4 12.5-5.4-.8-6.5.5-5.8 7.6l.4 4.8h5.3c6.4 0 8 1.5 7.2 6.9-.2 2.1-.2 4.3.2 4.9.4.7 5.4 1.2 12.6 1.4l12 .3v12l-11.9.1c-7.3.1-12.1.5-12.5 1.2-.3.6-.6 3.4-.5 6.3l.2 5.1h12.4l12.3-.1.3-6 .3-6 6.2-.3 6.2-.3v-12l-6.2-.3-6.2-.3-.3-6.2-.3-6.2-6-.5-6-.5-.3-4.8c-.4-6.5.8-7.8 7.2-7.5l5.1.3.3-6.3.3-6.2H211l.2 2.7v4.3c-.1.8.1 2.6.4 3.9.5 2.1.8 2.3 5 1.6 7-1 7.4-.2 7.4 13.6v11.8l-6.2.3-6.3.3v12h12l.3-5.7c.3-5.2.5-5.8 2.8-6.4 1.4-.4 3.8-.4 5.3-.1 1.8.4 3.3.1 3.8-.6 1-1.3 1-36.3 0-37.3-.3-.3-5.8-.7-12.3-.7l-11.8-.2.1-11.5c.1-6.4-.4-12.1-.9-12.8-.8-.9-5.6-1.2-18.2-1.1-9.4 0-17.7.3-18.3.6zm11.2 18.8v6h-12l-.3-4.9c-.5-7.3-.1-7.7 6.5-7.4l5.8.3v6zM543.2 214.8c-.9.6-1.2 3.9-1 12.8l.3 11.9 12.2.3c12.2.3 12.2.3 12.9-2.2.3-1.3.5-3.2.4-4.2-.7-6-.4-6.4 5.4-6.1 3 .1 5.8-.1 6.2-.6 1.2-1.2 1.4-10 .2-11.4-1.3-1.7-10.2-1.7-11.5-.1-.6.7-1.1 3.5-1.1 6.1 0 2.7-.2 5-.4 5.1-.9.9-9.8 1.2-11 .5-.8-.5-1.3-2.9-1.3-6.6v-5.8l-5-.3c-2.7-.1-5.6.2-6.3.6zM428.7 227.7c-.4.3-.7 3.3-.7 6.5v5.8h-12.9l-.3 6.2-.3 6.3-4.8-.3c-7.3-.5-7.7.2-7.7 13.9V278h13v-12.4c0-13.3.2-13.9 5.3-12.9 1.5.3 3.8.2 5.2-.1 2.3-.6 2.5-1.1 2.5-6.6v-6h12v5.9c0 6.7.2 6.9 8 6.7l4.5-.1.3-6.3c.2-4.5-.1-6.2-1-6.3-.7-.1-3.5-.2-6.3-.3l-5-.1-.1-5c-.1-2.8-.2-5.6-.3-6.3-.1-1.3-10.2-1.8-11.4-.5zM517 245.9c0 6.6.5 7.1 7 7.1 4.5 0 6.1-1.6 5.9-6.1-.3-6.7-.5-6.9-7-6.9H517v5.9zM97.6 265.8c-.7 1.1-.9 35.8-.3 36.9.7 1 23.8.7 24.7-.4.4-.4.5-3.1.1-5.8l-.6-5-5.7-.3-5.7-.3-.3-12.7-.3-12.7-5.7-.3c-3.1-.2-5.9.1-6.2.6zM504.7 265.7c-.4.3-.7 3.3-.7 6.5v5.8h25.5l.3-5.1c.4-7.5-.2-7.9-13.3-7.9-6.1 0-11.5.3-11.8.7z"/><path d="M199 297v6h-4.2c-8.2 0-8.8.5-8.8 7.1v5.8l-6.2.3-6.3.3v12l6.3.3 6.2.3v-13.2l6.3.3 6.2.3v12l-6 .5-6 .5-.5 6-.5 6h-5c-2.7 0-5.6.4-6.2.8-.8.5-1.3 3-1.3 6.3v5.4h-3.4c-1.8 0-4.6.3-6.2.6l-2.9.6V329.5l-6.2-.3-6.3-.3v5.3c0 6.9-.8 8-5.6 7.8-7.7-.4-7.4-.6-7.4 6 0 4.1.4 6 1.3 6.1.6.1 6.1.2 12.1.2l11 .2.9 3.4c.4 1.9.7 13.3.5 25.5l-.3 22.1 18.5-.3c13-.2 18.7-.6 19.2-1.5.4-.7.8-3.3.8-6V393h11.3c6.1 0 11.8-.4 12.5-.9.9-.5 1.2-2.5 1-6.2l-.3-5.4-6-.5-6-.5v-12l6.3-.3 6.2-.3-.2-25.2-.3-25.2-12.2-.3-12.3-.3v-13l5.5.2c3.1.1 5.9-.2 6.4-.7.5-.5.7-3.3.4-6.2l-.6-5.2H199v6zm12 46c.8 1.3.5 9.8-.3 10.7-1 .9-9.2 1.2-10.6.3-1.5-.9-2.1-8.7-.9-11.1.6-1.3 1.9-1.6 5.9-1.3 2.9.2 5.5.8 5.9 1.4zm-25.4 13.5c.3 1.2.4 3.9.2 6.1l-.3 3.9h-12l-.3-5.4c-.4-6.3.2-6.9 6.9-6.9 4.3 0 5 .3 5.5 2.3zm13.2 29.1c.4 7.1-.3 7.5-13.9 7.2l-11.4-.3-.3-4.9c-.5-7.9-.8-7.7 13-7.4l12.3.3.3 5.1zM149.3 303.7c-.9.3-1.3 2.6-1.3 6.4v6l6.3-.3 6.2-.3.3-5.6c.3-5.2.1-5.7-2-6.3-2.7-.7-7.8-.7-9.5.1z"/><path d="M97 376.9c0 33.5-.3 61.6-.6 62.4-.3.8.2 2.1 1 3 1.2 1.2 3.6 1.4 11.8 1.1 5.7-.2 10.8 0 11.5.4 1.3.8 2.1 22.1.9 24-.4.7-3 1.2-6.2 1.2-6 0-5.4.9-5.8-9l-.1-3.5-6.2-.3-6.3-.3V469h13.1l-.3 6.2-.3 6.3-6.3.3-6.2.3.2 25.2.3 25.2 3.9.3c2.2.2 5 .1 6.3-.2l2.3-.6v-49.8l5.2-.4c6.5-.4 7.7.7 7.1 6.5-.6 5.4.3 6.2 7.2 6.2h5l.5 12.5.5 12.5 6 .5 6 .5.1 5.3c.1 2.9.5 5.7 1.1 6.3.6.6 8.2.8 18.9.7l17.9-.3v-12l-6-.5-6-.5-.3-5.8c-.2-3.1-.2-5.8 0-5.8.2-.1 5.9-.5 12.8-.8l12.5-.6v-24l-6-.5-6-.5-.5-6-.5-6h-12l-.3 6.3-.3 6.3-5.3-.2c-2.9-.1-5.7.1-6.3.4-1.2.7-1 9.7.2 11.7.4.7 2.6 1 5.9.8l5.1-.3.3 6.2.3 6.3H149.3c-.5 0-1-5.5-1.3-12.2l-.5-12.3-6-.5-6-.5-.3-18.6c-.2-18.4-.2-18.7 1.9-19.2 1.2-.3 3.5-.3 5 0 4.4.8 5.9-1.1 5.9-7.3V431h5.9c5.8 0 5.9 0 6.5-3.3.9-5 .6-18.9-.5-21-.8-1.4-2.1-1.8-5.2-1.7-6.9.3-6.7.4-6.7-5.4 0-3.2-.5-5.8-1.2-6.2-2-1.3-9.7-1.2-10.7 0-.6.7-1.2 6.4-1.3 12.7l-.3 11.4h-12l-.3-12.3c-.2-8.7-.6-12.2-1.5-12.3-.7-.1-3.2-.2-5.7-.3l-4.5-.1-.3-6.3-.3-6.2h5.5c3 0 5.8-.4 6.1-1 1.1-1.8.7-36.3-.5-37-.6-.4-3.4-.5-6.1-.2l-5 .5.3-6.4.3-6.4 18-.3c12.8-.2 18.1-.6 18.7-1.5 1.2-1.9.9-9.2-.4-10.5-.9-.9-7.9-1.2-25.5-1.2H97v60.9zm38 60.2c0 5.3-.2 5.9-2.3 6.5-1.3.3-4.1.4-6.3.2l-3.9-.3v-12l5-.5c7.3-.8 7.5-.6 7.5 6.1zm50.8 51.1-.3 6.3-3.9.3c-2.2.2-5 .1-6.3-.2-2.1-.6-2.3-1.2-2.3-6.6v-6h13.1l-.3 6.2zM237.2 355.2c-1.4 1.8-1.4 21.8 0 23.5.6.8 3.3 1.3 6.9 1.3h5.9l-.6 4c-.4 2.1-.4 5.1 0 6.5.6 2.3 1.1 2.5 6.1 2.5 6.4 0 7.1-.9 6.7-7.9l-.4-5.1H256c-5.7 0-5.9-.1-6.5-3.1-.4-1.7-.5-7-.4-11.7.2-4.8 0-9.3-.4-10-.5-.7-2.9-1.2-5.6-1.2-2.7 0-5.3.6-5.9 1.2z"/><path d="M135.4 368.3c-.3.8-.4 3.6-.2 6.3l.3 4.9 5.7.3c5.3.3 5.8.1 6.3-2.1.4-1.3.5-4.1.3-6.3l-.3-3.9-5.8-.3c-4.2-.2-5.9.1-6.3 1.1zM228.8 392.7l-4.7.4-.3 12.2-.3 12.2-25 .5-25 .5v12l6 .5 6 .5.3 5.4c.4 6.2-.4 7.1-6.3 7.1-5.4 0-6.5-1.3-6.5-7.7V431h-12v25h-13v13.1l6.3-.3 6.2-.3.2-4.5c.1-2.5.2-5.3.2-6.2.1-1.5 1.6-1.8 12.4-2l12.2-.3.3-5.6.3-5.7 5.2-.5c6.5-.6 7.9.5 7.6 5.7-.3 6.7-.4 6.6 6.1 6.6 5.5 0 6 .2 6.1 2.2 0 1.3 0 9.4-.1 18.1-.1 11.1.2 16.2 1 17.3.9 1 3.7 1.4 11.2 1.4 5.5 0 10.7-.4 11.6-.9 1.3-.7 1.7-2.3 1.7-6.3v-5.3l-6-.5-6-.5v-12l12.5-.5 12.4-.5-.1-5.3c-.1-2.8-.1-5.7-.2-6.2-.1-.6-2.5-1-5.5-1-6.7 0-8-1.3-7.1-7.4.8-5 1-4.9-6-4.7-5.8.2-6.7-.7-6.3-7l.3-5.4h11.8l.3 5.4c.3 6.2 1.2 7.1 7.1 7.1 5.1 0 6.2-1.5 5.5-8l-.4-4.9 6.3-.3 6.4-.3v-25l-4.8-.3c-7.3-.5-7.7.2-7.7 13.9V431h-5.5c-5.1 0-5.6-.2-6.5-2.6-.6-1.4-.9-9.7-.8-18.3.2-14.5-.2-18.4-2-17.9-.4.1-2.8.3-5.4.5zm-4.8 56.1c.3 2.9.1 5.7-.4 6.2-1.4 1.4-10.3 1.3-11.2-.1-.9-1.6-1.5-8-.8-10 .4-1.3 1.7-1.7 6.2-1.5l5.7.1.5 5.3zM288.3 393.4c-1.2.6-1.4 2.8-1.3 11.5.1 5.8.2 11.1.1 11.8-.1.7-2.3 1.3-5.8 1.5l-5.8.3v12l31.5.3 31.5.2-.1-11.8c0-6.5-.4-12.4-.8-13-.4-.7-3.1-1.2-6.2-1.2H326v-5.4c0-3-.5-5.8-1.1-6.2-1.6-1-34.8-1-36.6 0zm37.5 17.8-.3 6.3h-12l-.3-4.9c-.5-7.2-.1-7.6 6.8-7.6h6.1l-.3 6.2zM415.4 443.9c-.2.2-.4 3-.4 6.2v5.8l-6.2.3-6.3.3v12h12l.3-6.2.3-6.2 6.2-.3 6.2-.3.3-5.8c.2-4.1-.1-5.7-1-5.9-3.2-.3-11-.3-11.4.1zM351.7 456.6c-.4.4-.7 6.3-.7 13.1V482h-5.9c-5.8 0-5.9 0-6.5 3.2-.3 1.8-.2 4.6.2 6.3.8 2.9 1.1 3 6.3 3h5.4l.3-6.2.3-6.2 6.2-.3 6.2-.3.3-6.3.3-6.2h5.2c7.2 0 7.9-.7 7.5-7.1l-.3-5.4-12.1-.3c-6.6-.1-12.3.1-12.7.4zM376.5 483c-.3.5-.3 2.1.1 3.5.3 1.4.3 3.6 0 5-.5 2.1-1.2 2.4-6.4 2.7l-5.7.3v25l3.9.3c2.2.2 5 .1 6.3-.3 2.5-.6 2.5-.6 2.1-12.5l-.3-12 3-.2c1.7-.1 7.4-.2 12.7-.2l9.7-.1.3 6 .3 6 5 .6c6.7.8 7.7-.1 7.3-7l-.3-5.6-4 .3c-7.8.5-8.5-.1-8.5-6.8v-6h-12.4c-6.9 0-12.7.4-13.1 1zM593.7 494.6c-1.2 1.2-.8 11.2.5 12 2.2 1.4 9.7 1.2 10.9-.2 1-1.2.7-10.1-.4-11-.8-.7-10.4-1.4-11-.8zM610.8 519.8c-2.7.2-4.9.6-4.9 1-.1.4-.3 2.6-.4 5-.5 6.9-.8 7.2-7 7.2H593v5.4c0 3.3.5 5.8 1.4 6.5 1.3 1.1 20.7 1.3 22.5.2.7-.5 1.7-18.9 1.2-23.7-.1-1.6-1.8-2-7.3-1.6zM97 589.6V634h89l-.2-44.3-.3-44.2-44.2-.2-44.3-.1v44.4zm76-.6c.3 16.8.1 31.1-.4 31.7-.6 1-8.2 1.2-31.5 1l-30.6-.2-.3-31.8-.2-31.7 31.2.2 31.3.3.5 30.5z"/><path d="M123.3 571.5c-1.1.8-1.3 4.7-1.1 19l.3 18 17.9.3c12.3.2 18.3-.1 19.2-.9 2.1-1.8 2-35.7-.1-36.5-2.7-1.1-34.7-1-36.2.1zM224.4 559.3c-.3.8-.4 3.6-.2 6.3l.3 4.9h12v-12l-5.8-.3c-4.2-.2-5.9.1-6.3 1.1zM402.4 559.3c-.3.8-.4 3.6-.2 6.3l.3 4.9 6.3.3 6.2.3v5.9c0 3.3.3 6 .8 6.1 3.6.5 9 .6 10.5.2 1.4-.3 1.7-1.6 1.7-6.3 0-6.7-.3-7-7.7-6.2l-5.2.5-.3-6.4-.3-6.4-5.8-.3c-4.2-.2-5.9.1-6.3 1.1zM199.6 570.9c-.3.4-.6 14.7-.6 31.7l-.2 30.9 18.2.5c10 .3 18.5.3 18.9 0 .4-.3.7-5.9.7-12.5l-.1-12-6-.5-6-.5-.3-5.7c-.3-5.4-.5-5.7-3.2-6.3-1.6-.4-3.9-.4-5 0-4.1 1.3-4.9-.8-4.6-12.5.1-6.1-.1-11.5-.5-12.1-.8-1.3-10.6-2.2-11.3-1zM441.4 571.3c-1.7.9-2 10.2-.3 11.2 1 .7 48.8.9 49.5.3.6-.6.8-10.8.2-11.3-.9-.9-47.8-1.1-49.4-.2z"/><path d="M224.7 583.7c-.4.3-.7 3.5-.7 6.9v6.3l5.3-.3c2.9-.1 5.8-.6 6.5-1 .6-.4 1.1-2.6 1.1-4.9-.2-7.4-.4-7.7-6.3-7.7-2.9 0-5.6.3-5.9.7zM250.2 584.2c-1.6 1.6-1.5 10.5 0 11.4 1.6 1 9.3 1.3 10.8.4.7-.4 1-2.9.8-6.6l-.3-5.9-5.1-.2c-2.8-.2-5.5.2-6.2.9zM605.9 583.5c-.9 0-.4 11.7.4 12.2 1.9 1.1 10 1.3 11.3.2 1.4-1.1 1.4-9.6.1-11.7-.6-.8-2.7-1.2-6.3-1-3 .2-5.5.3-5.5.3z"/></svg>